SplineFontDB: 3.0
FontName: Aladin-Regular
FullName: Aladin Regular
FamilyName: Aladin
Weight: Book
Copyright: Copyright (c) 2009 Angel Koziupa (sudtipos@sudtipos.com),\nCopyright (c) 2009 Alejandro Paul (sudtipos@sudtipos.com),\nwith Reserved Font Name "Aladin"
Version: 1.000
ItalicAngle: 0
UnderlinePosition: -50
UnderlineWidth: 50
Ascent: 800
Descent: 200
sfntRevision: 0x00010000
LayerCount: 2
Layer: 0 1 "Back"  1
Layer: 1 1 "Fore"  0
XUID: [1021 288 713564382 558490]
FSType: 0
OS2Version: 2
OS2_WeightWidthSlopeOnly: 0
OS2_UseTypoMetrics: 1
CreationTime: 1322170909
ModificationTime: 1322196196
PfmFamily: 17
TTFWeight: 400
TTFWidth: 5
LineGap: 0
VLineGap: 0
Panose: 2 0 5 6 0 0 0 2 0 4
OS2TypoAscent: 105
OS2TypoAOffset: 1
OS2TypoDescent: -121
OS2TypoDOffset: 1
OS2TypoLinegap: 0
OS2WinAscent: 0
OS2WinAOffset: 1
OS2WinDescent: 0
OS2WinDOffset: 1
HheadAscent: 0
HheadAOffset: 1
HheadDescent: 0
HheadDOffset: 1
OS2SubXSize: 700
OS2SubYSize: 650
OS2SubXOff: 0
OS2SubYOff: 140
OS2SupXSize: 700
OS2SupYSize: 650
OS2SupXOff: 0
OS2SupYOff: 477
OS2StrikeYSize: 50
OS2StrikeYPos: 250
OS2Vendor: 'SUDT'
OS2CodePages: 20000001.00000000
OS2UnicodeRanges: 80000027.40000042.00000000.00000000
Lookup: 258 0 0 "'kern' Horizontal Kerning in Latin lookup 0"  {"'kern' Horizontal Kerning in Latin lookup 0 subtable"  } ['kern' ('DFLT' <'dflt' > 'latn' <'dflt' > ) ]
MarkAttachClasses: 1
DEI: 91125
TtTable: prep
PUSHW_1
 511
SCANCTRL
PUSHB_1
 4
SCANTYPE
EndTTInstrs
ShortTable: maxp 16
  1
  0
  236
  122
  7
  0
  0
  2
  0
  1
  1
  0
  64
  0
  0
  0
EndShort

StartChar: exclam
Encoding: 33 33 4
Width: 240
GlyphClass: 2
Flags: W
LayerCount: 2
Fore
SplineSet
111 85 m 2,0,-1
 135 86 l 2,1,2
 159 86 159 86 167.5 75.5 c 128,-1,3
 176 65 176 65 176 38.5 c 128,-1,4
 176 12 176 12 164.5 -0.5 c 128,-1,5
 153 -13 153 -13 119.5 -13 c 128,-1,6
 86 -13 86 -13 72.5 0 c 128,-1,7
 59 13 59 13 59 57 c 128,-1,8
 59 101 59 101 72 101 c 1,9,-1
 83 93 l 2,10,11
 94 85 94 85 111 85 c 2,0,-1
52 655 m 0,12,13
 51 660 51 660 51 670 c 128,-1,14
 51 680 51 680 67.5 690 c 128,-1,15
 84 700 84 700 106 704 c 0,16,17
 144 712 144 712 167 712 c 128,-1,18
 190 712 190 712 190 692 c 1,19,-1
 188 680 l 1,20,21
 150 522 150 522 150 235 c 0,22,23
 150 203 150 203 151 193.5 c 128,-1,24
 152 184 152 184 151 181 c 128,-1,25
 150 178 150 178 140.5 172.5 c 128,-1,26
 131 167 131 167 115 167 c 0,27,28
 80 167 80 167 79 190 c 1,29,30
 79 545 79 545 52 655 c 0,12,13
EndSplineSet
EndChar

StartChar: quotedbl
Encoding: 34 34 5
Width: 274
GlyphClass: 2
Flags: W
LayerCount: 2
Fore
SplineSet
269 700 m 128,-1,1
 279 691 279 691 279 667.5 c 128,-1,2
 279 644 279 644 269.5 610.5 c 128,-1,3
 260 577 260 577 251 560 c 2,4,-1
 242 542 l 1,5,6
 233 527 233 527 229 527 c 2,7,-1
 227 527 l 2,8,9
 218 527 218 527 218 534 c 0,10,11
 218 602 218 602 194 657 c 0,12,13
 185 676 185 676 185 678 c 0,14,15
 185 693 185 693 202.5 702 c 128,-1,16
 220 711 220 711 232 711.5 c 128,-1,17
 244 712 244 712 251.5 710.5 c 128,-1,0
 259 709 259 709 269 700 c 128,-1,1
134 700 m 128,-1,19
 144 691 144 691 144 667.5 c 128,-1,20
 144 644 144 644 135 610.5 c 128,-1,21
 126 577 126 577 116 560 c 1,22,-1
 107 542 l 1,23,24
 98 527 98 527 94 527 c 2,25,-1
 92 527 l 2,26,27
 83 527 83 527 83 534 c 0,28,29
 83 598 83 598 58 657 c 0,30,31
 50 676 50 676 50 678 c 0,32,33
 50 693 50 693 67.5 702 c 128,-1,34
 85 711 85 711 97 711.5 c 128,-1,35
 109 712 109 712 116.5 710.5 c 128,-1,18
 124 709 124 709 134 700 c 128,-1,19
EndSplineSet
EndChar

StartChar: numbersign
Encoding: 35 35 6
Width: 589
GlyphClass: 2
Flags: W
LayerCount: 2
Fore
SplineSet
242 295 m 1,0,-1
 354 296 l 1,1,-1
 355 399 l 1,2,-1
 242 399 l 1,3,-1
 242 295 l 1,0,-1
177 294 m 1,4,-1
 178 399 l 1,5,-1
 55 399 l 2,6,7
 40 399 40 399 40 420 c 0,8,9
 40 463 40 463 83 463 c 2,10,-1
 178 463 l 1,11,-1
 178 552 l 2,12,13
 178 595 178 595 223 595 c 0,14,15
 243 595 243 595 243 580 c 2,16,-1
 243 569 l 1,17,-1
 242 538 l 1,18,-1
 242 464 l 1,19,-1
 355 465 l 1,20,-1
 355 552 l 2,21,22
 355 595 355 595 400 595 c 0,23,24
 420 595 420 595 420 580 c 0,25,26
 419 531 419 531 419 466 c 1,27,-1
 533 466 l 2,28,29
 548 466 548 466 548 456 c 2,30,-1
 548 453 l 2,31,32
 548 399 548 399 508 399 c 2,33,-1
 419 399 l 1,34,-1
 419 297 l 1,35,-1
 533 297 l 2,36,37
 540 297 540 297 544 293.5 c 128,-1,38
 548 290 548 290 548 287 c 2,39,-1
 548 284 l 2,40,41
 548 230 548 230 508 230 c 2,42,-1
 419 230 l 1,43,-1
 419 138 l 2,44,45
 419 113 419 113 406.5 105 c 128,-1,46
 394 97 394 97 366 97 c 0,47,48
 354 97 354 97 354 111 c 2,49,-1
 354 230 l 1,50,-1
 242 230 l 1,51,-1
 242 138 l 2,52,53
 242 113 242 113 229.5 105 c 128,-1,54
 217 97 217 97 189 97 c 0,55,56
 177 97 177 97 177 111 c 2,57,-1
 177 230 l 1,58,-1
 55 230 l 2,59,60
 40 230 40 230 40 250 c 0,61,62
 40 294 40 294 83 294 c 2,63,-1
 177 294 l 1,4,-1
EndSplineSet
EndChar

StartChar: dollar
Encoding: 36 36 7
Width: 516
GlyphClass: 2
Flags: W
LayerCount: 2
Fore
SplineSet
171 559 m 1,0,1
 171 507 171 507 239 470 c 1,2,-1
 239 647 l 1,3,4
 209 638 209 638 192 616 c 128,-1,5
 175 594 175 594 173 576 c 2,6,-1
 171 559 l 1,0,1
297 287 m 1,7,-1
 297 67 l 1,8,9
 330 81 330 81 348.5 109.5 c 128,-1,10
 367 138 367 138 367 175 c 0,11,12
 367 242 367 242 297 287 c 1,7,-1
297 -16 m 1,13,-1
 296 -54 l 2,14,15
 296 -69 296 -69 285.5 -78 c 128,-1,16
 275 -87 275 -87 257 -87 c 128,-1,17
 239 -87 239 -87 239 -69 c 2,18,-1
 239 -21 l 1,19,20
 149 -21 149 -21 84.5 23.5 c 128,-1,21
 20 68 20 68 20 143 c 2,22,-1
 20 144 l 2,23,24
 20 181 20 181 31.5 208.5 c 128,-1,25
 43 236 43 236 60 249 c 0,26,27
 93 276 93 276 120 278 c 2,28,-1
 131 279 l 1,29,30
 159 279 159 279 182 265.5 c 128,-1,31
 205 252 205 252 205 228 c 0,32,33
 205 218 205 218 196 211 c 0,34,35
 179 200 179 200 169.5 184 c 128,-1,36
 160 168 160 168 158 157 c 2,37,-1
 157 146 l 1,38,39
 157 73 157 73 239 58 c 1,40,-1
 239 317 l 1,41,42
 228 322 228 322 206.5 331 c 128,-1,43
 185 340 185 340 169 348 c 128,-1,44
 153 356 153 356 135 367 c 128,-1,45
 117 378 117 378 94 398 c 0,46,47
 47 440 47 440 47 509 c 0,48,49
 47 600 47 600 101.5 651.5 c 128,-1,50
 156 703 156 703 239 716 c 1,51,-1
 239 751 l 2,52,53
 239 764 239 764 251.5 772.5 c 128,-1,54
 264 781 264 781 280 781 c 128,-1,55
 296 781 296 781 296 759 c 2,56,-1
 296 721 l 1,57,58
 370 721 370 721 421 692.5 c 128,-1,59
 472 664 472 664 472 614 c 0,60,61
 472 578 472 578 451.5 554 c 128,-1,62
 431 530 431 530 399 530 c 0,63,64
 384 530 384 530 369.5 536 c 128,-1,65
 355 542 355 542 355 554 c 1,66,-1
 359 585 l 1,67,68
 359 617 359 617 339.5 632.5 c 128,-1,69
 320 648 320 648 296 651 c 1,70,-1
 297 442 l 1,71,72
 299 441 299 441 303 439.5 c 128,-1,73
 307 438 307 438 326.5 429 c 128,-1,74
 346 420 346 420 365 410.5 c 128,-1,75
 384 401 384 401 414.5 381 c 128,-1,76
 445 361 445 361 460 342 c 0,77,78
 501 291 501 291 501 224 c 0,79,80
 501 119 501 119 443 59 c 128,-1,81
 385 -1 385 -1 297 -16 c 1,13,-1
EndSplineSet
EndChar

StartChar: percent
Encoding: 37 37 8
Width: 581
GlyphClass: 2
Flags: W
LayerCount: 2
Fore
SplineSet
429 301 m 128,-1,1
 376 301 376 301 376 160.5 c 128,-1,2
 376 20 376 20 429 20 c 128,-1,3
 482 20 482 20 482 160.5 c 128,-1,0
 482 301 482 301 429 301 c 128,-1,1
429 -15 m 128,-1,5
 368 -15 368 -15 337.5 22 c 128,-1,6
 307 59 307 59 307 157 c 128,-1,7
 307 255 307 255 338 296 c 128,-1,8
 369 337 369 337 429.5 337 c 128,-1,9
 490 337 490 337 520.5 296 c 128,-1,10
 551 255 551 255 551 161.5 c 128,-1,11
 551 68 551 68 517 21 c 0,12,4
 490 -15 490 -15 429 -15 c 128,-1,5
108 -3 m 1,13,14
 100 -22 100 -22 70.5 -22 c 128,-1,15
 41 -22 41 -22 41 -11 c 1,16,-1
 44 -3 l 1,17,-1
 478 703 l 1,18,19
 481 717 481 717 512 717 c 128,-1,20
 543 717 543 717 543 708 c 1,21,-1
 542 703 l 1,22,-1
 108 -3 l 1,13,14
152 672 m 128,-1,24
 99 672 99 672 99 531.5 c 128,-1,25
 99 391 99 391 152 391 c 128,-1,26
 205 391 205 391 205 531.5 c 128,-1,23
 205 672 205 672 152 672 c 128,-1,24
152 356 m 128,-1,28
 91 356 91 356 60.5 393 c 128,-1,29
 30 430 30 430 30 528 c 128,-1,30
 30 626 30 626 61 667 c 128,-1,31
 92 708 92 708 152.5 708 c 128,-1,32
 213 708 213 708 243.5 667 c 128,-1,33
 274 626 274 626 274 532.5 c 128,-1,34
 274 439 274 439 240 392 c 0,35,27
 213 356 213 356 152 356 c 128,-1,28
EndSplineSet
EndChar

StartChar: ampersand
Encoding: 38 38 9
Width: 578
GlyphClass: 2
Flags: W
LayerCount: 2
Fore
SplineSet
258 526 m 1,0,1
 260 520 260 520 264 520 c 128,-1,2
 268 520 268 520 272 524 c 0,3,4
 317 567 317 567 317 612 c 0,5,6
 317 633 317 633 306 643.5 c 128,-1,7
 295 654 295 654 276.5 654 c 128,-1,8
 258 654 258 654 247 639 c 128,-1,9
 236 624 236 624 236 594.5 c 128,-1,10
 236 565 236 565 258 526 c 1,0,1
280 65 m 0,11,12
 326 65 326 65 363 84 c 1,13,14
 318 158 318 158 270 262 c 128,-1,15
 222 366 222 366 219 371 c 128,-1,16
 216 376 216 376 214 376 c 2,17,-1
 208 373 l 1,18,19
 147 315 147 315 147 214 c 0,20,21
 147 150 147 150 180.5 107.5 c 128,-1,22
 214 65 214 65 280 65 c 0,11,12
182 442 m 2,23,24
 184 444 184 444 184 447 c 128,-1,25
 184 450 184 450 182 454 c 0,26,27
 148 516 148 516 148 574 c 128,-1,28
 148 632 148 632 188.5 669 c 128,-1,29
 229 706 229 706 294 706 c 0,30,31
 321 706 321 706 347 696 c 0,32,33
 396 677 396 677 396 622 c 0,34,35
 396 549 396 549 296 457 c 0,36,37
 294 455 294 455 294 453 c 0,38,39
 351 319 351 319 439 175 c 1,40,41
 455 221 455 221 455 276 c 1,42,43
 453 314 453 314 438 332 c 0,44,45
 436 335 436 335 436 338 c 0,46,47
 436 352 436 352 477 352 c 128,-1,48
 518 352 518 352 530.5 337 c 128,-1,49
 543 322 543 322 543 289 c 0,50,51
 543 185 543 185 486 103 c 1,52,53
 535 33 535 33 564 28 c 1,54,55
 573 25 573 25 573.5 16.5 c 128,-1,56
 574 8 574 8 559 2 c 0,57,58
 511 -18 511 -18 485 -18 c 0,59,60
 444 -18 444 -18 426 -2 c 0,61,62
 419 5 419 5 403 23 c 1,63,64
 340 -16 340 -16 266 -16 c 0,65,66
 164 -16 164 -16 97.5 36.5 c 128,-1,67
 31 89 31 89 31 188 c 0,68,69
 31 321 31 321 172 434 c 2,70,-1
 182 442 l 2,23,24
EndSplineSet
EndChar

StartChar: quotesingle
Encoding: 39 39 10
Width: 139
GlyphClass: 2
Flags: W
LayerCount: 2
Fore
SplineSet
134 700 m 128,-1,1
 144 691 144 691 144 667.5 c 128,-1,2
 144 644 144 644 135 610.5 c 128,-1,3
 126 577 126 577 116 560 c 1,4,-1
 107 542 l 1,5,6
 98 527 98 527 94 527 c 2,7,-1
 92 527 l 2,8,9
 83 527 83 527 83 534 c 0,10,11
 83 598 83 598 58 657 c 0,12,13
 50 676 50 676 50 678 c 0,14,15
 50 693 50 693 67.5 702 c 128,-1,16
 85 711 85 711 97 711.5 c 128,-1,17
 109 712 109 712 116.5 710.5 c 128,-1,0
 124 709 124 709 134 700 c 128,-1,1
EndSplineSet
EndChar

StartChar: parenleft
Encoding: 40 40 11
Width: 218
GlyphClass: 2
Flags: W
LayerCount: 2
Fore
SplineSet
137 346 m 128,-1,1
 137 264 137 264 148.5 191 c 128,-1,2
 160 118 160 118 177 72 c 0,3,4
 212 -22 212 -22 240 -58 c 1,5,-1
 251 -73 l 2,6,7
 256 -79 256 -79 256 -84 c 0,8,9
 256 -93 256 -93 246 -93 c 1,10,-1
 227 -87 l 1,11,12
 219 -83 219 -83 206.5 -75 c 128,-1,13
 194 -67 194 -67 162 -32.5 c 128,-1,14
 130 2 130 2 105.5 46 c 128,-1,15
 81 90 81 90 61 170.5 c 128,-1,16
 41 251 41 251 41 346 c 128,-1,17
 41 441 41 441 60 521 c 128,-1,18
 79 601 79 601 106 646.5 c 128,-1,19
 133 692 133 692 160.5 724 c 128,-1,20
 188 756 188 756 207 768 c 2,21,-1
 226 779 l 1,22,23
 243 787 243 787 251 787 c 128,-1,24
 259 787 259 787 259 780 c 0,25,26
 259 776 259 776 252.5 768 c 128,-1,27
 246 760 246 760 238.5 749.5 c 128,-1,28
 231 739 231 739 211.5 701.5 c 128,-1,29
 192 664 192 664 177 620 c 128,-1,30
 162 576 162 576 149.5 502 c 128,-1,0
 137 428 137 428 137 346 c 128,-1,1
EndSplineSet
EndChar

StartChar: parenright
Encoding: 41 41 12
Width: 218
GlyphClass: 2
Flags: W
LayerCount: 2
Fore
SplineSet
89 346 m 128,-1,1
 89 428 89 428 77.5 501 c 128,-1,2
 66 574 66 574 49 620 c 0,3,4
 14 714 14 714 -14 750 c 1,5,-1
 -25 765 l 2,6,7
 -33 776 -33 776 -33 780 c 0,8,9
 -33 787 -33 787 -26 787 c 1,10,-1
 0 779 l 1,11,12
 13 773 13 773 34.5 754.5 c 128,-1,13
 56 736 56 736 73.5 716 c 128,-1,14
 91 696 91 696 112 659.5 c 128,-1,15
 133 623 133 623 148 581 c 0,16,17
 185 482 185 482 185 366.5 c 128,-1,18
 185 251 185 251 166 171 c 128,-1,19
 147 91 147 91 119.5 45.5 c 128,-1,20
 92 0 92 0 64.5 -32 c 128,-1,21
 37 -64 37 -64 18 -76 c 2,22,-1
 -1 -87 l 2,23,24
 -12 -93 -12 -93 -21 -93 c 128,-1,25
 -30 -93 -30 -93 -30 -84 c 0,26,27
 -30 -79 -30 -79 -25 -73.5 c 128,-1,28
 -20 -68 -20 -68 -12.5 -57.5 c 128,-1,29
 -5 -47 -5 -47 14.5 -9.5 c 128,-1,30
 34 28 34 28 49 72 c 128,-1,31
 64 116 64 116 76.5 190 c 128,-1,0
 89 264 89 264 89 346 c 128,-1,1
EndSplineSet
EndChar

StartChar: asterisk
Encoding: 42 42 13
Width: 237
GlyphClass: 2
Flags: W
LayerCount: 2
Fore
SplineSet
104 643 m 0,0,1
 107 643 107 643 107 656.5 c 128,-1,2
 107 670 107 670 101.5 691 c 128,-1,3
 96 712 96 712 96 713 c 0,4,5
 96 727 96 727 118.5 727 c 128,-1,6
 141 727 141 727 141 715 c 0,7,8
 141 713 141 713 135 688.5 c 128,-1,9
 129 664 129 664 129 653 c 128,-1,10
 129 642 129 642 132 642 c 128,-1,11
 135 642 135 642 142 648 c 0,12,13
 161 661 161 661 185 685 c 0,14,15
 188 688 188 688 194.5 688 c 128,-1,16
 201 688 201 688 209 677 c 128,-1,17
 217 666 217 666 217 657.5 c 128,-1,18
 217 649 217 649 205.5 646.5 c 128,-1,19
 194 644 194 644 169 635 c 128,-1,20
 144 626 144 626 144 622 c 128,-1,21
 144 618 144 618 153 614 c 0,22,23
 174 603 174 603 208 595 c 0,24,25
 215 593 215 593 215 584 c 128,-1,26
 215 575 215 575 208.5 563.5 c 128,-1,27
 202 552 202 552 196 552 c 128,-1,28
 190 552 190 552 186 555.5 c 128,-1,29
 182 559 182 559 174 566 c 1,30,-1
 163 578 l 1,31,32
 141 598 141 598 133 598 c 0,33,34
 129 598 129 598 129 588 c 128,-1,35
 129 578 129 578 135 554 c 2,36,-1
 141 529 l 1,37,38
 141 515 141 515 118.5 515 c 128,-1,39
 96 515 96 515 96 527 c 0,40,41
 96 528 96 528 101.5 551.5 c 128,-1,42
 107 575 107 575 107 586.5 c 128,-1,43
 107 598 107 598 103 598 c 0,44,45
 94 598 94 598 52 556 c 0,46,47
 49 553 49 553 42.5 553 c 128,-1,48
 36 553 36 553 28 564 c 128,-1,49
 20 575 20 575 20 583 c 128,-1,50
 20 591 20 591 30 595 c 1,51,52
 64 602 64 602 77.5 610 c 128,-1,53
 91 618 91 618 91 621 c 1,54,-1
 87 626 l 1,55,56
 63 638 63 638 29 646 c 1,57,58
 21 649 21 649 21 658 c 128,-1,59
 21 667 21 667 28 678 c 128,-1,60
 35 689 35 689 41 689 c 128,-1,61
 47 689 47 689 52 684 c 0,62,63
 90 643 90 643 104 643 c 0,0,1
EndSplineSet
EndChar

StartChar: plus
Encoding: 43 43 14
Width: 519
GlyphClass: 2
Flags: W
LayerCount: 2
Fore
SplineSet
224 171 m 1,0,-1
 225 320 l 1,1,-1
 45 320 l 2,2,3
 30 320 30 320 30 340 c 0,4,5
 30 384 30 384 73 384 c 0,6,7
 176 384 176 384 225 385 c 1,8,9
 226 443 226 443 226 534 c 0,10,11
 226 579 226 579 278 579 c 2,12,-1
 282 579 l 2,13,14
 284 579 284 579 287.5 575 c 128,-1,15
 291 571 291 571 291 564 c 0,16,17
 291 438 291 438 290 386 c 1,18,-1
 473 387 l 2,19,20
 480 387 480 387 484 383.5 c 128,-1,21
 488 380 488 380 488 377 c 2,22,-1
 488 374 l 2,23,24
 488 320 488 320 448 320 c 2,25,-1
 290 320 l 1,26,27
 289 264 289 264 289 163 c 0,28,29
 289 122 289 122 243 122 c 0,30,31
 224 122 224 122 224 137 c 2,32,-1
 224 171 l 1,0,-1
EndSplineSet
EndChar

StartChar: comma
Encoding: 44 44 15
Width: 217
GlyphClass: 2
Flags: W
LayerCount: 2
Fore
SplineSet
167 42 m 0,0,1
 167 -13 167 -13 141.5 -53 c 128,-1,2
 116 -93 116 -93 85 -99 c 1,3,4
 78 -99 78 -99 78 -96 c 2,5,-1
 80 -90 l 1,6,7
 103 -67 103 -67 108 -31 c 1,8,-1
 109 -19 l 1,9,10
 109 -2 109 -2 95 0 c 1,11,-1
 90 0 l 2,12,13
 67 0 67 0 58.5 10 c 128,-1,14
 50 20 50 20 50 46 c 128,-1,15
 50 72 50 72 61.5 84.5 c 128,-1,16
 73 97 73 97 106 97 c 128,-1,17
 139 97 139 97 153 84.5 c 128,-1,18
 167 72 167 72 167 42 c 0,0,1
EndSplineSet
EndChar

StartChar: hyphen
Encoding: 45 45 16
Width: 478
GlyphClass: 2
Flags: W
LayerCount: 2
Fore
SplineSet
83 280 m 2,0,1
 83 280 83 280 425 283 c 0,2,3
 438 283 438 283 438 272 c 0,4,5
 438 222 438 222 402 222 c 2,6,-1
 57 222 l 2,7,8
 44 222 44 222 44 242 c 0,9,10
 44 280 44 280 83 280 c 2,0,1
EndSplineSet
EndChar

StartChar: period
Encoding: 46 46 17
Width: 218
GlyphClass: 2
Flags: W
LayerCount: 2
Fore
SplineSet
115 -1 m 1,0,-1
 91 -2 l 2,1,2
 67 -2 67 -2 59 8 c 128,-1,3
 51 18 51 18 50.5 45.5 c 128,-1,4
 50 73 50 73 63 85 c 128,-1,5
 76 97 76 97 107 97 c 128,-1,6
 138 97 138 97 152.5 85.5 c 128,-1,7
 167 74 167 74 167 48 c 0,8,9
 167 -17 167 -17 154 -17 c 1,10,-1
 149 -14 l 1,11,12
 142 -1 142 -1 115 -1 c 1,0,-1
EndSplineSet
EndChar

StartChar: slash
Encoding: 47 47 18
Width: 384
GlyphClass: 2
Flags: W
LayerCount: 2
Fore
SplineSet
-27 -42 m 1,0,1
 -38 -63 -38 -63 -67 -63 c 128,-1,2
 -96 -63 -96 -63 -96 -51 c 0,3,4
 -96 -46 -96 -46 -93 -42 c 2,5,-1
 384 734 l 1,6,7
 392 749 392 749 423 749 c 128,-1,8
 454 749 454 749 454 741 c 0,9,10
 454 740 454 740 -27 -42 c 1,0,1
EndSplineSet
EndChar

StartChar: zero
Encoding: 48 48 19
Width: 535
GlyphClass: 2
Flags: W
LayerCount: 2
Fore
SplineSet
267.5 649 m 128,-1,1
 162 649 162 649 162 350.5 c 128,-1,2
 162 52 162 52 267.5 52 c 128,-1,3
 373 52 373 52 373 350.5 c 128,-1,0
 373 649 373 649 267.5 649 c 128,-1,1
357 -1 m 128,-1,5
 318 -16 318 -16 262.5 -16 c 128,-1,6
 207 -16 207 -16 162 5.5 c 128,-1,7
 117 27 117 27 92.5 59.5 c 128,-1,8
 68 92 68 92 53 141 c 128,-1,9
 38 190 38 190 34 234 c 128,-1,10
 30 278 30 278 30 337.5 c 128,-1,11
 30 397 30 397 35 447 c 128,-1,12
 40 497 40 497 55 549.5 c 128,-1,13
 70 602 70 602 95.5 637 c 128,-1,14
 121 672 121 672 165 694.5 c 128,-1,15
 209 717 209 717 265.5 717 c 128,-1,16
 322 717 322 717 363 700 c 128,-1,17
 404 683 404 683 429 651.5 c 128,-1,18
 454 620 454 620 470 586 c 128,-1,19
 486 552 486 552 493 506 c 0,20,21
 505 428 505 428 505 366.5 c 128,-1,22
 505 305 505 305 501.5 265 c 128,-1,23
 498 225 498 225 489.5 180.5 c 128,-1,24
 481 136 481 136 463.5 102.5 c 128,-1,25
 446 69 446 69 421 41.5 c 128,-1,4
 396 14 396 14 357 -1 c 128,-1,5
EndSplineSet
EndChar

StartChar: one
Encoding: 49 49 20
Width: 272
GlyphClass: 2
Flags: W
LayerCount: 2
Fore
SplineSet
212 422 m 1,0,-1
 217 93 l 2,1,2
 217 45 217 45 216 32 c 0,3,4
 215 8 215 8 176 -3.5 c 128,-1,5
 137 -15 137 -15 107 -15 c 128,-1,6
 77 -15 77 -15 77 0 c 0,7,8
 77 8 77 8 82 54 c 0,9,10
 100 198 100 198 100 369 c 1,11,-1
 96 522 l 1,12,13
 90 574 90 574 41 574 c 1,14,-1
 21 572 l 1,15,16
 4 572 4 572 4 583 c 0,17,18
 4 608 4 608 87.5 664 c 128,-1,19
 171 720 171 720 205 720 c 0,20,21
 221 720 221 720 221 699.5 c 128,-1,22
 221 679 221 679 216.5 593 c 128,-1,23
 212 507 212 507 212 422 c 1,0,-1
EndSplineSet
EndChar

StartChar: two
Encoding: 50 50 21
Width: 481
GlyphClass: 2
Flags: W
LayerCount: 2
Fore
SplineSet
297 -10 m 1,0,-1
 138 -1 l 1,1,2
 81 -1 81 -1 45 -17 c 0,3,4
 38 -20 38 -20 33 -20 c 0,5,6
 20 -20 20 -20 20 13.5 c 128,-1,7
 20 47 20 47 39 93.5 c 128,-1,8
 58 140 58 140 85 180 c 0,9,10
 142 267 142 267 184 312 c 2,11,-1
 203 332 l 2,12,13
 258 391 258 391 291.5 448 c 128,-1,14
 325 505 325 505 325 572 c 0,15,16
 325 635 325 635 276 652 c 0,17,18
 265 656 265 656 245 656.5 c 128,-1,19
 225 657 225 657 207 649 c 128,-1,20
 189 641 189 641 180 629 c 0,21,22
 163 604 163 604 162 583 c 0,23,24
 160 547 160 547 178 535 c 1,25,-1
 183 531 l 1,26,27
 204 522 204 522 204 504 c 2,28,-1
 204 503 l 2,29,30
 204 476 204 476 188 460.5 c 128,-1,31
 172 445 172 445 156 443 c 2,32,-1
 139 441 l 1,33,34
 109 441 109 441 88.5 452 c 128,-1,35
 68 463 68 463 60 480 c 0,36,37
 45 510 45 510 45 540 c 0,38,39
 45 625 45 625 109.5 673 c 128,-1,40
 174 721 174 721 257 721 c 128,-1,41
 340 721 340 721 397 678 c 128,-1,42
 454 635 454 635 454 558 c 0,43,44
 454 454 454 454 365 375 c 1,45,-1
 345 358 l 2,46,47
 211 244 211 244 169 172 c 0,48,49
 154 147 154 147 154 130 c 0,50,51
 154 119 154 119 173.5 116.5 c 128,-1,52
 193 114 193 114 249 114 c 0,53,54
 390 114 390 114 432 160 c 1,55,56
 437 163 437 163 442 163 c 0,57,58
 454 163 454 163 454 129 c 128,-1,59
 454 95 454 95 440 56.5 c 128,-1,60
 426 18 426 18 399 2 c 0,61,62
 380 -10 380 -10 297 -10 c 1,0,-1
EndSplineSet
EndChar

StartChar: three
Encoding: 51 51 22
Width: 477
GlyphClass: 2
Flags: W
LayerCount: 2
Fore
SplineSet
132 355 m 2,0,1
 125 355 125 355 125 360 c 2,2,-1
 125 362 l 1,3,4
 128 426 128 426 161 426 c 2,5,-1
 181 426 l 2,6,7
 217 426 217 426 243.5 438 c 128,-1,8
 270 450 270 450 284 466.5 c 128,-1,9
 298 483 298 483 306 506 c 0,10,11
 318 539 318 539 318 569.5 c 128,-1,12
 318 600 318 600 309 618 c 128,-1,13
 300 636 300 636 286 643 c 0,14,15
 264 654 264 654 236 654 c 128,-1,16
 208 654 208 654 185 633 c 128,-1,17
 162 612 162 612 162 577 c 0,18,19
 162 562 162 562 168 547 c 128,-1,20
 174 532 174 532 174 529 c 0,21,22
 174 514 174 514 157 506.5 c 128,-1,23
 140 499 140 499 117.5 499 c 128,-1,24
 95 499 95 499 78 514 c 128,-1,25
 61 529 61 529 57.5 543.5 c 128,-1,26
 54 558 54 558 54 573 c 0,27,28
 54 622 54 622 88 655 c 0,29,30
 149 713 149 713 260 713 c 0,31,32
 283 713 283 713 317.5 704.5 c 128,-1,33
 352 696 352 696 375 682.5 c 128,-1,34
 398 669 398 669 417 639 c 128,-1,35
 436 609 436 609 436 570.5 c 128,-1,36
 436 532 436 532 423.5 502.5 c 128,-1,37
 411 473 411 473 393 456 c 0,38,39
 355 421 355 421 326 414 c 1,40,-1
 314 410 l 1,41,42
 308 406 308 406 308 402.5 c 128,-1,43
 308 399 308 399 314.5 398 c 128,-1,44
 321 397 321 397 330.5 394.5 c 128,-1,45
 340 392 340 392 365 379.5 c 128,-1,46
 390 367 390 367 409 348 c 128,-1,47
 428 329 428 329 443.5 292.5 c 128,-1,48
 459 256 459 256 459 200.5 c 128,-1,49
 459 145 459 145 435 98.5 c 128,-1,50
 411 52 411 52 376 31 c 0,51,52
 305 -13 305 -13 250 -15 c 2,53,-1
 226 -16 l 1,54,55
 131 -16 131 -16 79 23.5 c 128,-1,56
 27 63 27 63 27 128 c 0,57,58
 27 178 27 178 54.5 217 c 128,-1,59
 82 256 82 256 128 256 c 0,60,61
 153 256 153 256 173.5 245 c 128,-1,62
 194 234 194 234 194 213 c 0,63,64
 194 202 194 202 185 198 c 1,65,66
 170 189 170 189 162 172.5 c 128,-1,67
 154 156 154 156 153 144 c 2,68,-1
 152 132 l 1,69,70
 152 96 152 96 172 73.5 c 128,-1,71
 192 51 192 51 224 51 c 0,72,73
 328 51 328 51 328 222 c 0,74,75
 328 293 328 293 284 325 c 128,-1,76
 240 357 240 357 169 357 c 0,77,78
 163 357 163 357 157 357 c 2,79,-1
 134 355 l 1,80,-1
 132 355 l 2,0,1
EndSplineSet
EndChar

StartChar: four
Encoding: 52 52 23
Width: 483
GlyphClass: 2
Flags: W
LayerCount: 2
Fore
SplineSet
141 287 m 2,0,-1
 224 285 l 1,1,2
 268 285 268 285 293 286 c 1,3,4
 296 368 296 368 296 430 c 2,5,-1
 295 528 l 2,6,7
 295 541 295 541 288 541 c 1,8,-1
 276 535 l 1,9,10
 245 501 245 501 210.5 446 c 128,-1,11
 176 391 176 391 157 352 c 2,12,-1
 138 314 l 2,13,14
 134 305 134 305 134 296 c 128,-1,15
 134 287 134 287 141 287 c 2,0,-1
288 183 m 1,16,-1
 202 184 l 1,17,-1
 22 182 l 2,18,19
 0 182 0 182 0 202 c 1,20,-1
 2 213 l 1,21,22
 66 371 66 371 217 572 c 0,23,24
 265 637 265 637 306 682 c 1,25,-1
 319 695 l 2,26,27
 345 722 345 722 396 722 c 0,28,29
 423 722 423 722 423 706 c 1,30,31
 407 565 407 565 407 419 c 2,32,-1
 407 292 l 1,33,34
 420 293 420 293 435 294 c 2,35,-1
 458 296 l 2,36,37
 465 296 465 296 467 296 c 0,38,39
 475 296 475 296 475 291 c 0,40,41
 475 274 475 274 458 236 c 128,-1,42
 441 198 441 198 423 190 c 1,43,-1
 409 187 l 1,44,45
 411 74 411 74 419 35 c 1,46,47
 419 9 419 9 379.5 -3 c 128,-1,48
 340 -15 340 -15 304.5 -15 c 128,-1,49
 269 -15 269 -15 269 1 c 0,50,51
 269 3 269 3 275 41 c 128,-1,52
 281 79 281 79 288 183 c 1,16,-1
EndSplineSet
EndChar

StartChar: five
Encoding: 53 53 24
Width: 483
GlyphClass: 2
Flags: W
LayerCount: 2
Fore
SplineSet
365 589 m 1,0,-1
 266 596 l 1,1,2
 173 596 173 596 169 571 c 1,3,4
 155 505 155 505 153 454 c 0,5,6
 153 444 153 444 160 444 c 0,7,8
 162 444 162 444 166 446 c 0,9,10
 202 465 202 465 249 465 c 128,-1,11
 296 465 296 465 333.5 451 c 128,-1,12
 371 437 371 437 392 413 c 128,-1,13
 413 389 413 389 427.5 364.5 c 128,-1,14
 442 340 442 340 448 310 c 0,15,16
 456 262 456 262 456 230 c 0,17,18
 456 124 456 124 398.5 53.5 c 128,-1,19
 341 -17 341 -17 235 -17 c 2,20,-1
 232 -17 l 2,21,22
 139 -17 139 -17 81.5 19 c 128,-1,23
 24 55 24 55 24 128 c 0,24,25
 24 163 24 163 34.5 189 c 128,-1,26
 45 215 45 215 60 227 c 0,27,28
 91 252 91 252 116 254 c 2,29,-1
 126 255 l 1,30,31
 149 255 149 255 170 244.5 c 128,-1,32
 191 234 191 234 191 213 c 0,33,34
 191 205 191 205 180 196.5 c 128,-1,35
 169 188 169 188 161 171.5 c 128,-1,36
 153 155 153 155 152 144 c 2,37,-1
 150 132 l 1,38,39
 150 105 150 105 159 86.5 c 128,-1,40
 168 68 168 68 182 62 c 0,41,42
 205 51 205 51 221 51 c 0,43,44
 256 51 256 51 279.5 74.5 c 128,-1,45
 303 98 303 98 312 134 c 0,46,47
 325 190 325 190 325 221 c 0,48,49
 325 392 325 392 229 392 c 0,50,51
 170 392 170 392 134 338 c 1,52,53
 129 321 129 321 91 321 c 128,-1,54
 53 321 53 321 53 337 c 2,55,-1
 53 341 l 1,56,57
 75 470 75 470 89 689 c 1,58,59
 92 698 92 698 103 700 c 1,60,61
 144 702 144 702 195 702 c 2,62,-1
 310 700 l 1,63,64
 402 700 402 700 421 708 c 0,65,66
 425 710 425 710 430 710 c 0,67,68
 440 710 440 710 440 700 c 0,69,70
 440 672 440 672 416.5 630.5 c 128,-1,71
 393 589 393 589 365 589 c 1,0,-1
EndSplineSet
EndChar

StartChar: six
Encoding: 54 54 25
Width: 491
GlyphClass: 2
Flags: W
LayerCount: 2
Fore
SplineSet
301 347.5 m 128,-1,1
 281 368 281 368 251.5 368 c 128,-1,2
 222 368 222 368 202 347.5 c 128,-1,3
 182 327 182 327 174 296 c 1,4,5
 163 247 163 247 163 212 c 128,-1,6
 163 177 163 177 169 144.5 c 128,-1,7
 175 112 175 112 196 83 c 128,-1,8
 217 54 217 54 247 54 c 128,-1,9
 277 54 277 54 295.5 71.5 c 128,-1,10
 314 89 314 89 323 116 c 0,11,12
 340 167 340 167 340 197 c 128,-1,13
 340 227 340 227 338 245.5 c 128,-1,14
 336 264 336 264 328.5 295.5 c 128,-1,0
 321 327 321 327 301 347.5 c 128,-1,1
255 -13 m 0,15,16
 197 -13 197 -13 154.5 5 c 128,-1,17
 112 23 112 23 88.5 50.5 c 128,-1,18
 65 78 65 78 52 120 c 0,19,20
 30 188 30 188 30 271.5 c 128,-1,21
 30 355 30 355 35.5 409 c 128,-1,22
 41 463 41 463 58.5 522 c 128,-1,23
 76 581 76 581 103.5 623 c 128,-1,24
 131 665 131 665 179 692 c 128,-1,25
 227 719 227 719 290 719 c 0,26,27
 330 719 330 719 384 701 c 0,28,29
 416 690 416 690 437 661 c 128,-1,30
 458 632 458 632 458 589 c 0,31,32
 458 561 458 561 446 542 c 0,33,34
 423 505 423 505 384 505 c 0,35,36
 362 505 362 505 343.5 519 c 128,-1,37
 325 533 325 533 325 546.5 c 128,-1,38
 325 560 325 560 334 573 c 128,-1,39
 343 586 343 586 343 603 c 0,40,41
 343 659 343 659 278 659 c 0,42,43
 273 659 273 659 265.5 658 c 128,-1,44
 258 657 258 657 238 643.5 c 128,-1,45
 218 630 218 630 203 606.5 c 128,-1,46
 188 583 188 583 175.5 531 c 128,-1,47
 163 479 163 479 163 407 c 1,48,49
 164 399 164 399 169 399 c 0,50,51
 170 399 170 399 174 401 c 1,52,53
 186 415 186 415 221 428.5 c 128,-1,54
 256 442 256 442 294 442 c 128,-1,55
 332 442 332 442 364 429 c 128,-1,56
 396 416 396 416 413.5 394 c 128,-1,57
 431 372 431 372 443 349.5 c 128,-1,58
 455 327 455 327 460 302 c 0,59,60
 467 259 467 259 467 242 c 0,61,62
 467 135 467 135 411.5 61 c 128,-1,63
 356 -13 356 -13 255 -13 c 0,15,16
EndSplineSet
EndChar

StartChar: seven
Encoding: 55 55 26
Width: 404
GlyphClass: 2
Flags: W
LayerCount: 2
Fore
SplineSet
135 705 m 1,0,-1
 287 700 l 1,1,2
 339 700 339 700 372 704 c 1,3,-1
 383 706 l 1,4,5
 400 706 400 706 400 668 c 128,-1,6
 400 630 400 630 387 601 c 1,7,8
 209 316 209 316 209 74 c 0,9,10
 209 27 209 27 216.5 14 c 128,-1,11
 224 1 224 1 224 0 c 0,12,13
 224 -18 224 -18 169 -18 c 0,14,15
 71 -18 71 -18 71 19 c 0,16,17
 71 157 71 157 180.5 365 c 128,-1,18
 290 573 290 573 290 589 c 0,19,20
 290 597 290 597 282 599 c 1,21,22
 248 601 248 601 221.5 601 c 128,-1,23
 195 601 195 601 162 594.5 c 128,-1,24
 129 588 129 588 110 578 c 0,25,26
 72 559 72 559 62 544 c 2,27,-1
 57 537 l 1,28,29
 50 525 50 525 42 525 c 0,30,31
 30 525 30 525 30 543 c 0,32,33
 30 693 30 693 64 700 c 0,34,35
 84 705 84 705 135 705 c 1,0,-1
EndSplineSet
EndChar

StartChar: eight
Encoding: 56 56 27
Width: 496
GlyphClass: 2
Flags: W
LayerCount: 2
Fore
SplineSet
355 186 m 1,0,1
 350 271 350 271 280 318 c 0,2,3
 248 340 248 340 240.5 340 c 128,-1,4
 233 340 233 340 224.5 335.5 c 128,-1,5
 216 331 216 331 203.5 319.5 c 128,-1,6
 191 308 191 308 180 292 c 0,7,8
 152 254 152 254 152 187 c 0,9,10
 152 155 152 155 162 121 c 0,11,12
 183 56 183 56 251 56 c 0,13,14
 305 56 305 56 330 98 c 128,-1,15
 355 140 355 140 355 186 c 1,0,1
321 509 m 128,-1,17
 332 543 332 543 332 566 c 128,-1,18
 332 589 332 589 324.5 608.5 c 128,-1,19
 317 628 317 628 306 636 c 1,20,21
 285 654 285 654 257.5 655 c 128,-1,22
 230 656 230 656 210.5 646 c 128,-1,23
 191 636 191 636 183 620 c 0,24,25
 170 594 170 594 170 569 c 0,26,27
 170 525 170 525 213 489.5 c 128,-1,28
 256 454 256 454 275 454 c 0,29,30
 280 454 280 454 285 458 c 0,31,16
 310 475 310 475 321 509 c 128,-1,17
243 -14 m 0,32,33
 144 -14 144 -14 79.5 35.5 c 128,-1,34
 15 85 15 85 15 175 c 0,35,36
 15 218 15 218 29.5 255.5 c 128,-1,37
 44 293 44 293 65 316 c 0,38,39
 106 360 106 360 144 376 c 1,40,-1
 158 383 l 2,41,42
 164 385 164 385 164 389 c 1,43,-1
 159 395 l 1,44,45
 53 439 53 439 53 543 c 0,46,47
 53 625 53 625 113.5 670 c 128,-1,48
 174 715 174 715 258 715 c 0,49,50
 294 715 294 715 330 705.5 c 128,-1,51
 366 696 366 696 389 682 c 128,-1,52
 412 668 412 668 429.5 639.5 c 128,-1,53
 447 611 447 611 447 569 c 128,-1,54
 447 527 447 527 421 486 c 128,-1,55
 395 445 395 445 355 419 c 1,56,57
 347 415 347 415 347 412.5 c 128,-1,58
 347 410 347 410 353 405 c 1,59,60
 369 399 369 399 394.5 379.5 c 128,-1,61
 420 360 420 360 436.5 339.5 c 128,-1,62
 453 319 453 319 467 284 c 128,-1,63
 481 249 481 249 481 222 c 128,-1,64
 481 195 481 195 479 177 c 128,-1,65
 477 159 477 159 464 122 c 128,-1,66
 451 85 451 85 428 57.5 c 128,-1,67
 405 30 405 30 357 8 c 128,-1,68
 309 -14 309 -14 243 -14 c 0,32,33
EndSplineSet
EndChar

StartChar: nine
Encoding: 57 57 28
Width: 498
GlyphClass: 2
Flags: W
LayerCount: 2
Fore
SplineSet
193 380 m 128,-1,1
 214 356 214 356 246.5 356 c 128,-1,2
 279 356 279 356 300 382 c 0,3,4
 335 424 335 424 335 497 c 0,5,6
 335 531 335 531 326 571 c 0,7,8
 306 651 306 651 246 651 c 0,9,10
 217 651 217 651 197 630.5 c 128,-1,11
 177 610 177 610 170 579 c 0,12,13
 158 531 158 531 158 497 c 128,-1,14
 158 463 158 463 165 433.5 c 128,-1,0
 172 404 172 404 193 380 c 128,-1,1
31 466 m 0,15,16
 31 602 31 602 108 670 c 1,17,18
 166 719 166 719 231.5 719 c 128,-1,19
 297 719 297 719 340 702 c 128,-1,20
 383 685 383 685 407.5 658.5 c 128,-1,21
 432 632 432 632 446 590 c 0,22,23
 468 523 468 523 468 413 c 0,24,25
 468 -14 468 -14 213 -14 c 0,26,27
 170 -14 170 -14 123 0 c 0,28,29
 30 28 30 28 30 119 c 128,-1,30
 30 210 30 210 112 210 c 0,31,32
 133 210 133 210 149.5 195.5 c 128,-1,33
 166 181 166 181 166 166 c 128,-1,34
 166 151 166 151 155.5 134 c 128,-1,35
 145 117 145 117 145 107 c 0,36,37
 145 46 145 46 213 46 c 2,38,-1
 214 46 l 2,39,40
 335 46 335 46 335 317 c 1,41,42
 334 325 334 325 329 325 c 0,43,44
 328 325 328 325 324 323 c 1,45,46
 312 309 312 309 277 295.5 c 128,-1,47
 242 282 242 282 206 282 c 0,48,49
 125 282 125 282 78 336.5 c 128,-1,50
 31 391 31 391 31 466 c 0,15,16
EndSplineSet
EndChar

StartChar: colon
Encoding: 58 58 29
Width: 217
GlyphClass: 2
Flags: W
LayerCount: 2
Fore
SplineSet
115 -1 m 1,0,-1
 91 -2 l 2,1,2
 67 -2 67 -2 58.5 8.5 c 128,-1,3
 50 19 50 19 50 47.5 c 128,-1,4
 50 76 50 76 64 86.5 c 128,-1,5
 78 97 78 97 109 97 c 128,-1,6
 140 97 140 97 153.5 84.5 c 128,-1,7
 167 72 167 72 167 42 c 0,8,9
 167 -17 167 -17 154 -17 c 1,10,-1
 149 -14 l 1,11,12
 142 -1 142 -1 115 -1 c 1,0,-1
118 352 m 1,13,-1
 94 350 l 1,14,15
 70 350 70 350 60 361 c 128,-1,16
 50 372 50 372 50 399 c 128,-1,17
 50 426 50 426 63 437.5 c 128,-1,18
 76 449 76 449 107 449 c 128,-1,19
 138 449 138 449 152.5 438 c 128,-1,20
 167 427 167 427 167 381.5 c 128,-1,21
 167 336 167 336 154 336 c 1,22,-1
 149 339 l 1,23,24
 143 352 143 352 118 352 c 1,13,-1
EndSplineSet
EndChar

StartChar: semicolon
Encoding: 59 59 30
Width: 217
GlyphClass: 2
Flags: W
LayerCount: 2
Fore
SplineSet
118 352 m 1,0,-1
 94 350 l 1,1,2
 70 350 70 350 60 361 c 128,-1,3
 50 372 50 372 50 399 c 128,-1,4
 50 426 50 426 63 437.5 c 128,-1,5
 76 449 76 449 107 449 c 128,-1,6
 138 449 138 449 152.5 438 c 128,-1,7
 167 427 167 427 167 381.5 c 128,-1,8
 167 336 167 336 154 336 c 1,9,-1
 149 339 l 1,10,11
 143 352 143 352 118 352 c 1,0,-1
167 42 m 0,12,13
 167 -13 167 -13 141.5 -53 c 128,-1,14
 116 -93 116 -93 85 -99 c 1,15,16
 78 -99 78 -99 78 -96 c 2,17,-1
 80 -90 l 1,18,19
 103 -67 103 -67 108 -31 c 1,20,-1
 109 -19 l 1,21,22
 109 -2 109 -2 95 0 c 1,23,-1
 90 0 l 2,24,25
 67 0 67 0 58.5 10 c 128,-1,26
 50 20 50 20 50 46 c 128,-1,27
 50 72 50 72 61.5 84.5 c 128,-1,28
 73 97 73 97 106 97 c 128,-1,29
 139 97 139 97 153 84.5 c 128,-1,30
 167 72 167 72 167 42 c 0,12,13
EndSplineSet
EndChar

StartChar: less
Encoding: 60 60 31
Width: 421
GlyphClass: 2
Flags: W
LayerCount: 2
Fore
SplineSet
362 84 m 0,0,1
 355 84 355 84 348 92 c 0,2,3
 334 108 334 108 118 242 c 2,4,-1
 46 287 l 1,5,6
 30 300 30 300 30 311 c 0,7,8
 30 330 30 330 49 345 c 0,9,10
 214 472 214 472 364 563 c 0,11,12
 371 568 371 568 377 568 c 0,13,14
 391 568 391 568 391 540.5 c 128,-1,15
 391 513 391 513 372 498 c 1,16,17
 210 399 210 399 136 338 c 1,18,19
 127 332 127 332 127 325.5 c 128,-1,20
 127 319 127 319 134 315 c 0,21,22
 321 203 321 203 368 164 c 1,23,24
 384 155 384 155 384 134 c 0,25,26
 384 84 384 84 362 84 c 0,0,1
EndSplineSet
EndChar

StartChar: equal
Encoding: 61 61 32
Width: 500
GlyphClass: 2
Flags: W
LayerCount: 2
Fore
SplineSet
453 310 m 2,0,1
 468 310 468 310 468 300 c 2,2,-1
 468 297 l 2,3,4
 468 243 468 243 428 243 c 2,5,-1
 45 243 l 2,6,7
 30 243 30 243 30 264 c 0,8,9
 30 307 30 307 73 307 c 2,10,-1
 453 310 l 2,0,1
74 466 m 2,11,-1
 454 469 l 2,12,13
 461 469 461 469 465 465.5 c 128,-1,14
 469 462 469 462 469 459 c 2,15,-1
 469 456 l 2,16,17
 469 402 469 402 429 402 c 2,18,-1
 46 402 l 2,19,20
 31 402 31 402 31 422 c 0,21,22
 31 466 31 466 74 466 c 2,11,-1
EndSplineSet
EndChar

StartChar: greater
Encoding: 62 62 33
Width: 421
GlyphClass: 2
Flags: W
LayerCount: 2
Fore
SplineSet
73 90 m 0,0,1
 66 82 66 82 59 82 c 0,2,3
 47 82 47 82 42 97 c 128,-1,4
 37 112 37 112 37 125 c 0,5,6
 37 150 37 150 56 164 c 0,7,8
 104 202 104 202 239 284 c 2,9,-1
 287 313 l 2,10,11
 294 317 294 317 294 322 c 0,12,13
 294 331 294 331 285 336 c 1,14,15
 219 390 219 390 92 470 c 1,16,-1
 49 496 l 1,17,18
 30 511 30 511 30 538.5 c 128,-1,19
 30 566 30 566 44 566 c 1,20,-1
 57 561 l 1,21,22
 186 484 186 484 326 378 c 2,23,-1
 372 343 l 1,24,25
 391 330 391 330 391 314 c 128,-1,26
 391 298 391 298 375 285 c 1,27,28
 91 110 91 110 73 90 c 0,0,1
EndSplineSet
EndChar

StartChar: question
Encoding: 63 63 34
Width: 432
GlyphClass: 2
Flags: W
LayerCount: 2
Fore
SplineSet
182 85 m 2,0,-1
 206 86 l 2,1,2
 230 86 230 86 238.5 75.5 c 128,-1,3
 247 65 247 65 247 38.5 c 128,-1,4
 247 12 247 12 235.5 -0.5 c 128,-1,5
 224 -13 224 -13 190.5 -13 c 128,-1,6
 157 -13 157 -13 143.5 0 c 128,-1,7
 130 13 130 13 130 57 c 128,-1,8
 130 101 130 101 143 101 c 1,9,-1
 154 93 l 2,10,11
 165 85 165 85 182 85 c 2,0,-1
137 685 m 128,-1,13
 179 702 179 702 232 702 c 128,-1,14
 285 702 285 702 321 686.5 c 128,-1,15
 357 671 357 671 374 651 c 128,-1,16
 391 631 391 631 401 605 c 0,17,18
 414 571 414 571 414 534 c 128,-1,19
 414 497 414 497 394 457 c 128,-1,20
 374 417 374 417 346 390 c 128,-1,21
 318 363 318 363 290 340 c 0,22,23
 222 282 222 282 222 240 c 0,24,25
 222 216 222 216 236 196 c 128,-1,26
 250 176 250 176 250 175 c 0,27,28
 250 166 250 166 230 166 c 0,29,30
 221 166 221 166 198.5 173.5 c 128,-1,31
 176 181 176 181 162.5 191 c 128,-1,32
 149 201 149 201 138 221.5 c 128,-1,33
 127 242 127 242 127 263 c 128,-1,34
 127 284 127 284 142 294 c 0,35,36
 304 409 304 409 304 534 c 0,37,38
 304 566 304 566 295 593 c 0,39,40
 278 647 278 647 229.5 647 c 128,-1,41
 181 647 181 647 155.5 609 c 128,-1,42
 130 571 130 571 130 516 c 0,43,44
 130 478 130 478 152 451 c 0,45,46
 160 442 160 442 160 439 c 0,47,48
 160 428 160 428 133 428 c 0,49,50
 121 428 121 428 100 435.5 c 128,-1,51
 79 443 79 443 65.5 454 c 128,-1,52
 52 465 52 465 41 489.5 c 128,-1,53
 30 514 30 514 30 533.5 c 128,-1,54
 30 553 30 553 31.5 563.5 c 128,-1,55
 33 574 33 574 44.5 601 c 128,-1,56
 56 628 56 628 75.5 648 c 128,-1,12
 95 668 95 668 137 685 c 128,-1,13
EndSplineSet
EndChar

StartChar: at
Encoding: 64 64 35
Width: 912
GlyphClass: 2
Flags: W
LayerCount: 2
Fore
SplineSet
616 300 m 2,0,-1
 613 137 l 1,1,2
 613 65 613 65 625 34.5 c 128,-1,3
 637 4 637 4 670.5 4 c 128,-1,4
 704 4 704 4 726 30 c 128,-1,5
 748 56 748 56 758 96 c 0,6,7
 775 165 775 165 775 228 c 128,-1,8
 775 291 775 291 760.5 342 c 128,-1,9
 746 393 746 393 724 425 c 128,-1,10
 702 457 702 457 671 481 c 128,-1,11
 640 505 640 505 613 516.5 c 128,-1,12
 586 528 586 528 556 535 c 0,13,14
 517 544 517 544 483 544 c 0,15,16
 327 544 327 544 237.5 448.5 c 128,-1,17
 148 353 148 353 148 208.5 c 128,-1,18
 148 64 148 64 218 -21 c 128,-1,19
 288 -106 288 -106 422 -106 c 1,20,-1
 456 -102 l 2,21,22
 463 -102 463 -102 463 -109 c 0,23,24
 463 -128 463 -128 431 -144.5 c 128,-1,25
 399 -161 399 -161 361 -161 c 0,26,27
 209 -161 209 -161 124.5 -71 c 128,-1,28
 40 19 40 19 40 166 c 2,29,-1
 40 167 l 2,30,31
 40 306 40 306 95 398 c 0,32,33
 147 484 147 484 222 526 c 0,34,35
 299 570 299 570 363 584 c 0,36,37
 426 597 426 597 461 598 c 1,38,-1
 476 599 l 1,39,40
 555 599 555 599 619.5 581.5 c 128,-1,41
 684 564 684 564 724 537.5 c 128,-1,42
 764 511 764 511 794 474.5 c 128,-1,43
 824 438 824 438 838.5 406.5 c 128,-1,44
 853 375 853 375 861 340 c 0,45,46
 872 292 872 292 872 248 c 128,-1,47
 872 204 872 204 859.5 151 c 128,-1,48
 847 98 847 98 821.5 52 c 128,-1,49
 796 6 796 6 750.5 -22 c 128,-1,50
 705 -50 705 -50 637.5 -50 c 128,-1,51
 570 -50 570 -50 540.5 -20 c 128,-1,52
 511 10 511 10 511 75 c 1,53,-1
 517 223 l 2,54,55
 517 227 517 227 514.5 229 c 128,-1,56
 512 231 512 231 510 231 c 2,57,-1
 508 231 l 1,58,59
 459 229 459 229 418 202.5 c 128,-1,60
 377 176 377 176 377 134 c 0,61,62
 377 112 377 112 389 97 c 128,-1,63
 401 82 401 82 417.5 82 c 128,-1,64
 434 82 434 82 446.5 89 c 128,-1,65
 459 96 459 96 461 97 c 1,66,67
 478 95 478 95 478 61.5 c 128,-1,68
 478 28 478 28 447 7.5 c 128,-1,69
 416 -13 416 -13 382.5 -13 c 128,-1,70
 349 -13 349 -13 325 -2 c 128,-1,71
 301 9 301 9 289.5 23.5 c 128,-1,72
 278 38 278 38 272 56 c 0,73,74
 263 81 263 81 263 101 c 0,75,76
 263 187 263 187 339 238 c 0,77,78
 375 263 375 263 436 278.5 c 128,-1,79
 497 294 497 294 508 298 c 1,80,-1
 515 306 l 1,81,82
 518 322 518 322 518 347 c 128,-1,83
 518 372 518 372 504.5 383.5 c 128,-1,84
 491 395 491 395 464.5 395 c 128,-1,85
 438 395 438 395 421.5 380.5 c 128,-1,86
 405 366 405 366 405 343 c 1,87,-1
 411 320 l 1,88,89
 410 312 410 312 398 307 c 128,-1,90
 386 302 386 302 375 301 c 2,91,-1
 364 300 l 1,92,93
 337 300 337 300 318 315 c 128,-1,94
 299 330 299 330 299 356.5 c 128,-1,95
 299 383 299 383 316.5 404 c 128,-1,96
 334 425 334 425 362 434 c 0,97,98
 415 452 415 452 469 452 c 0,99,100
 504 452 504 452 540 442 c 0,101,102
 611 421 611 421 615 360 c 0,103,104
 616 344 616 344 616 300 c 2,0,-1
EndSplineSet
EndChar

StartChar: A
Encoding: 65 65 36
Width: 573
GlyphClass: 2
Flags: W
LayerCount: 2
Fore
SplineSet
290 573 m 0,0,1
 211 474 211 474 176 375 c 1,2,-1
 177 375 l 2,3,4
 316 375 316 375 336.5 374.5 c 128,-1,5
 357 374 357 374 359 376 c 128,-1,6
 361 378 361 378 362 381 c 1,7,8
 345 504 345 504 335 548.5 c 128,-1,9
 325 593 325 593 315 593 c 128,-1,10
 305 593 305 593 290 573 c 0,0,1
201 102 m 1,11,-1
 223 106 l 1,12,13
 233 106 233 106 233 95 c 0,14,15
 233 60 233 60 219 36 c 128,-1,16
 205 12 205 12 184 2 c 0,17,18
 150 -15 150 -15 126 -15 c 0,19,20
 80 -15 80 -15 57 19.5 c 128,-1,21
 34 54 34 54 34 123.5 c 128,-1,22
 34 193 34 193 72 304 c 1,23,-1
 14 304 l 2,24,25
 3 304 3 304 3 315 c 128,-1,26
 3 326 3 326 20 350.5 c 128,-1,27
 37 375 37 375 56 375 c 2,28,-1
 101 375 l 1,29,30
 172 533 172 533 268 648 c 0,31,32
 293 678 293 678 329.5 704 c 128,-1,33
 366 730 366 730 386 730 c 128,-1,34
 406 730 406 730 416 712 c 0,35,36
 442 670 442 670 477 405 c 1,37,38
 489 291 489 291 518.5 169.5 c 128,-1,39
 548 48 548 48 573 28 c 0,40,41
 579 24 579 24 579 18 c 0,42,43
 579 3 579 3 536.5 -10 c 128,-1,44
 494 -23 494 -23 471.5 -23 c 128,-1,45
 449 -23 449 -23 437 -17.5 c 128,-1,46
 425 -12 425 -12 422 -6 c 0,47,48
 404 33 404 33 386 180 c 2,49,-1
 380 227 l 1,50,51
 376 274 376 274 372 298 c 1,52,-1
 365 303 l 1,53,-1
 156 304 l 1,54,55
 144 253 144 253 144 215 c 128,-1,56
 144 177 144 177 146.5 159.5 c 128,-1,57
 149 142 149 142 163 122 c 128,-1,58
 177 102 177 102 201 102 c 1,11,-1
EndSplineSet
EndChar

StartChar: B
Encoding: 66 66 37
Width: 521
GlyphClass: 2
Flags: W
LayerCount: 2
Fore
SplineSet
177 450 m 1,0,-1
 178 325 l 1,1,-1
 174 152 l 1,2,3
 175 148 175 148 177 148 c 128,-1,4
 179 148 179 148 180 150 c 0,5,6
 200 178 200 178 229.5 178 c 128,-1,7
 259 178 259 178 259 166 c 0,8,9
 259 128 259 128 273.5 107.5 c 128,-1,10
 288 87 288 87 314.5 87 c 128,-1,11
 341 87 341 87 365.5 123 c 128,-1,12
 390 159 390 159 390 219 c 0,13,14
 390 239 390 239 382 267 c 0,15,16
 366 323 366 323 322 342 c 0,17,18
 290 355 290 355 218 355 c 0,19,20
 210 355 210 355 210 366 c 0,21,22
 210 422 210 422 230 424 c 1,23,24
 257 424 257 424 287 438 c 0,25,26
 347 466 347 466 347 553 c 0,27,28
 347 647 347 647 239 647 c 1,29,-1
 208 645 l 1,30,31
 190 641 190 641 188 630 c 1,32,-1
 188 627 l 1,33,34
 177 587 177 587 177 450 c 1,0,-1
30 -14 m 1,35,-1
 32 -3 l 1,36,37
 42 15 42 15 49 143.5 c 128,-1,38
 56 272 56 272 56 383.5 c 128,-1,39
 56 495 56 495 51.5 562.5 c 128,-1,40
 47 630 47 630 27 660 c 0,41,42
 23 665 23 665 23 672 c 128,-1,43
 23 679 23 679 35 684 c 0,44,45
 117 716 117 716 258 716 c 0,46,47
 293 716 293 716 334 706.5 c 128,-1,48
 375 697 375 697 401.5 683 c 128,-1,49
 428 669 428 669 449.5 640 c 128,-1,50
 471 611 471 611 474 571 c 1,51,52
 474 426 474 426 354 404 c 0,53,54
 348 402 348 402 348 399.5 c 128,-1,55
 348 397 348 397 353 394 c 1,56,57
 415 384 415 384 457 344 c 0,58,59
 478 325 478 325 495 285 c 128,-1,60
 512 245 512 245 512 193 c 0,61,62
 512 126 512 126 473 66 c 0,63,64
 441 17 441 17 380 -4 c 0,65,66
 346 -16 346 -16 304 -16 c 0,67,68
 199 -16 199 -16 171 51 c 0,69,70
 170 54 170 54 168 54 c 1,71,-1
 164 50 l 1,72,73
 143 -20 143 -20 44 -23 c 0,74,75
 30 -23 30 -23 30 -14 c 1,35,-1
EndSplineSet
EndChar

StartChar: C
Encoding: 67 67 38
Width: 506
GlyphClass: 2
Flags: W
LayerCount: 2
Fore
SplineSet
462 229 m 0,0,1
 481 229 481 229 481 181 c 128,-1,2
 481 133 481 133 463 95 c 128,-1,3
 445 57 445 57 419.5 36 c 128,-1,4
 394 15 394 15 362 2 c 0,5,6
 255 -45 255 -45 162 4 c 0,7,8
 115 29 115 29 90 63.5 c 128,-1,9
 65 98 65 98 50 146 c 0,10,11
 27 218 27 218 27 297 c 128,-1,12
 27 376 27 376 42 445 c 128,-1,13
 57 514 57 514 88 576.5 c 128,-1,14
 119 639 119 639 176 677 c 128,-1,15
 233 715 233 715 308 715 c 0,16,17
 340 715 340 715 374.5 704.5 c 128,-1,18
 409 694 409 694 431 678.5 c 128,-1,19
 453 663 453 663 470 631 c 128,-1,20
 487 599 487 599 487 556 c 0,21,22
 487 510 487 510 465 473 c 0,23,24
 455 456 455 456 433 442.5 c 128,-1,25
 411 429 411 429 381 429 c 0,26,27
 335 429 335 429 316 470 c 0,28,29
 308 486 308 486 308 505 c 128,-1,30
 308 524 308 524 321 527 c 0,31,32
 335 531 335 531 347 549 c 128,-1,33
 359 567 359 567 359 591 c 0,34,35
 359 610 359 610 349 624 c 0,36,37
 330 649 330 649 294 649 c 128,-1,38
 258 649 258 649 228.5 616 c 128,-1,39
 199 583 199 583 184 533 c 0,40,41
 154 433 154 433 154 349 c 256,42,43
 154 265 154 265 177 214 c 0,44,45
 205 151 205 151 248 130 c 0,46,47
 275 117 275 117 310 117 c 0,48,49
 369 117 369 117 416 170 c 1,50,51
 436 191 436 191 449 220 c 0,52,53
 454 229 454 229 462 229 c 0,0,1
EndSplineSet
EndChar

StartChar: D
Encoding: 68 68 39
Width: 525
GlyphClass: 2
Flags: W
LayerCount: 2
Fore
SplineSet
240 648 m 0,0,1
 222 648 222 648 209 642 c 128,-1,2
 196 636 196 636 196 627 c 1,3,4
 184 585 184 585 184 376.5 c 128,-1,5
 184 168 184 168 183 143 c 1,6,7
 202 113 202 113 242 113 c 0,8,9
 313 113 313 113 349 191.5 c 128,-1,10
 385 270 385 270 385 388.5 c 128,-1,11
 385 507 385 507 350 577.5 c 128,-1,12
 315 648 315 648 240 648 c 0,0,1
49 -11 m 1,13,14
 34 -9 34 -9 34 -2 c 1,15,-1
 37 10 l 1,16,17
 62 64 62 64 62 399 c 0,18,19
 62 559 62 559 53.5 599 c 128,-1,20
 45 639 45 639 40 650 c 2,21,-1
 35 660 l 1,22,23
 31 664 31 664 31 671.5 c 128,-1,24
 31 679 31 679 43 684 c 0,25,26
 121 715 121 715 248 715 c 0,27,28
 515 715 515 715 515 375 c 0,29,30
 515 242 515 242 468 132 c 0,31,32
 449 90 449 90 424 59.5 c 128,-1,33
 399 29 399 29 358.5 8.5 c 128,-1,34
 318 -12 318 -12 269 -12 c 1,35,36
 259 -11 259 -11 243.5 -9 c 128,-1,37
 228 -7 228 -7 197.5 6 c 128,-1,38
 167 19 167 19 156 40 c 1,39,40
 119 -11 119 -11 49 -11 c 1,13,14
EndSplineSet
EndChar

StartChar: E
Encoding: 69 69 40
Width: 478
GlyphClass: 2
Flags: W
LayerCount: 2
Fore
SplineSet
464 124 m 0,0,1
 464 54 464 54 419.5 20 c 128,-1,2
 375 -14 375 -14 295 -14 c 0,3,4
 167 -14 167 -14 106.5 71 c 128,-1,5
 46 156 46 156 46 293 c 0,6,7
 46 315 46 315 48 357 c 1,8,-1
 -8 357 l 2,9,10
 -16 357 -16 357 -16 363 c 0,11,12
 -16 380 -16 380 1 404 c 128,-1,13
 18 428 18 428 38 428 c 2,14,-1
 57 428 l 1,15,16
 70 500 70 500 99.5 555 c 128,-1,17
 129 610 129 610 161.5 640 c 128,-1,18
 194 670 194 670 233 688 c 0,19,20
 295 718 295 718 363 718 c 128,-1,21
 431 718 431 718 448 696 c 0,22,23
 456 685 456 685 456 655.5 c 128,-1,24
 456 626 456 626 449 626 c 0,25,26
 448 626 448 626 440 630 c 0,27,28
 414 642 414 642 375 642 c 0,29,30
 290 642 290 642 242.5 582 c 128,-1,31
 195 522 195 522 179 428 c 1,32,33
 255 429 255 429 385 429 c 0,34,35
 395 429 395 429 395 422 c 0,36,37
 395 406 395 406 379 381.5 c 128,-1,38
 363 357 363 357 343 357 c 2,39,-1
 171 357 l 1,40,41
 170 345 170 345 170 304.5 c 128,-1,42
 170 264 170 264 184.5 219.5 c 128,-1,43
 199 175 199 175 238.5 144 c 128,-1,44
 278 113 278 113 341 113 c 128,-1,45
 404 113 404 113 447 141 c 0,46,47
 452 145 452 145 456 145 c 0,48,49
 464 145 464 145 464 124 c 0,0,1
EndSplineSet
EndChar

StartChar: F
Encoding: 70 70 41
Width: 407
GlyphClass: 2
Flags: W
LayerCount: 2
Fore
SplineSet
72 180 m 1,0,-1
 78 357 l 1,1,-1
 11 357 l 2,2,3
 3 357 3 357 3 363 c 0,4,5
 3 381 3 381 20 404.5 c 128,-1,6
 37 428 37 428 57 428 c 2,7,-1
 78 428 l 1,8,9
 76 506 76 506 74 540 c 0,10,11
 70 601 70 601 54 634 c 2,12,-1
 49 644 l 1,13,14
 45 649 45 649 45 656 c 128,-1,15
 45 663 45 663 56 668 c 128,-1,16
 67 673 67 673 88.5 680 c 128,-1,17
 110 687 110 687 180 698.5 c 128,-1,18
 250 710 250 710 332.5 710 c 128,-1,19
 415 710 415 710 422.5 698 c 128,-1,20
 430 686 430 686 430 660.5 c 128,-1,21
 430 635 430 635 423 635 c 0,22,23
 422 635 422 635 416 636 c 0,24,25
 400 640 400 640 367 640 c 128,-1,26
 334 640 334 640 296 634 c 128,-1,27
 258 628 258 628 238 622 c 1,28,-1
 219 615 l 2,29,30
 211 613 211 613 207 601 c 1,31,32
 199 542 199 542 199 428 c 1,33,-1
 361 428 l 2,34,35
 370 428 370 428 370 422 c 0,36,37
 370 404 370 404 354 380 c 128,-1,38
 338 356 338 356 318 356 c 2,39,-1
 199 357 l 1,40,-1
 206 57 l 2,41,42
 206 35 206 35 199 25 c 0,43,44
 180 0 180 0 134.5 -12.5 c 128,-1,45
 89 -25 89 -25 59 -25 c 0,46,47
 51 -25 51 -25 51 -15 c 0,48,49
 51 -10 51 -10 52 -7 c 0,50,51
 64 10 64 10 72 180 c 1,0,-1
EndSplineSet
EndChar

StartChar: G
Encoding: 71 71 42
Width: 537
GlyphClass: 2
Flags: W
LayerCount: 2
Fore
SplineSet
377 294 m 2,0,1
 377 317 377 317 349 319 c 1,2,-1
 278 319 l 2,3,4
 270 319 270 319 270 324 c 1,5,6
 276 353 276 353 291 370.5 c 128,-1,7
 306 388 306 388 316 390 c 0,8,9
 344 394 344 394 408 394 c 128,-1,10
 472 394 472 394 488 393.5 c 128,-1,11
 504 393 504 393 508 390 c 1,12,13
 512 385 512 385 512 378.5 c 128,-1,14
 512 372 512 372 508.5 295.5 c 128,-1,15
 505 219 505 219 505 158.5 c 128,-1,16
 505 98 505 98 509 82.5 c 128,-1,17
 513 67 513 67 513 63 c 0,18,19
 513 47 513 47 485 28.5 c 128,-1,20
 457 10 457 10 400.5 -4 c 128,-1,21
 344 -18 344 -18 276 -18 c 0,22,23
 185 -18 185 -18 118 45 c 0,24,25
 66 95 66 95 46.5 154 c 128,-1,26
 27 213 27 213 27 320 c 0,27,28
 27 717 27 717 318 717 c 0,29,30
 367 717 367 717 406 706.5 c 128,-1,31
 445 696 445 696 474.5 665.5 c 128,-1,32
 504 635 504 635 504 587 c 0,33,34
 504 562 504 562 494 536 c 1,35,36
 476 483 476 483 414 483 c 0,37,38
 380 483 380 483 362.5 500.5 c 128,-1,39
 345 518 345 518 345 549 c 0,40,41
 345 561 345 561 358 564 c 1,42,43
 377 575 377 575 377 601.5 c 128,-1,44
 377 628 377 628 357 642.5 c 128,-1,45
 337 657 337 657 315 657 c 0,46,47
 267 657 267 657 234 622.5 c 128,-1,48
 201 588 201 588 186 532 c 0,49,50
 161 432 161 432 161 328 c 0,51,52
 161 158 161 158 244 102 c 0,53,54
 275 80 275 80 309 80 c 0,55,56
 372 80 372 80 376 103 c 1,57,58
 379 134 379 134 379 199 c 1,59,-1
 377 294 l 2,0,1
EndSplineSet
EndChar

StartChar: H
Encoding: 72 72 43
Width: 549
GlyphClass: 2
Flags: W
LayerCount: 2
Fore
SplineSet
198 443 m 1,0,-1
 198 429 l 1,1,-1
 375 429 l 1,2,-1
 375 431 l 1,3,4
 376 455 376 455 376 491.5 c 128,-1,5
 376 528 376 528 375 555.5 c 128,-1,6
 374 583 374 583 373 602 c 128,-1,7
 372 621 372 621 370.5 635 c 128,-1,8
 369 649 369 649 368 656.5 c 128,-1,9
 367 664 367 664 367 670 c 128,-1,10
 367 676 367 676 378 684 c 0,11,12
 426 716 426 716 485 716 c 0,13,14
 522 716 522 716 522 703 c 0,15,16
 522 702 522 702 520 692 c 0,17,18
 501 597 501 597 496 429 c 1,19,20
 493 261 493 261 493 249 c 0,21,22
 493 94 493 94 511 34 c 0,23,24
 514 26 514 26 514 20.5 c 128,-1,25
 514 15 514 15 506 8 c 1,26,27
 469 -16 469 -16 410 -16 c 0,28,29
 372 -16 372 -16 367 10 c 0,30,31
 364 24 364 24 364 53.5 c 128,-1,32
 364 83 364 83 367.5 144 c 128,-1,33
 371 205 371 205 373 357 c 1,34,-1
 198 357 l 1,35,36
 198 129 198 129 212 37 c 1,37,38
 212 13 212 13 166 -2.5 c 128,-1,39
 120 -18 120 -18 90 -18 c 128,-1,40
 60 -18 60 -18 60 -9 c 0,41,42
 60 -3 60 -3 63 6 c 0,43,44
 82 48 82 48 82 344 c 2,45,-1
 82 357 l 1,46,-1
 23 357 l 2,47,48
 15 357 15 357 15 363 c 0,49,50
 15 365 15 365 19 378.5 c 128,-1,51
 23 392 23 392 37.5 410 c 128,-1,52
 52 428 52 428 70 428 c 2,53,-1
 81 428 l 1,54,55
 81 625 81 625 58 655 c 1,56,-1
 54 661 l 1,57,58
 48 666 48 666 48 673.5 c 128,-1,59
 48 681 48 681 59 686 c 1,60,61
 74 695 74 695 112.5 704 c 128,-1,62
 151 713 151 713 182 713 c 128,-1,63
 213 713 213 713 213 699 c 2,64,-1
 213 696 l 1,65,66
 201 592 201 592 198 443 c 1,0,-1
EndSplineSet
EndChar

StartChar: I
Encoding: 73 73 44
Width: 245
GlyphClass: 2
Flags: W
LayerCount: 2
Fore
SplineSet
190 443 m 1,0,1
 190 133 190 133 204 37 c 1,2,3
 204 13 204 13 158 -2.5 c 128,-1,4
 112 -18 112 -18 82 -18 c 128,-1,5
 52 -18 52 -18 52 -9 c 0,6,7
 52 -3 52 -3 55 6 c 0,8,9
 74 48 74 48 74 344 c 0,10,11
 74 624 74 624 50 655 c 1,12,-1
 46 661 l 1,13,14
 40 666 40 666 40 673.5 c 128,-1,15
 40 681 40 681 51 686 c 1,16,17
 66 695 66 695 104.5 704 c 128,-1,18
 143 713 143 713 174 713 c 128,-1,19
 205 713 205 713 205 699 c 2,20,-1
 205 696 l 1,21,22
 193 592 193 592 190 443 c 1,0,1
EndSplineSet
EndChar

StartChar: J
Encoding: 74 74 45
Width: 247
GlyphClass: 2
Flags: W
LayerCount: 2
Fore
SplineSet
75 185 m 2,0,-1
 77 387 l 1,1,2
 77 624 77 624 54 655 c 0,3,4
 43 669 43 669 43 674.5 c 128,-1,5
 43 680 43 680 56.5 687.5 c 128,-1,6
 70 695 70 695 109 704 c 128,-1,7
 148 713 148 713 178 713 c 128,-1,8
 208 713 208 713 208 699 c 1,9,-1
 206 686 l 1,10,11
 194 578 194 578 194 475 c 128,-1,12
 194 372 194 372 200 245 c 128,-1,13
 206 118 206 118 206 58 c 0,14,15
 206 -23 206 -23 143.5 -81.5 c 128,-1,16
 81 -140 81 -140 -5 -145 c 1,17,18
 -22 -143 -22 -143 -22 -133 c 0,19,20
 -22 -126 -22 -126 -17.5 -122 c 128,-1,21
 -13 -118 -13 -118 -7 -112 c 128,-1,22
 -1 -106 -1 -106 15 -81 c 128,-1,23
 31 -56 31 -56 43 -24.5 c 128,-1,24
 55 7 55 7 65 63 c 128,-1,25
 75 119 75 119 75 185 c 2,0,-1
EndSplineSet
EndChar

StartChar: K
Encoding: 75 75 46
Width: 495
GlyphClass: 2
Flags: W
LayerCount: 2
Fore
SplineSet
358.5 673.5 m 128,-1,1
 385 702 385 702 402 709 c 128,-1,2
 419 716 419 716 471 716 c 128,-1,3
 523 716 523 716 523 703 c 0,4,5
 523 698 523 698 512 692 c 128,-1,6
 501 686 501 686 482 673 c 128,-1,7
 463 660 463 660 402.5 602 c 128,-1,8
 342 544 342 544 281 466 c 0,9,10
 279 464 279 464 279 460.5 c 128,-1,11
 279 457 279 457 284.5 456 c 128,-1,12
 290 455 290 455 300 453 c 128,-1,13
 310 451 310 451 336.5 437.5 c 128,-1,14
 363 424 363 424 384 403.5 c 128,-1,15
 405 383 405 383 424.5 340.5 c 128,-1,16
 444 298 444 298 447 260.5 c 128,-1,17
 450 223 450 223 453 193 c 128,-1,18
 456 163 456 163 468.5 107 c 128,-1,19
 481 51 481 51 498 40 c 0,20,21
 503 36 503 36 503 30 c 0,22,23
 503 14 503 14 459 0.5 c 128,-1,24
 415 -13 415 -13 380.5 -13 c 128,-1,25
 346 -13 346 -13 341 15 c 0,26,27
 336 45 336 45 334 158 c 1,28,-1
 334 198 l 2,29,30
 334 303 334 303 304 350 c 0,31,32
 278 391 278 391 257 396 c 1,33,34
 241 401 241 401 240 401 c 2,35,-1
 229 396 l 1,36,37
 205 368 205 368 191 342 c 128,-1,38
 177 316 177 316 176 304 c 2,39,-1
 174 291 l 1,40,41
 174 150 174 150 186 50 c 0,42,43
 188 38 188 38 188 36 c 0,44,45
 188 14 188 14 141.5 -2 c 128,-1,46
 95 -18 95 -18 65.5 -18 c 128,-1,47
 36 -18 36 -18 36 -9 c 0,48,49
 36 -3 36 -3 39 6 c 0,50,51
 49 28 49 28 53.5 151.5 c 128,-1,52
 58 275 58 275 58 376.5 c 128,-1,53
 58 478 58 478 54 541 c 0,54,55
 48 636 48 636 34 655 c 0,56,57
 23 669 23 669 23 673 c 0,58,59
 23 687 23 687 74.5 700 c 128,-1,60
 126 713 126 713 157.5 713 c 128,-1,61
 189 713 189 713 189 699 c 1,62,-1
 188 686 l 1,63,64
 175 578 175 578 175 455 c 0,65,66
 175 445 175 445 179.5 445 c 128,-1,67
 184 445 184 445 190 454 c 128,-1,68
 196 463 196 463 207.5 479 c 128,-1,69
 219 495 219 495 249.5 537 c 128,-1,70
 280 579 280 579 306 612 c 128,-1,0
 332 645 332 645 358.5 673.5 c 128,-1,1
EndSplineSet
EndChar

StartChar: L
Encoding: 76 76 47
Width: 446
GlyphClass: 2
Flags: W
LayerCount: 2
Fore
SplineSet
308 1 m 2,0,-1
 251 2 l 2,1,2
 239 2 239 2 227 2 c 2,3,-1
 45 -7 l 2,4,5
 30 -7 30 -7 30 3 c 0,6,7
 30 6 30 6 33 17 c 1,8,9
 43 40 43 40 47.5 163 c 128,-1,10
 52 286 52 286 52 387.5 c 128,-1,11
 52 489 52 489 48 552 c 0,12,13
 42 647 42 647 28 666 c 0,14,15
 17 680 17 680 17 684 c 0,16,17
 17 700 17 700 71 712 c 128,-1,18
 125 724 125 724 148.5 724 c 128,-1,19
 172 724 172 724 178 721.5 c 128,-1,20
 184 719 184 719 184 711 c 128,-1,21
 184 703 184 703 180 660 c 0,22,23
 170 533 170 533 170 364.5 c 128,-1,24
 170 196 170 196 178 95 c 0,25,26
 178 84 178 84 197 76 c 128,-1,27
 216 68 216 68 244 68 c 0,28,29
 342 68 342 68 342 219 c 0,30,31
 342 261 342 261 337.5 271 c 128,-1,32
 333 281 333 281 333 284 c 0,33,34
 333 294 333 294 347 294 c 0,35,36
 358 294 358 294 376.5 283 c 128,-1,37
 395 272 395 272 407 255.5 c 128,-1,38
 419 239 419 239 429 203.5 c 128,-1,39
 439 168 439 168 439 120 c 0,40,41
 439 1 439 1 410 1 c 0,42,43
 359 1 359 1 308 1 c 2,0,-1
EndSplineSet
EndChar

StartChar: M
Encoding: 77 77 48
Width: 695
GlyphClass: 2
Flags: W
LayerCount: 2
Fore
SplineSet
54 389 m 1,0,-1
 49 578 l 1,1,2
 49 623 49 623 39 649 c 128,-1,3
 29 675 29 675 29 677 c 0,4,5
 29 699 29 699 96.5 711 c 128,-1,6
 164 723 164 723 199.5 723 c 128,-1,7
 235 723 235 723 238 706 c 0,8,9
 301 425 301 425 344 316 c 0,10,11
 349 304 349 304 354.5 304 c 128,-1,12
 360 304 360 304 364 313 c 0,13,14
 431 502 431 502 482 687 c 0,15,16
 486 699 486 699 502 705.5 c 128,-1,17
 518 712 518 712 557.5 718 c 128,-1,18
 597 724 597 724 636 724 c 128,-1,19
 675 724 675 724 675 708 c 0,20,21
 675 707 675 707 672 692.5 c 128,-1,22
 669 678 669 678 666 657 c 128,-1,23
 663 636 663 636 659 606 c 0,24,25
 650 537 650 537 647.5 447.5 c 128,-1,26
 645 358 645 358 645 268 c 1,27,-1
 647 163 l 1,28,29
 647 91 647 91 656.5 60.5 c 128,-1,30
 666 30 666 30 666 25.5 c 128,-1,31
 666 21 666 21 659 15 c 0,32,33
 628 -10 628 -10 565 -10 c 0,34,35
 525 -10 525 -10 520 17 c 0,36,37
 517 31 517 31 517 61.5 c 128,-1,38
 517 92 517 92 523 249 c 128,-1,39
 529 406 529 406 529 477.5 c 128,-1,40
 529 549 529 549 521 549 c 0,41,42
 520 549 520 549 520 548.5 c 128,-1,43
 520 548 520 548 517 547 c 128,-1,44
 514 546 514 546 501.5 516 c 128,-1,45
 489 486 489 486 452 368 c 128,-1,46
 415 250 415 250 385 147.5 c 128,-1,47
 355 45 355 45 352 37 c 0,48,49
 341 10 341 10 310 10 c 0,50,51
 295 10 295 10 286 21 c 1,52,53
 254 169 254 169 172 444 c 1,54,-1
 144 535 l 2,55,56
 142 540 142 540 140 540 c 0,57,58
 135 540 135 540 133 533 c 1,59,60
 129 468 129 468 129 277.5 c 128,-1,61
 129 87 129 87 143 37 c 0,62,63
 144 35 144 35 144 31 c 0,64,65
 144 10 144 10 111 0.5 c 128,-1,66
 78 -9 78 -9 51.5 -9 c 128,-1,67
 25 -9 25 -9 25 3 c 0,68,69
 25 4 25 4 30 19 c 0,70,71
 45 70 45 70 49.5 167 c 128,-1,72
 54 264 54 264 54 389 c 1,0,-1
EndSplineSet
EndChar

StartChar: N
Encoding: 78 78 49
Width: 532
GlyphClass: 2
Flags: W
LayerCount: 2
Fore
SplineSet
409 313 m 2,0,-1
 408 432 l 1,1,2
 408 609 408 609 396 667 c 0,3,4
 394 674 394 674 394 678 c 0,5,6
 394 695 394 695 428 707 c 128,-1,7
 462 719 462 719 482 719 c 128,-1,8
 502 719 502 719 502 707 c 0,9,10
 502 706 502 706 500 696 c 0,11,12
 477 573 477 573 477 305 c 0,13,14
 477 122 477 122 498 42 c 0,15,16
 502 29 502 29 502 28 c 0,17,18
 502 7 502 7 456 -6.5 c 128,-1,19
 410 -20 410 -20 391 -20 c 0,20,21
 361 -20 361 -20 350 -6 c 0,22,23
 328 22 328 22 278.5 151.5 c 128,-1,24
 229 281 229 281 192 393 c 2,25,-1
 154 505 l 2,26,27
 152 510 152 510 149 510 c 0,28,29
 145 510 145 510 140 503 c 1,30,31
 135 410 135 410 135 317 c 128,-1,32
 135 224 135 224 136.5 174 c 128,-1,33
 138 124 138 124 140 98 c 128,-1,34
 142 72 142 72 144 56.5 c 128,-1,35
 146 41 146 41 147.5 34 c 128,-1,36
 149 27 149 27 149 24 c 0,37,38
 149 5 149 5 116 -5.5 c 128,-1,39
 83 -16 83 -16 56.5 -16 c 128,-1,40
 30 -16 30 -16 30 -4 c 0,41,42
 30 2 30 2 33 11 c 128,-1,43
 36 20 36 20 40 34 c 0,44,45
 50 69 50 69 54 161.5 c 128,-1,46
 58 254 58 254 58 372.5 c 128,-1,47
 58 491 58 491 55 545 c 0,48,49
 50 633 50 633 37 663 c 1,50,51
 34 666 34 666 34 671 c 0,52,53
 34 687 34 687 87 702 c 128,-1,54
 140 717 140 717 169.5 717 c 128,-1,55
 199 717 199 717 204 716 c 1,56,57
 218 717 218 717 221 700 c 1,58,59
 250 595 250 595 302.5 453 c 128,-1,60
 355 311 355 311 396 236 c 1,61,62
 401 231 401 231 404 231 c 0,63,64
 409 231 409 231 409 313 c 2,0,-1
EndSplineSet
EndChar

StartChar: O
Encoding: 79 79 50
Width: 562
GlyphClass: 2
Flags: W
LayerCount: 2
Fore
SplineSet
292 642 m 0,0,1
 256 642 256 642 232 616 c 0,2,3
 190 570 190 570 190 499.5 c 128,-1,4
 190 429 190 429 226 415 c 0,5,6
 235 412 235 412 235 402 c 0,7,8
 235 372 235 372 215 351.5 c 128,-1,9
 195 331 195 331 166 327 c 1,10,11
 157 327 157 327 157 320 c 0,12,13
 156 309 156 309 156 288.5 c 128,-1,14
 156 268 156 268 158 243.5 c 128,-1,15
 160 219 160 219 167.5 185.5 c 128,-1,16
 175 152 175 152 187.5 127.5 c 128,-1,17
 200 103 200 103 223.5 85.5 c 128,-1,18
 247 68 247 68 284.5 68 c 128,-1,19
 322 68 322 68 352 98 c 128,-1,20
 382 128 382 128 394 176 c 0,21,22
 416 260 416 260 416 337.5 c 128,-1,23
 416 415 416 415 406 474 c 128,-1,24
 396 533 396 533 382.5 564 c 128,-1,25
 369 595 369 595 350 614 c 128,-1,26
 331 633 331 633 318 637.5 c 128,-1,27
 305 642 305 642 292 642 c 0,0,1
110 543 m 2,28,-1
 114 549 l 1,29,30
 124 595 124 595 146.5 628.5 c 128,-1,31
 169 662 169 662 191.5 678.5 c 128,-1,32
 214 695 214 695 242 704 c 0,33,34
 279 716 279 716 307 716 c 0,35,36
 374 716 374 716 422.5 685 c 128,-1,37
 471 654 471 654 496 601 c 0,38,39
 542 500 542 500 542 372 c 0,40,41
 542 157 542 157 442 59 c 0,42,43
 393 11 393 11 334 -6 c 0,44,45
 297 -17 297 -17 263 -17 c 0,46,47
 138 -17 138 -17 79 68.5 c 128,-1,48
 20 154 20 154 20 285 c 0,49,50
 20 361 20 361 33 424.5 c 128,-1,51
 46 488 46 488 60 514 c 2,52,-1
 73 540 l 2,53,54
 77 549 77 549 86 549 c 128,-1,55
 95 549 95 549 99.5 547.5 c 128,-1,56
 104 546 104 546 106.5 544.5 c 128,-1,57
 109 543 109 543 110 543 c 2,28,-1
EndSplineSet
EndChar

StartChar: P
Encoding: 80 80 51
Width: 495
GlyphClass: 2
Flags: W
LayerCount: 2
Fore
SplineSet
257 419 m 0,0,1
 261 419 261 419 272 411 c 128,-1,2
 283 403 283 403 295 403 c 2,3,-1
 296 403 l 2,4,5
 330 403 330 403 350 430 c 128,-1,6
 370 457 370 457 372 484 c 2,7,-1
 375 511 l 1,8,9
 375 549 375 549 363.5 576.5 c 128,-1,10
 352 604 352 604 337 617.5 c 128,-1,11
 322 631 322 631 302 638 c 0,12,13
 277 648 277 648 249.5 648 c 128,-1,14
 222 648 222 648 205 642.5 c 128,-1,15
 188 637 188 637 186 632 c 1,16,-1
 185 626 l 1,17,18
 176 491 176 491 176 384.5 c 128,-1,19
 176 278 176 278 179.5 201 c 128,-1,20
 183 124 183 124 186.5 82.5 c 128,-1,21
 190 41 190 41 190 37 c 0,22,23
 190 12 190 12 146 -3 c 128,-1,24
 102 -18 102 -18 59 -18 c 0,25,26
 39 -18 39 -18 39 -8 c 0,27,28
 39 -5 39 -5 42 6 c 1,29,30
 61 50 61 50 61 415 c 0,31,32
 61 630 61 630 32 661 c 0,33,34
 26 667 26 667 26 673.5 c 128,-1,35
 26 680 26 680 40.5 688 c 128,-1,36
 55 696 55 696 122 706.5 c 128,-1,37
 189 717 189 717 264 717 c 0,38,39
 382 717 382 717 441.5 653 c 128,-1,40
 501 589 501 589 501 500.5 c 128,-1,41
 501 412 501 412 452.5 347 c 128,-1,42
 404 282 404 282 326 282 c 0,43,44
 301 282 301 282 276 291 c 0,45,46
 226 309 226 309 226 366 c 0,47,48
 226 378 226 378 234 398.5 c 128,-1,49
 242 419 242 419 257 419 c 0,0,1
EndSplineSet
EndChar

StartChar: Q
Encoding: 81 81 52
Width: 562
GlyphClass: 2
Flags: W
LayerCount: 2
Fore
SplineSet
228 606 m 0,0,1
 186 560 186 560 186 489.5 c 128,-1,2
 186 419 186 419 222 405 c 0,3,4
 231 402 231 402 231 392 c 0,5,6
 231 362 231 362 211 341.5 c 128,-1,7
 191 321 191 321 162 317 c 1,8,9
 153 317 153 317 153 310 c 0,10,11
 152 299 152 299 152 278.5 c 128,-1,12
 152 258 152 258 154 233.5 c 128,-1,13
 156 209 156 209 163.5 175.5 c 128,-1,14
 171 142 171 142 183.5 117.5 c 128,-1,15
 196 93 196 93 219.5 75.5 c 128,-1,16
 243 58 243 58 274 58 c 128,-1,17
 305 58 305 58 331 76 c 1,18,19
 308 128 308 128 283 150 c 2,20,-1
 275 157 l 1,21,22
 272 161 272 161 272 165 c 0,23,24
 272 176 272 176 292 176 c 0,25,26
 333 176 333 176 376 133 c 1,27,28
 414 211 414 211 414 336 c 0,29,30
 414 538 414 538 347 604 c 0,31,32
 318 632 318 632 285 632 c 128,-1,33
 252 632 252 632 228 606 c 0,0,1
108 543 m 2,34,-1
 112 549 l 1,35,36
 122 595 122 595 144.5 628.5 c 128,-1,37
 167 662 167 662 189.5 678.5 c 128,-1,38
 212 695 212 695 240 704 c 0,39,40
 277 716 277 716 305 716 c 0,41,42
 372 716 372 716 420.5 685 c 128,-1,43
 469 654 469 654 494 601 c 0,44,45
 540 500 540 500 540 372 c 0,46,47
 540 157 540 157 438 55 c 1,48,49
 485 3 485 3 530 3 c 0,50,51
 543 3 543 3 543 -6 c 0,52,53
 543 -22 543 -22 506 -40.5 c 128,-1,54
 469 -59 469 -59 427 -59 c 1,55,-1
 395 -56 l 2,56,57
 382 -54 382 -54 374 -46.5 c 128,-1,58
 366 -39 366 -39 364 -26 c 1,59,-1
 357 2 l 1,60,61
 310 -17 310 -17 261 -17 c 0,62,63
 136 -17 136 -17 77 68.5 c 128,-1,64
 18 154 18 154 18 285 c 0,65,66
 18 361 18 361 31 424.5 c 128,-1,67
 44 488 44 488 58 514 c 2,68,-1
 71 540 l 2,69,70
 75 549 75 549 84 549 c 128,-1,71
 93 549 93 549 97.5 547.5 c 128,-1,72
 102 546 102 546 104.5 544.5 c 128,-1,73
 107 543 107 543 108 543 c 2,34,-1
EndSplineSet
EndChar

StartChar: R
Encoding: 82 82 53
Width: 528
GlyphClass: 2
Flags: W
LayerCount: 2
Fore
SplineSet
364 379 m 2,0,1
 353 376 353 376 353 372.5 c 128,-1,2
 353 369 353 369 377 360 c 128,-1,3
 401 351 401 351 422.5 332 c 128,-1,4
 444 313 444 313 453 286 c 0,5,6
 467 245 467 245 467 198 c 128,-1,7
 467 151 467 151 474 120.5 c 128,-1,8
 481 90 481 90 491 74 c 0,9,10
 511 40 511 40 528 32 c 1,11,-1
 535 28 l 2,12,13
 541 24 541 24 541 18 c 0,14,15
 541 3 541 3 492 -8.5 c 128,-1,16
 443 -20 443 -20 416 -20 c 0,17,18
 363 -20 363 -20 348.5 22.5 c 128,-1,19
 334 65 334 65 334 168 c 2,20,-1
 334 223 l 2,21,22
 334 310 334 310 282 334 c 0,23,24
 262 343 262 343 234 343 c 2,25,-1
 233 343 l 2,26,27
 224 343 224 343 224 360.5 c 128,-1,28
 224 378 224 378 234.5 396 c 128,-1,29
 245 414 245 414 253 414 c 0,30,31
 286 414 286 414 310 426.5 c 128,-1,32
 334 439 334 439 345 457 c 0,33,34
 368 495 368 495 370 522 c 1,35,-1
 370 535 l 2,36,37
 370 572 370 572 358 597.5 c 128,-1,38
 346 623 346 623 328 633 c 0,39,40
 298 649 298 649 267 649 c 128,-1,41
 236 649 236 649 216 644 c 0,42,43
 188 636 188 636 188 627 c 0,44,45
 179 496 179 496 179 374.5 c 128,-1,46
 179 253 179 253 182.5 188.5 c 128,-1,47
 186 124 186 124 189.5 84.5 c 128,-1,48
 193 45 193 45 193 38 c 0,49,50
 193 25 193 25 186 20 c 1,51,52
 145 -18 145 -18 57 -18 c 0,53,54
 42 -18 42 -18 42 -8 c 0,55,56
 42 -5 42 -5 45 6 c 1,57,58
 55 29 55 29 59.5 152 c 128,-1,59
 64 275 64 275 64 376.5 c 128,-1,60
 64 478 64 478 60 541 c 0,61,62
 54 636 54 636 40 655 c 0,63,64
 29 669 29 669 29 674.5 c 128,-1,65
 29 680 29 680 40 686 c 0,66,67
 104 716 104 716 272 716 c 0,68,69
 407 716 407 716 474 640 c 0,70,71
 510 598 510 598 510 535 c 0,72,73
 510 497 510 497 495 467 c 128,-1,74
 480 437 480 437 458 421 c 0,75,76
 416 389 416 389 379 382 c 2,77,-1
 364 379 l 2,0,1
EndSplineSet
EndChar

StartChar: S
Encoding: 83 83 54
Width: 510
GlyphClass: 2
Flags: W
LayerCount: 2
Fore
SplineSet
348 554 m 1,0,-1
 352 585 l 1,1,2
 352 631 352 631 316 644 c 1,3,4
 288 653 288 653 273 653 c 2,5,-1
 272 653 l 2,6,7
 242 653 242 653 220 643.5 c 128,-1,8
 198 634 198 634 188 620 c 0,9,10
 167 591 167 591 164 559 c 1,11,12
 164 521 164 521 198 493.5 c 128,-1,13
 232 466 232 466 280.5 445.5 c 128,-1,14
 329 425 329 425 377.5 401 c 128,-1,15
 426 377 426 377 460 332 c 128,-1,16
 494 287 494 287 494 224 c 0,17,18
 494 101 494 101 416.5 40 c 128,-1,19
 339 -21 339 -21 240.5 -21 c 128,-1,20
 142 -21 142 -21 77.5 23.5 c 128,-1,21
 13 68 13 68 13 143 c 2,22,-1
 13 144 l 2,23,24
 13 181 13 181 24.5 208.5 c 128,-1,25
 36 236 36 236 52 249 c 0,26,27
 85 276 85 276 112 278 c 2,28,-1
 124 279 l 1,29,30
 152 279 152 279 175 265.5 c 128,-1,31
 198 252 198 252 198 228 c 0,32,33
 198 216 198 216 185 208 c 128,-1,34
 172 200 172 200 162.5 184 c 128,-1,35
 153 168 153 168 152 157 c 2,36,-1
 150 146 l 1,37,38
 150 85 150 85 206 65 c 0,39,40
 226 58 226 58 238 58 c 0,41,42
 293 58 293 58 326.5 91 c 128,-1,43
 360 124 360 124 360 175 c 0,44,45
 360 236 360 236 308 274 c 0,46,47
 269 302 269 302 223.5 321 c 128,-1,48
 178 340 178 340 162 348 c 128,-1,49
 146 356 146 356 128 367 c 128,-1,50
 110 378 110 378 88 398 c 0,51,52
 40 440 40 440 40 511.5 c 128,-1,53
 40 583 40 583 79 632 c 0,54,55
 149 721 149 721 289 721 c 0,56,57
 363 721 363 721 414 692.5 c 128,-1,58
 465 664 465 664 465 614 c 0,59,60
 465 578 465 578 444.5 554 c 128,-1,61
 424 530 424 530 392 530 c 0,62,63
 377 530 377 530 362.5 536 c 128,-1,64
 348 542 348 542 348 554 c 1,0,-1
EndSplineSet
EndChar

StartChar: T
Encoding: 84 84 55
Width: 399
GlyphClass: 2
Flags: W
LayerCount: 2
Fore
SplineSet
108 712 m 1,0,-1
 252 704 l 1,1,2
 348 704 348 704 390 727 c 0,3,4
 396 731 396 731 400.5 731 c 128,-1,5
 405 731 405 731 405 717 c 128,-1,6
 405 703 405 703 388 671 c 0,7,8
 363 622 363 622 316 622 c 2,9,-1
 261 623 l 2,10,11
 253 623 253 623 251 614 c 1,12,13
 244 467 244 467 244 296.5 c 128,-1,14
 244 126 244 126 258 40 c 1,15,-1
 258 35 l 2,16,17
 258 10 258 10 210.5 -5 c 128,-1,18
 163 -20 163 -20 121 -20 c 0,19,20
 101 -20 101 -20 101 -9 c 0,21,22
 101 -6 101 -6 104 5 c 1,23,24
 115 27 115 27 123.5 218 c 128,-1,25
 132 409 132 409 132 506 c 1,26,-1
 130 615 l 2,27,28
 130 621 130 621 124 622 c 0,29,30
 103 626 103 626 76 626 c 0,31,32
 22 626 22 626 -4 604 c 0,33,34
 -11 599 -11 599 -17.5 599 c 128,-1,35
 -24 599 -24 599 -24 607 c 0,36,37
 -24 619 -24 619 -11.5 640 c 128,-1,38
 1 661 1 661 15 676 c 0,39,40
 49 712 49 712 108 712 c 1,0,-1
EndSplineSet
EndChar

StartChar: U
Encoding: 85 85 56
Width: 546
GlyphClass: 2
Flags: W
LayerCount: 2
Fore
SplineSet
51 174 m 1,0,-1
 58 455 l 1,1,2
 58 520 58 520 55 562 c 0,3,4
 50 637 50 637 38 656 c 2,5,-1
 34 662 l 1,6,7
 29 666 29 666 29 672 c 0,8,9
 29 691 29 691 79 702.5 c 128,-1,10
 129 714 129 714 163 714 c 128,-1,11
 197 714 197 714 197 695 c 1,12,-1
 196 684 l 1,13,14
 182 585 182 585 179 449.5 c 128,-1,15
 176 314 176 314 176 272 c 128,-1,16
 176 230 176 230 179 202 c 128,-1,17
 182 174 182 174 182.5 169.5 c 128,-1,18
 183 165 183 165 187.5 152.5 c 128,-1,19
 192 140 192 140 199 130 c 0,20,21
 217 106 217 106 250 106 c 128,-1,22
 283 106 283 106 305.5 121 c 128,-1,23
 328 136 328 136 339 158 c 0,24,25
 362 205 362 205 367 239 c 2,26,-1
 369 254 l 1,27,28
 374 325 374 325 374 422 c 128,-1,29
 374 519 374 519 373 549 c 128,-1,30
 372 579 372 579 370 598.5 c 128,-1,31
 368 618 368 618 366.5 633 c 128,-1,32
 365 648 365 648 364 656.5 c 128,-1,33
 363 665 363 665 363 666 c 0,34,35
 363 677 363 677 374 684 c 1,36,37
 391 697 391 697 426.5 706 c 128,-1,38
 462 715 462 715 490 715 c 128,-1,39
 518 715 518 715 518 702 c 0,40,41
 518 700 518 700 513 669 c 0,42,43
 491 533 491 533 491 291 c 0,44,45
 491 112 491 112 515 36 c 0,46,47
 519 24 519 24 519 19.5 c 128,-1,48
 519 15 519 15 511 8 c 0,49,50
 481 -15 481 -15 431.5 -15 c 128,-1,51
 382 -15 382 -15 378 10 c 1,52,53
 373 23 373 23 372 62 c 1,54,-1
 371 74 l 2,55,56
 371 83 371 83 367 83 c 1,57,-1
 356 76 l 1,58,59
 337 44 337 44 312 22.5 c 128,-1,60
 287 1 287 1 264 -7 c 0,61,62
 231 -19 231 -19 199.5 -19 c 128,-1,63
 168 -19 168 -19 136.5 -2.5 c 128,-1,64
 105 14 105 14 89.5 36 c 128,-1,65
 74 58 74 58 64 88 c 0,66,67
 51 131 51 131 51 174 c 1,0,-1
EndSplineSet
EndChar

StartChar: V
Encoding: 86 86 57
Width: 521
GlyphClass: 2
Flags: W
LayerCount: 2
Fore
SplineSet
135 234 m 2,0,1
 129 256 129 256 103 377 c 128,-1,2
 77 498 77 498 50 570 c 128,-1,3
 23 642 23 642 -14 666 c 1,4,5
 -24 671 -24 671 -24 679 c 0,6,7
 -24 698 -24 698 30 710 c 128,-1,8
 84 722 84 722 113.5 722 c 128,-1,9
 143 722 143 722 149 705 c 1,10,11
 167 668 167 668 195 539 c 0,12,13
 252 269 252 269 279 199 c 0,14,15
 285 185 285 185 294 185 c 128,-1,16
 303 185 303 185 312.5 202.5 c 128,-1,17
 322 220 322 220 338.5 252.5 c 128,-1,18
 355 285 355 285 383 368 c 128,-1,19
 411 451 411 451 411 512 c 0,20,21
 411 606 411 606 349 645 c 1,22,23
 344 651 344 651 344 658 c 0,24,25
 344 679 344 679 402 700 c 128,-1,26
 460 721 460 721 507 721 c 0,27,28
 538 721 538 721 538 692 c 0,29,30
 538 602 538 602 502 483.5 c 128,-1,31
 466 365 466 365 416 263.5 c 128,-1,32
 366 162 366 162 323 88 c 0,33,34
 255 -27 255 -27 237 -27 c 0,35,36
 228 -27 228 -27 220 -13 c 1,37,38
 190 30 190 30 148 184 c 1,39,-1
 135 234 l 2,0,1
EndSplineSet
EndChar

StartChar: W
Encoding: 87 87 58
Width: 833
GlyphClass: 2
Flags: W
LayerCount: 2
Fore
SplineSet
387.5 406.5 m 128,-1,1
 394 433 394 433 394 455.5 c 128,-1,2
 394 478 394 478 378 539 c 0,3,4
 350 641 350 641 330 660 c 1,5,-1
 324 667 l 1,6,7
 314 673 314 673 314 681 c 0,8,9
 314 698 314 698 359 710 c 128,-1,10
 404 722 404 722 432.5 722 c 128,-1,11
 461 722 461 722 466 705 c 0,12,13
 478 668 478 668 492.5 598 c 128,-1,14
 507 528 507 528 517.5 477.5 c 128,-1,15
 528 427 528 427 534 400 c 128,-1,16
 540 373 540 373 550 330 c 0,17,18
 569 250 569 250 588 199 c 0,19,20
 594 185 594 185 602.5 185 c 128,-1,21
 611 185 611 185 620.5 202.5 c 128,-1,22
 630 220 630 220 646.5 252.5 c 128,-1,23
 663 285 663 285 690.5 368 c 128,-1,24
 718 451 718 451 718 512 c 0,25,26
 718 606 718 606 656 645 c 1,27,28
 651 651 651 651 651 658 c 128,-1,29
 651 665 651 665 658 672 c 1,30,31
 665 677 665 677 678 685.5 c 128,-1,32
 691 694 691 694 730 707.5 c 128,-1,33
 769 721 769 721 800 721 c 128,-1,34
 831 721 831 721 837 712.5 c 128,-1,35
 843 704 843 704 843 682 c 0,36,37
 843 585 843 585 785.5 424.5 c 128,-1,38
 728 264 728 264 663.5 141.5 c 128,-1,39
 599 19 599 19 567 -12 c 1,40,41
 550 -27 550 -27 547 -27 c 0,42,43
 538 -27 538 -27 530 -13 c 0,44,45
 496 44 496 44 456 210 c 0,46,47
 438 288 438 288 435 298 c 128,-1,48
 432 308 432 308 430 308 c 0,49,50
 425 308 425 308 421 298 c 0,51,52
 386 217 386 217 343 139.5 c 128,-1,53
 300 62 300 62 274 25 c 2,54,-1
 249 -12 l 2,55,56
 239 -26 239 -26 229 -26 c 128,-1,57
 219 -26 219 -26 211 -13 c 0,58,59
 184 38 184 38 145 184 c 1,60,-1
 132 234 l 2,61,62
 128 248 128 248 114 310 c 0,63,64
 61 547 61 547 33 606 c 0,65,66
 17 639 17 639 5.5 649 c 128,-1,67
 -6 659 -6 659 -13 661 c 1,68,69
 -24 666 -24 666 -24 673.5 c 128,-1,70
 -24 681 -24 681 -16 688 c 0,71,72
 -4 697 -4 697 37 709.5 c 128,-1,73
 78 722 78 722 106 722 c 128,-1,74
 134 722 134 722 139 705 c 1,75,76
 159 668 159 668 186 539 c 0,77,78
 243 269 243 269 270 199 c 0,79,80
 275 185 275 185 284 185 c 128,-1,81
 293 185 293 185 300 200 c 1,82,83
 309 209 309 209 335.5 269.5 c 128,-1,84
 362 330 362 330 371.5 355 c 128,-1,0
 381 380 381 380 387.5 406.5 c 128,-1,1
EndSplineSet
EndChar

StartChar: X
Encoding: 88 88 59
Width: 592
GlyphClass: 2
Flags: W
LayerCount: 2
Fore
SplineSet
503.5 599 m 128,-1,1
 480 569 480 569 425.5 485.5 c 128,-1,2
 371 402 371 402 371 387 c 1,3,-1
 373 380 l 1,4,5
 494 100 494 100 583 54 c 1,6,7
 594 50 594 50 594 42 c 0,8,9
 594 24 594 24 539 4 c 0,10,11
 507 -7 507 -7 481.5 -7 c 128,-1,12
 456 -7 456 -7 445.5 -2 c 128,-1,13
 435 3 435 3 424 16 c 128,-1,14
 413 29 413 29 404.5 42.5 c 128,-1,15
 396 56 396 56 382.5 84 c 128,-1,16
 369 112 369 112 358.5 135.5 c 128,-1,17
 348 159 348 159 329 202 c 128,-1,18
 310 245 310 245 294 280 c 0,19,20
 291 285 291 285 287 285 c 128,-1,21
 283 285 283 285 279 279 c 0,22,23
 202 149 202 149 162 34 c 1,24,25
 157 12 157 12 118 -3.5 c 128,-1,26
 79 -19 79 -19 35 -19 c 128,-1,27
 -9 -19 -9 -19 -9 -6 c 0,28,29
 -9 -1 -9 -1 -2.5 4.5 c 128,-1,30
 4 10 4 10 12 17.5 c 128,-1,31
 20 25 20 25 45.5 54.5 c 128,-1,32
 71 84 71 84 98 121 c 0,33,34
 169 220 169 220 241 367 c 0,35,36
 244 373 244 373 244 377 c 1,37,-1
 242 384 l 1,38,39
 164 575 164 575 102 640 c 0,40,41
 87 655 87 655 74 659 c 1,42,43
 64 665 64 665 64 674 c 0,44,45
 64 692 64 692 115 705.5 c 128,-1,46
 166 719 166 719 194.5 719 c 128,-1,47
 223 719 223 719 234 701 c 128,-1,48
 245 683 245 683 257.5 652 c 128,-1,49
 270 621 270 621 284 586 c 0,50,51
 319 497 319 497 325 486 c 128,-1,52
 331 475 331 475 334.5 475 c 128,-1,53
 338 475 338 475 341 480 c 0,54,55
 402 589 402 589 444 682 c 1,56,57
 451 701 451 701 483.5 708 c 128,-1,58
 516 715 516 715 556 715 c 128,-1,59
 596 715 596 715 596 704 c 0,60,61
 596 698 596 698 589.5 692.5 c 128,-1,62
 583 687 583 687 576.5 681.5 c 128,-1,63
 570 676 570 676 548.5 652.5 c 128,-1,0
 527 629 527 629 503.5 599 c 128,-1,1
EndSplineSet
EndChar

StartChar: Y
Encoding: 89 89 60
Width: 529
GlyphClass: 2
Flags: W
LayerCount: 2
Fore
SplineSet
390 650 m 1,0,-1
 386 687 l 1,1,2
 386 705 386 705 432 712.5 c 128,-1,3
 478 720 478 720 522 720 c 128,-1,4
 566 720 566 720 566 705 c 0,5,6
 566 698 566 698 556 688 c 0,7,8
 517 647 517 647 461.5 554 c 128,-1,9
 406 461 406 461 370 388 c 2,10,-1
 334 316 l 2,11,12
 316 278 316 278 316 232.5 c 128,-1,13
 316 187 316 187 319 142.5 c 128,-1,14
 322 98 322 98 325 67 c 128,-1,15
 328 36 328 36 328 31 c 0,16,17
 328 6 328 6 282 -9.5 c 128,-1,18
 236 -25 236 -25 206.5 -25 c 128,-1,19
 177 -25 177 -25 177 -14 c 1,20,-1
 180 -1 l 1,21,22
 197 90 197 90 197 215 c 0,23,24
 197 246 197 246 187 292 c 2,25,-1
 184 305 l 1,26,27
 120 478 120 478 64 560 c 1,28,29
 16 633 16 633 -6 646 c 1,30,-1
 -15 652 l 2,31,32
 -25 658 -25 658 -25 666 c 0,33,34
 -25 683 -25 683 27 701 c 128,-1,35
 79 719 79 719 105.5 719 c 128,-1,36
 132 719 132 719 141 703 c 1,37,38
 231 515 231 515 281 399 c 0,39,40
 284 393 284 393 289.5 393 c 128,-1,41
 295 393 295 393 302.5 405 c 128,-1,42
 310 417 310 417 325 443 c 128,-1,43
 340 469 340 469 365 535.5 c 128,-1,44
 390 602 390 602 390 650 c 1,0,-1
EndSplineSet
EndChar

StartChar: Z
Encoding: 90 90 61
Width: 541
GlyphClass: 2
Flags: W
LayerCount: 2
Fore
SplineSet
338 702 m 1,0,-1
 494 708 l 2,1,2
 511 708 511 708 511 690 c 0,3,4
 511 656 511 656 351 390.5 c 128,-1,5
 191 125 191 125 191 88 c 0,6,7
 191 60 191 60 271 60 c 0,8,9
 329 60 329 60 375 81.5 c 128,-1,10
 421 103 421 103 421 150 c 0,11,12
 421 179 421 179 399 194 c 128,-1,13
 377 209 377 209 348 209 c 0,14,15
 333 209 333 209 333 225 c 0,16,17
 333 258 333 258 365.5 283 c 128,-1,18
 398 308 398 308 436 308 c 0,19,20
 454 308 454 308 474 297 c 0,21,22
 515 275 515 275 515 204 c 0,23,24
 515 96 515 96 460 10 c 0,25,26
 449 -7 449 -7 439 -7 c 2,27,-1
 435 -7 l 1,28,29
 368 -3 368 -3 291 -3 c 1,30,-1
 91 -8 l 1,31,-1
 16 -6 l 1,32,33
 -2 -4 -2 -4 -2 8.5 c 128,-1,34
 -2 21 -2 21 17.5 63.5 c 128,-1,35
 37 106 37 106 121.5 248 c 128,-1,36
 206 390 206 390 230 432 c 0,37,38
 284 530 284 530 314 598 c 1,39,-1
 325 621 l 2,40,41
 327 627 327 627 327 629 c 0,42,43
 327 640 327 640 284 640 c 128,-1,44
 241 640 241 640 205.5 628 c 128,-1,45
 170 616 170 616 147 599 c 0,46,47
 100 564 100 564 82 535 c 1,48,-1
 74 523 l 1,49,50
 65 506 65 506 58 504 c 1,51,-1
 55 504 l 2,52,53
 49 504 49 504 44.5 507.5 c 128,-1,54
 40 511 40 511 40 516 c 0,55,56
 40 619 40 619 58 680 c 0,57,58
 60 688 60 688 70 695.5 c 128,-1,59
 80 703 80 703 105.5 704 c 128,-1,60
 131 705 131 705 184 705 c 1,61,-1
 338 702 l 1,0,-1
EndSplineSet
EndChar

StartChar: bracketleft
Encoding: 91 91 62
Width: 187
GlyphClass: 2
Flags: W
LayerCount: 2
Fore
SplineSet
52 345 m 2,0,-1
 50 692 l 2,1,2
 50 705 50 705 62 722 c 1,3,4
 75 738 75 738 119 760 c 128,-1,5
 163 782 163 782 175 782 c 128,-1,6
 187 782 187 782 187 777.5 c 128,-1,7
 187 773 187 773 183 769 c 0,8,9
 141 721 141 721 141 688 c 0,10,11
 136 514 136 514 136 323 c 1,12,-1
 137 170 l 1,13,-1
 140 30 l 2,14,15
 140 16 140 16 140.5 3 c 128,-1,16
 141 -10 141 -10 151.5 -30.5 c 128,-1,17
 162 -51 162 -51 172 -64 c 2,18,-1
 183 -77 l 2,19,20
 187 -81 187 -81 187 -84 c 0,21,22
 187 -90 187 -90 179 -90 c 128,-1,23
 171 -90 171 -90 142 -79 c 128,-1,24
 113 -68 113 -68 81.5 -45.5 c 128,-1,25
 50 -23 50 -23 50 2 c 0,26,27
 52 224 52 224 52 345 c 2,0,-1
EndSplineSet
EndChar

StartChar: backslash
Encoding: 92 92 63
Width: 584
GlyphClass: 2
Flags: W
LayerCount: 2
Fore
SplineSet
473 -63 m 0,0,1
 461 -63 461 -63 451 -57.5 c 128,-1,2
 441 -52 441 -52 434 -42 c 0,3,4
 -47 740 -47 740 -47 741 c 0,5,6
 -47 749 -47 749 -26 749 c 0,7,8
 12 749 12 749 20 738 c 1,9,-1
 500 -42 l 2,10,11
 503 -46 503 -46 503 -51 c 0,12,13
 503 -63 503 -63 473 -63 c 0,0,1
EndSplineSet
EndChar

StartChar: bracketright
Encoding: 93 93 64
Width: 185
GlyphClass: 2
Flags: W
LayerCount: 2
Fore
SplineSet
132 692 m 2,0,-1
 130 345 l 1,1,-1
 132 2 l 2,2,3
 132 -23 132 -23 100.5 -45.5 c 128,-1,4
 69 -68 69 -68 40 -79 c 128,-1,5
 11 -90 11 -90 3 -90 c 128,-1,6
 -5 -90 -5 -90 -5 -84 c 0,7,8
 -5 -81 -5 -81 -1 -77 c 0,9,10
 41 -28 41 -28 41 5 c 2,11,-1
 46 254 l 1,12,-1
 46 323 l 2,13,14
 46 514 46 514 41 688 c 0,15,16
 41 717 41 717 10 756 c 1,17,-1
 -1 769 l 2,18,19
 -5 773 -5 773 -5 777.5 c 128,-1,20
 -5 782 -5 782 7 782 c 128,-1,21
 19 782 19 782 63 760 c 128,-1,22
 107 738 107 738 120 722 c 1,23,24
 132 705 132 705 132 692 c 2,0,-1
EndSplineSet
EndChar

StartChar: asciicircum
Encoding: 94 94 65
Width: 301
GlyphClass: 2
Flags: W
LayerCount: 2
Fore
SplineSet
261 205 m 0,0,1
 261 196 261 196 253 196 c 128,-1,2
 245 196 245 196 151 259 c 1,3,4
 58 196 58 196 49 196 c 128,-1,5
 40 196 40 196 40 204 c 1,6,-1
 42 212 l 1,7,8
 75 275 75 275 111 314 c 0,9,10
 115 319 115 319 124.5 319 c 128,-1,11
 134 319 134 319 151 305 c 1,12,13
 168 319 168 319 179 319 c 1,14,-1
 191 314 l 1,15,16
 221 284 221 284 250 230 c 2,17,-1
 260 212 l 2,18,19
 261 209 261 209 261 205 c 0,0,1
EndSplineSet
EndChar

StartChar: underscore
Encoding: 95 95 66
Width: 478
GlyphClass: 2
Flags: W
LayerCount: 2
Fore
SplineSet
83 -11 m 2,0,1
 83 -11 83 -11 425 -8 c 0,2,3
 438 -8 438 -8 438 -19 c 0,4,5
 438 -69 438 -69 402 -69 c 2,6,-1
 57 -69 l 2,7,8
 44 -69 44 -69 44 -50 c 0,9,10
 44 -11 44 -11 83 -11 c 2,0,1
EndSplineSet
EndChar

StartChar: grave
Encoding: 96 96 67
Width: 418
GlyphClass: 2
Flags: W
LayerCount: 2
Fore
SplineSet
261.5 518.5 m 128,-1,1
 259 515 259 515 254.5 515 c 128,-1,2
 250 515 250 515 204 544.5 c 128,-1,3
 158 574 158 574 144 584.5 c 128,-1,4
 130 595 130 595 130 605.5 c 128,-1,5
 130 616 130 616 149.5 630.5 c 128,-1,6
 169 645 169 645 178 645 c 1,7,-1
 190 640 l 1,8,9
 205 626 205 626 234.5 580 c 128,-1,10
 264 534 264 534 264 528 c 128,-1,0
 264 522 264 522 261.5 518.5 c 128,-1,1
EndSplineSet
EndChar

StartChar: a
Encoding: 97 97 68
Width: 395
GlyphClass: 2
Flags: W
LayerCount: 2
Fore
SplineSet
364 300 m 2,0,-1
 362 172 l 1,1,2
 362 39 362 39 391 12 c 0,3,4
 395 8 395 8 395 3 c 0,5,6
 395 -12 395 -12 330.5 -12 c 128,-1,7
 266 -12 266 -12 262 26 c 0,8,9
 261 35 261 35 261 63 c 2,10,-1
 265 223 l 2,11,12
 265 230 265 230 257 230 c 0,13,14
 209 230 209 230 167 203 c 128,-1,15
 125 176 125 176 125 134 c 0,16,17
 125 112 125 112 137 97 c 128,-1,18
 149 82 149 82 166.5 82 c 128,-1,19
 184 82 184 82 195.5 89 c 128,-1,20
 207 96 207 96 209 97 c 1,21,22
 226 95 226 95 226 61.5 c 128,-1,23
 226 28 226 28 195 7.5 c 128,-1,24
 164 -13 164 -13 130 -13 c 128,-1,25
 96 -13 96 -13 71.5 -1 c 128,-1,26
 47 11 47 11 36 26 c 128,-1,27
 25 41 25 41 18 60 c 1,28,29
 11 83 11 83 11 100 c 0,30,31
 11 170 11 170 55 212 c 128,-1,32
 99 254 99 254 168 272 c 1,33,34
 259 290 259 290 263 305 c 0,35,36
 266 316 266 316 266 342 c 0,37,38
 266 395 266 395 212 395 c 0,39,40
 189 395 189 395 171 380.5 c 128,-1,41
 153 366 153 366 153 344 c 1,42,-1
 159 320 l 1,43,44
 157 303 157 303 123 300 c 2,45,-1
 112 299 l 1,46,47
 82 299 82 299 64.5 314 c 128,-1,48
 47 329 47 329 47 354 c 0,49,50
 47 370 47 370 57.5 389.5 c 128,-1,51
 68 409 68 409 84 421 c 128,-1,52
 100 433 100 433 133.5 442.5 c 128,-1,53
 167 452 167 452 198 452 c 128,-1,54
 229 452 229 452 246 450 c 128,-1,55
 263 448 263 448 292.5 440.5 c 128,-1,56
 322 433 322 433 341.5 412 c 128,-1,57
 361 391 361 391 362.5 367.5 c 128,-1,58
 364 344 364 344 364 300 c 2,0,-1
EndSplineSet
EndChar

StartChar: b
Encoding: 98 98 69
Width: 419
GlyphClass: 2
Flags: W
LayerCount: 2
Fore
SplineSet
232 345 m 1,0,-1
 209 339 l 1,1,2
 191 339 191 339 191 372.5 c 128,-1,3
 191 406 191 406 215.5 426.5 c 128,-1,4
 240 447 240 447 278 447 c 0,5,6
 299 447 299 447 323 434.5 c 128,-1,7
 347 422 347 422 363 403.5 c 128,-1,8
 379 385 379 385 391.5 345.5 c 128,-1,9
 404 306 404 306 404 253 c 0,10,11
 404 131 404 131 338.5 55 c 128,-1,12
 273 -21 273 -21 149 -21 c 0,13,14
 113 -21 113 -21 78 -14 c 2,15,-1
 68 -12 l 1,16,17
 55 -8 55 -8 53 2 c 0,18,19
 50 23 50 23 50 101 c 1,20,-1
 56 425 l 1,21,22
 56 500 56 500 52 540 c 1,23,-1
 50 554 l 1,24,25
 48 582 48 582 38.5 602 c 128,-1,26
 29 622 29 622 20 628 c 2,27,-1
 12 633 l 2,28,29
 5 637 5 637 5 642 c 0,30,31
 5 657 5 657 55 677.5 c 128,-1,32
 105 698 105 698 128 698 c 128,-1,33
 151 698 151 698 152 686 c 0,34,35
 159 625 159 625 159 512 c 1,36,-1
 154 272 l 1,37,38
 154 115 154 115 163 55 c 1,39,40
 164 41 164 41 194.5 41 c 128,-1,41
 225 41 225 41 247 58 c 128,-1,42
 269 75 269 75 280 103 c 0,43,44
 300 154 300 154 300 216 c 0,45,46
 300 245 300 245 292 279 c 0,47,48
 278 345 278 345 232 345 c 1,0,-1
EndSplineSet
EndChar

StartChar: c
Encoding: 99 99 70
Width: 380
GlyphClass: 2
Flags: W
LayerCount: 2
Fore
SplineSet
357 115 m 0,0,1
 357 58 357 58 311.5 20.5 c 128,-1,2
 266 -17 266 -17 203 -17 c 0,3,4
 111 -17 111 -17 68 38.5 c 128,-1,5
 25 94 25 94 25 189 c 0,6,7
 25 290 25 290 70 368 c 0,8,9
 92 408 92 408 133 431 c 128,-1,10
 174 454 174 454 229 454 c 0,11,12
 312 454 312 454 346 398 c 0,13,14
 360 375 360 375 360 344 c 0,15,16
 360 296 360 296 320 272 c 0,17,18
 304 263 304 263 290.5 263 c 128,-1,19
 277 263 277 263 268.5 264.5 c 128,-1,20
 260 266 260 266 246 278 c 128,-1,21
 232 290 232 290 232 311 c 1,22,23
 233 322 233 322 249 329 c 1,24,25
 264 338 264 338 264 361 c 0,26,27
 264 400 264 400 216 400 c 0,28,29
 204 400 204 400 187.5 389.5 c 128,-1,30
 171 379 171 379 160 362.5 c 128,-1,31
 149 346 149 346 139.5 310.5 c 128,-1,32
 130 275 130 275 130 242.5 c 128,-1,33
 130 210 130 210 132.5 193.5 c 128,-1,34
 135 177 135 177 143.5 148.5 c 128,-1,35
 152 120 152 120 175.5 102 c 128,-1,36
 199 84 199 84 234 84 c 0,37,38
 276 84 276 84 308 119 c 0,39,40
 321 133 321 133 329 153 c 0,41,42
 333 161 333 161 339 161 c 0,43,44
 348 161 348 161 352.5 144.5 c 128,-1,45
 357 128 357 128 357 115 c 0,0,1
EndSplineSet
EndChar

StartChar: d
Encoding: 100 100 71
Width: 412
GlyphClass: 2
Flags: W
LayerCount: 2
Fore
SplineSet
230 449 m 0,0,1
 248 449 248 449 262.5 444.5 c 128,-1,2
 277 440 277 440 278 440 c 2,3,-1
 284 445 l 1,4,-1
 280 554 l 2,5,6
 278 582 278 582 268 602 c 128,-1,7
 258 622 258 622 250 628 c 1,8,-1
 241 633 l 2,9,10
 235 637 235 637 235 642 c 0,11,12
 235 657 235 657 281.5 677 c 128,-1,13
 328 697 328 697 354 697 c 128,-1,14
 380 697 380 697 382 686 c 0,15,16
 387 652 387 652 387 556.5 c 128,-1,17
 387 461 387 461 382.5 369 c 128,-1,18
 378 277 378 277 378 160.5 c 128,-1,19
 378 44 378 44 393 14 c 0,20,21
 397 7 397 7 397 1 c 0,22,23
 397 -14 397 -14 354 -14 c 0,24,25
 272 -14 272 -14 272 25 c 1,26,27
 270 41 270 41 270 74.5 c 128,-1,28
 270 108 270 108 276.5 199.5 c 128,-1,29
 283 291 283 291 283 340.5 c 128,-1,30
 283 390 283 390 233.5 390 c 128,-1,31
 184 390 184 390 158 332 c 128,-1,32
 132 274 132 274 132 216 c 0,33,34
 132 93 132 93 194 93 c 0,35,36
 203 93 203 93 211.5 96.5 c 128,-1,37
 220 100 220 100 222 100 c 0,38,39
 230 100 230 100 234.5 90 c 128,-1,40
 239 80 239 80 239 70 c 0,41,42
 239 36 239 36 212 12.5 c 128,-1,43
 185 -11 185 -11 146 -11 c 0,44,45
 86 -11 86 -11 55.5 41.5 c 128,-1,46
 25 94 25 94 25 172 c 0,47,48
 25 271 25 271 72 356 c 0,49,50
 96 398 96 398 137 423.5 c 128,-1,51
 178 449 178 449 230 449 c 0,0,1
EndSplineSet
EndChar

StartChar: e
Encoding: 101 101 72
Width: 368
GlyphClass: 2
Flags: W
LayerCount: 2
Fore
SplineSet
125 254 m 1,0,-1
 126 229 l 2,1,2
 126 223 126 223 134 223 c 0,3,4
 166 226 166 226 190 239.5 c 128,-1,5
 214 253 214 253 226 270 c 0,6,7
 250 307 250 307 252 334 c 2,8,-1
 253 346 l 1,9,10
 253 400 253 400 210 400 c 0,11,12
 178 400 178 400 158 372 c 0,13,14
 125 328 125 328 125 254 c 1,0,-1
343 121 m 0,15,16
 343 83 343 83 327.5 54.5 c 128,-1,17
 312 26 312 26 292.5 12.5 c 128,-1,18
 273 -1 273 -1 247 -9 c 0,19,20
 214 -19 214 -19 184 -19 c 0,21,22
 100 -19 100 -19 60 44 c 128,-1,23
 20 107 20 107 20 204.5 c 128,-1,24
 20 302 20 302 69.5 378 c 128,-1,25
 119 454 119 454 218 454 c 0,26,27
 308 454 308 454 340 391 c 0,28,29
 353 367 353 367 353 345.5 c 128,-1,30
 353 324 353 324 351 311.5 c 128,-1,31
 349 299 349 299 337 274 c 128,-1,32
 325 249 325 249 305 229 c 128,-1,33
 285 209 285 209 242 191 c 128,-1,34
 199 173 199 173 141 167 c 0,35,36
 133 167 133 167 133 160 c 0,37,38
 133 151 133 151 139.5 133.5 c 128,-1,39
 146 116 146 116 154 104 c 1,40,41
 176 76 176 76 219 76 c 256,42,43
 262 76 262 76 292 104 c 0,44,45
 308 119 308 119 318 141 c 0,46,47
 322 149 322 149 328.5 149 c 128,-1,48
 335 149 335 149 339 138 c 128,-1,49
 343 127 343 127 343 121 c 0,15,16
EndSplineSet
EndChar

StartChar: f
Encoding: 102 102 73
Width: 222
GlyphClass: 2
Flags: W
LayerCount: 2
Fore
SplineSet
160 250 m 1,0,-1
 165 50 l 1,1,2
 165 -13 165 -13 148.5 -61.5 c 128,-1,3
 132 -110 132 -110 108 -134 c 0,4,5
 59 -185 59 -185 22 -192 c 1,6,-1
 5 -196 l 1,7,8
 -10 -196 -10 -196 -10 -187 c 1,9,-1
 -5 -172 l 1,10,11
 68 -71 68 -71 68 324 c 0,12,13
 68 360 68 360 67 378 c 1,14,15
 46 378 46 378 25 375 c 1,16,-1
 24 375 l 2,17,18
 13 375 13 375 13 386 c 2,19,-1
 16 424 l 2,20,21
 17 433 17 433 30 433 c 2,22,-1
 66 433 l 1,23,-1
 66 500 l 1,24,-1
 68 595 l 2,25,26
 68 602 68 602 70.5 610.5 c 128,-1,27
 73 619 73 619 92 636.5 c 128,-1,28
 111 654 111 654 148 668.5 c 128,-1,29
 185 683 185 683 211.5 683 c 128,-1,30
 238 683 238 683 238 667 c 0,31,32
 238 661 238 661 229 657 c 1,33,34
 200 648 200 648 181.5 605.5 c 128,-1,35
 163 563 163 563 163 461 c 2,36,-1
 163 433 l 1,37,38
 214 435 214 435 230 438 c 1,39,40
 237 438 237 438 237 426 c 128,-1,41
 237 414 237 414 226.5 396.5 c 128,-1,42
 216 379 216 379 200.5 378.5 c 128,-1,43
 185 378 185 378 162 379 c 1,44,45
 160 303 160 303 160 250 c 1,0,-1
EndSplineSet
EndChar

StartChar: g
Encoding: 103 103 74
Width: 399
GlyphClass: 2
Flags: W
LayerCount: 2
Fore
SplineSet
154 441.5 m 128,-1,1
 190 457 190 457 223 457 c 128,-1,2
 256 457 256 457 290 442 c 1,3,4
 294 442 294 442 296 444 c 0,5,6
 322 470 322 470 372 470 c 0,7,8
 384 470 384 470 384 459 c 0,9,10
 384 458 384 458 382 450 c 128,-1,11
 380 442 380 442 377 426.5 c 128,-1,12
 374 411 374 411 372 389 c 0,13,14
 365 332 365 332 364.5 263 c 128,-1,15
 364 194 364 194 364 125 c 2,16,-1
 367 -85 l 1,17,18
 367 -186 367 -186 315 -253 c 0,19,20
 294 -280 294 -280 251.5 -300 c 128,-1,21
 209 -320 209 -320 152 -320 c 1,22,23
 139 -312 139 -312 139 -304 c 128,-1,24
 139 -296 139 -296 150 -291 c 0,25,26
 213 -262 213 -262 240 -153.5 c 128,-1,27
 267 -45 267 -45 267 176 c 1,28,-1
 265 316 l 1,29,-1
 262 384 l 2,30,31
 262 393 262 393 234 397 c 1,32,33
 198 397 198 397 173.5 373.5 c 128,-1,34
 149 350 149 350 140 312 c 0,35,36
 124 251 124 251 124 206.5 c 128,-1,37
 124 162 124 162 138.5 128 c 128,-1,38
 153 94 153 94 189 94 c 0,39,40
 199 94 199 94 207.5 98 c 128,-1,41
 216 102 216 102 219 102 c 0,42,43
 229 102 229 102 229 82 c 128,-1,44
 229 62 229 62 226 49.5 c 128,-1,45
 223 37 223 37 214 22 c 0,46,47
 194 -11 194 -11 136 -11 c 256,48,49
 78 -11 78 -11 53 31 c 0,50,51
 27 74 27 74 23 108 c 0,52,53
 17 159 17 159 17 175 c 128,-1,54
 17 191 17 191 17.5 200.5 c 128,-1,55
 18 210 18 210 22.5 238.5 c 128,-1,56
 27 267 27 267 34.5 292.5 c 128,-1,57
 42 318 42 318 58 349.5 c 128,-1,58
 74 381 74 381 96 403.5 c 128,-1,0
 118 426 118 426 154 441.5 c 128,-1,1
EndSplineSet
EndChar

StartChar: h
Encoding: 104 104 75
Width: 412
GlyphClass: 2
Flags: W
LayerCount: 2
Fore
SplineSet
159 537 m 1,0,-1
 158 440 l 2,1,2
 158 434 158 434 162 434 c 128,-1,3
 166 434 166 434 170 437 c 0,4,5
 195 454 195 454 249 454 c 0,6,7
 340 454 340 454 375 392 c 0,8,9
 388 369 388 369 388 331 c 128,-1,10
 388 293 388 293 383.5 226 c 128,-1,11
 379 159 379 159 379 131 c 0,12,13
 379 33 379 33 407 1 c 0,14,15
 412 -4 412 -4 412 -9 c 0,16,17
 412 -19 412 -19 369 -19 c 0,18,19
 253 -19 253 -19 253 89 c 0,20,21
 253 131 253 131 273 207 c 128,-1,22
 293 283 293 283 293 319 c 128,-1,23
 293 355 293 355 276 374.5 c 128,-1,24
 259 394 259 394 229 394 c 128,-1,25
 199 394 199 394 181.5 381 c 128,-1,26
 164 368 164 368 160 354 c 2,27,-1
 157 341 l 1,28,29
 156 322 156 322 156 220 c 128,-1,30
 156 118 156 118 161 87.5 c 128,-1,31
 166 57 166 57 166 53 c 0,32,33
 166 24 166 24 127 1.5 c 128,-1,34
 88 -21 88 -21 50 -21 c 0,35,36
 36 -21 36 -21 36 -5 c 1,37,-1
 38 14 l 1,38,39
 60 182 60 182 60 378 c 0,40,41
 60 454 60 454 54 532 c 1,42,-1
 53 554 l 2,43,44
 51 582 51 582 41.5 602 c 128,-1,45
 32 622 32 622 24 628 c 1,46,-1
 15 633 l 2,47,48
 8 637 8 637 8 642 c 0,49,50
 8 656 8 656 55 676.5 c 128,-1,51
 102 697 102 697 127.5 697 c 128,-1,52
 153 697 153 697 155 686 c 1,53,54
 159 635 159 635 159 537 c 1,0,-1
EndSplineSet
EndChar

StartChar: i
Encoding: 105 105 76
Width: 210
GlyphClass: 2
Flags: W
LayerCount: 2
Fore
SplineSet
133 535 m 2,0,-1
 109 536 l 1,1,2
 82 536 82 536 74 523 c 0,3,4
 72 520 72 520 69 520 c 0,5,6
 56 520 56 520 56 564.5 c 128,-1,7
 56 609 56 609 69.5 621 c 128,-1,8
 83 633 83 633 116.5 633 c 128,-1,9
 150 633 150 633 162 621.5 c 128,-1,10
 174 610 174 610 174 583 c 128,-1,11
 174 556 174 556 165 545.5 c 128,-1,12
 156 535 156 535 133 535 c 2,0,-1
53 30 m 1,13,-1
 64 263 l 1,14,15
 64 346 64 346 45 376 c 0,16,17
 39 386 39 386 31 391 c 1,18,19
 25 393 25 393 25 399 c 0,20,21
 25 417 25 417 76 434 c 128,-1,22
 127 451 127 451 150.5 451 c 128,-1,23
 174 451 174 451 175 439 c 1,24,25
 175 419 175 419 169.5 325.5 c 128,-1,26
 164 232 164 232 164 129 c 128,-1,27
 164 26 164 26 176 1 c 0,28,29
 179 -4 179 -4 179 -9 c 0,30,31
 179 -22 179 -22 141 -22 c 128,-1,32
 103 -22 103 -22 63 -2 c 0,33,34
 53 3 53 3 53 30 c 1,13,-1
EndSplineSet
EndChar

StartChar: j
Encoding: 106 106 77
Width: 209
GlyphClass: 2
Flags: W
LayerCount: 2
Fore
SplineSet
136 535 m 2,0,-1
 112 536 l 1,1,2
 85 536 85 536 77 523 c 0,3,4
 75 520 75 520 72 520 c 0,5,6
 59 520 59 520 59 564.5 c 128,-1,7
 59 609 59 609 72.5 621 c 128,-1,8
 86 633 86 633 120 633 c 128,-1,9
 154 633 154 633 165.5 621.5 c 128,-1,10
 177 610 177 610 177 583 c 128,-1,11
 177 556 177 556 168 545.5 c 128,-1,12
 159 535 159 535 136 535 c 2,0,-1
179 440 m 1,13,14
 170 359 170 359 170 250 c 1,15,16
 166 103 166 103 166 -3 c 1,17,-1
 167 -82 l 2,18,19
 167 -134 167 -134 151.5 -178.5 c 128,-1,20
 136 -223 136 -223 114.5 -251 c 128,-1,21
 93 -279 93 -279 49.5 -300 c 128,-1,22
 6 -321 6 -321 -52 -321 c 0,23,24
 -70 -321 -70 -321 -70 -308 c 0,25,26
 -70 -301 -70 -301 -54 -294 c 0,27,28
 16 -261 16 -261 45.5 -146 c 128,-1,29
 75 -31 75 -31 75 134 c 0,30,31
 75 366 75 366 39 388 c 0,32,33
 29 395 29 395 29 400 c 0,34,35
 29 417 29 417 81 434 c 128,-1,36
 133 451 133 451 156 451 c 128,-1,37
 179 451 179 451 179 440 c 1,13,14
EndSplineSet
EndChar

StartChar: k
Encoding: 107 107 78
Width: 395
GlyphClass: 2
Flags: W
LayerCount: 2
Fore
SplineSet
246 324 m 0,0,1
 242 320 242 320 242 315.5 c 128,-1,2
 242 311 242 311 260.5 307 c 128,-1,3
 279 303 279 303 301 285 c 128,-1,4
 323 267 323 267 334 246 c 0,5,6
 355 205 355 205 357 174 c 2,7,-1
 358 161 l 1,8,9
 363 44 363 44 401 1 c 0,10,11
 406 -6 406 -6 406 -9 c 0,12,13
 406 -20 406 -20 378 -20 c 0,14,15
 294 -20 294 -20 271 15 c 1,16,17
 259 29 259 29 259 102 c 2,18,-1
 259 127 l 2,19,20
 259 220 259 220 236 256 c 0,21,22
 224 273 224 273 206.5 273 c 128,-1,23
 189 273 189 273 170 242.5 c 128,-1,24
 151 212 151 212 151 191 c 0,25,26
 151 107 151 107 155 74 c 128,-1,27
 159 41 159 41 159 40 c 0,28,29
 159 11 159 11 119.5 -5 c 128,-1,30
 80 -21 80 -21 45 -21 c 0,31,32
 32 -21 32 -21 32 -5 c 2,33,-1
 32 -1 l 1,34,35
 56 122 56 122 56 387 c 0,36,37
 56 474 56 474 52 534 c 1,38,-1
 50 554 l 2,39,40
 48 582 48 582 38.5 602 c 128,-1,41
 29 622 29 622 20 628 c 2,42,-1
 12 633 l 2,43,44
 5 637 5 637 5 642 c 0,45,46
 5 658 5 658 53 678 c 128,-1,47
 101 698 101 698 136 698 c 1,48,49
 152 697 152 697 153 686 c 0,50,51
 158 646 158 646 158 521.5 c 128,-1,52
 158 397 158 397 152 323 c 0,53,54
 152 311 152 311 156 311 c 128,-1,55
 160 311 160 311 168.5 322.5 c 128,-1,56
 177 334 177 334 198.5 359 c 128,-1,57
 220 384 220 384 256.5 417 c 128,-1,58
 293 450 293 450 315.5 450 c 128,-1,59
 338 450 338 450 360 439 c 128,-1,60
 382 428 382 428 382 418 c 1,61,-1
 371 411 l 1,62,63
 314 390 314 390 246 324 c 0,0,1
EndSplineSet
EndChar

StartChar: l
Encoding: 108 108 79
Width: 203
GlyphClass: 2
Flags: W
LayerCount: 2
Fore
SplineSet
165 572 m 1,0,-1
 159 205 l 1,1,2
 159 33 159 33 170 -1 c 1,3,4
 173 -7 173 -7 173 -13 c 0,5,6
 173 -25 173 -25 144 -25 c 128,-1,7
 115 -25 115 -25 79.5 -10.5 c 128,-1,8
 44 4 44 4 44 27 c 1,9,10
 64 167 64 167 64 401 c 1,11,-1
 60 554 l 1,12,13
 58 582 58 582 48.5 602 c 128,-1,14
 39 622 39 622 30 628 c 2,15,-1
 22 633 l 2,16,17
 15 637 15 637 15 642 c 0,18,19
 15 656 15 656 58.5 676.5 c 128,-1,20
 102 697 102 697 143 697 c 0,21,22
 159 697 159 697 161 686 c 0,23,24
 165 660 165 660 165 572 c 1,0,-1
EndSplineSet
EndChar

StartChar: m
Encoding: 109 109 80
Width: 617
GlyphClass: 2
Flags: W
LayerCount: 2
Fore
SplineSet
256 -6 m 1,0,1
 270 64 270 64 270 190.5 c 128,-1,2
 270 317 270 317 269 340 c 128,-1,3
 268 363 268 363 255 377 c 128,-1,4
 242 391 242 391 232.5 393 c 128,-1,5
 223 395 223 395 206 395 c 128,-1,6
 189 395 189 395 173 379.5 c 128,-1,7
 157 364 157 364 154 348 c 2,8,-1
 150 332 l 1,9,10
 147 302 147 302 147 199 c 128,-1,11
 147 96 147 96 151.5 69.5 c 128,-1,12
 156 43 156 43 156 34 c 128,-1,13
 156 25 156 25 148 16 c 0,14,15
 114 -20 114 -20 52 -20 c 0,16,17
 30 -20 30 -20 30 -7 c 1,18,19
 50 113 50 113 50 299 c 0,20,21
 50 368 50 368 47 392 c 2,22,-1
 43 424 l 2,23,24
 42 435 42 435 39 448 c 1,25,26
 39 460 39 460 70 460 c 0,27,28
 116 460 116 460 131 426 c 0,29,30
 132 422 132 422 135 422 c 128,-1,31
 138 422 138 422 149 430 c 0,32,33
 182 456 182 456 238 456 c 0,34,35
 270 456 270 456 301 444 c 128,-1,36
 332 432 332 432 344 412 c 0,37,38
 345 410 345 410 347 410 c 128,-1,39
 349 410 349 410 353 414 c 0,40,41
 395 456 395 456 462 456 c 0,42,43
 551 456 551 456 584 392 c 0,44,45
 596 367 596 367 596 329 c 128,-1,46
 596 291 596 291 590 221 c 128,-1,47
 584 151 584 151 584 114 c 128,-1,48
 584 77 584 77 591.5 47 c 128,-1,49
 599 17 599 17 606.5 4 c 128,-1,50
 614 -9 614 -9 614 -11 c 0,51,52
 614 -24 614 -24 586 -24 c 0,53,54
 517 -24 517 -24 490 4 c 128,-1,55
 463 32 463 32 463 77.5 c 128,-1,56
 463 123 463 123 481.5 200.5 c 128,-1,57
 500 278 500 278 500 317 c 0,58,59
 500 396 500 396 436 396 c 0,60,61
 409 396 409 396 393 380 c 128,-1,62
 377 364 377 364 374 348 c 2,63,-1
 372 332 l 1,64,65
 368 286 368 286 368 221 c 128,-1,66
 368 156 368 156 370 119.5 c 128,-1,67
 372 83 372 83 374 62.5 c 128,-1,68
 376 42 376 42 376 38 c 0,69,70
 376 10 376 10 341 -5 c 128,-1,71
 306 -20 306 -20 273 -20 c 0,72,73
 256 -20 256 -20 256 -6 c 1,0,1
EndSplineSet
EndChar

StartChar: n
Encoding: 110 110 81
Width: 399
GlyphClass: 2
Flags: W
LayerCount: 2
Fore
SplineSet
30 -7 m 1,0,1
 48 101 48 101 48 252 c 128,-1,2
 48 403 48 403 39 448 c 1,3,4
 39 461 39 461 69 461 c 0,5,6
 115 461 115 461 130 426 c 0,7,8
 131 423 131 423 135 423 c 128,-1,9
 139 423 139 423 141 425 c 0,10,11
 172 457 172 457 237 457 c 128,-1,12
 302 457 302 457 340 424 c 128,-1,13
 378 391 378 391 378 328 c 0,14,15
 378 290 378 290 371.5 220 c 128,-1,16
 365 150 365 150 365 116 c 0,17,18
 365 35 365 35 392 -1 c 0,19,20
 396 -6 396 -6 396 -11 c 0,21,22
 396 -24 396 -24 368 -24 c 0,23,24
 244 -24 244 -24 244 86 c 0,25,26
 244 128 244 128 263 203 c 128,-1,27
 282 278 282 278 282 317 c 0,28,29
 282 397 282 397 216 397 c 0,30,31
 184 397 184 397 167.5 378 c 128,-1,32
 151 359 151 359 149 334.5 c 128,-1,33
 147 310 147 310 147 242 c 0,34,35
 147 138 147 138 154 61 c 2,36,-1
 156 39 l 1,37,38
 156 11 156 11 119.5 -4.5 c 128,-1,39
 83 -20 83 -20 56.5 -20 c 128,-1,40
 30 -20 30 -20 30 -7 c 1,0,1
EndSplineSet
EndChar

StartChar: o
Encoding: 111 111 82
Width: 420
GlyphClass: 2
Flags: W
LayerCount: 2
Fore
SplineSet
128 377 m 1,0,1
 102 376 102 376 90.5 375.5 c 128,-1,2
 79 375 79 375 79 381 c 128,-1,3
 79 387 79 387 85 393 c 0,4,5
 149 452 149 452 301 452 c 0,6,7
 353 452 353 452 383 443 c 2,8,-1
 393 440 l 1,9,10
 405 435 405 435 405 429 c 0,11,12
 405 424 405 424 398 421 c 0,13,14
 371 413 371 413 346 395.5 c 128,-1,15
 321 378 321 378 321 371 c 1,16,-1
 327 364 l 1,17,18
 359 346 359 346 376.5 307 c 128,-1,19
 394 268 394 268 396 238 c 2,20,-1
 398 207 l 1,21,22
 398 108 398 108 343 44 c 128,-1,23
 288 -20 288 -20 193 -20 c 0,24,25
 145 -20 145 -20 110 -3 c 128,-1,26
 75 14 75 14 58.5 35.5 c 128,-1,27
 42 57 42 57 32 84 c 1,28,29
 20 121 20 121 20 160.5 c 128,-1,30
 20 200 20 200 33.5 240 c 128,-1,31
 47 280 47 280 64.5 299 c 128,-1,32
 82 318 82 318 104 330 c 0,33,34
 132 345 132 345 149 345 c 128,-1,35
 166 345 166 345 166 338 c 1,36,-1
 160 328 l 1,37,38
 138 302 138 302 128.5 260 c 128,-1,39
 119 218 119 218 119 185.5 c 128,-1,40
 119 153 119 153 127 121 c 128,-1,41
 135 89 135 89 145 73.5 c 128,-1,42
 155 58 155 58 168 50 c 0,43,44
 187 38 187 38 208 38 c 128,-1,45
 229 38 229 38 249 54.5 c 128,-1,46
 269 71 269 71 278 98 c 0,47,48
 296 148 296 148 296 201 c 0,49,50
 296 285 296 285 253.5 331 c 128,-1,51
 211 377 211 377 128 377 c 1,0,1
EndSplineSet
EndChar

StartChar: p
Encoding: 112 112 83
Width: 408
GlyphClass: 2
Flags: W
LayerCount: 2
Fore
SplineSet
40 153 m 0,0,1
 42 254 42 254 42 319 c 128,-1,2
 42 384 42 384 33 443 c 1,3,4
 33 453 33 453 53 453 c 128,-1,5
 73 453 73 453 87.5 448 c 128,-1,6
 102 443 102 443 108 437 c 0,7,8
 124 421 124 421 126.5 421 c 128,-1,9
 129 421 129 421 142 430 c 0,10,11
 181 455 181 455 228.5 455 c 128,-1,12
 276 455 276 455 311.5 431 c 128,-1,13
 347 407 347 407 362 368 c 0,14,15
 389 301 389 301 389 226 c 0,16,17
 389 152 389 152 362 78 c 0,18,19
 347 38 347 38 318 12.5 c 128,-1,20
 289 -13 289 -13 250 -13 c 0,21,22
 173 -13 173 -13 173 76 c 0,23,24
 173 100 173 100 183 100 c 0,25,26
 185 100 185 100 194.5 95.5 c 128,-1,27
 204 91 204 91 213 91 c 0,28,29
 284 91 284 91 284 241.5 c 128,-1,30
 284 392 284 392 208 392 c 0,31,32
 187 392 187 392 172.5 382.5 c 128,-1,33
 158 373 158 373 154 364 c 2,34,-1
 150 354 l 1,35,36
 136 264 136 264 136 7 c 0,37,38
 136 -109 136 -109 140.5 -159.5 c 128,-1,39
 145 -210 145 -210 145 -220 c 128,-1,40
 145 -230 145 -230 139 -238 c 0,41,42
 119 -264 119 -264 85 -284.5 c 128,-1,43
 51 -305 51 -305 25 -305 c 0,44,45
 15 -305 15 -305 15 -292 c 1,46,47
 31 -191 31 -191 40 153 c 0,0,1
EndSplineSet
EndChar

StartChar: q
Encoding: 113 113 84
Width: 429
GlyphClass: 2
Flags: W
LayerCount: 2
Fore
SplineSet
267 -202 m 1,0,-1
 273 -90 l 2,1,2
 273 -84 273 -84 268 -84 c 0,3,4
 253 -84 253 -84 238.5 -75 c 128,-1,5
 224 -66 224 -66 224 -53 c 1,6,-1
 228 -45 l 1,7,8
 248 -33 248 -33 260 -14.5 c 128,-1,9
 272 4 272 4 274 16 c 2,10,-1
 275 28 l 1,11,12
 283 233 283 233 283 242 c 0,13,14
 283 360 283 360 270 382 c 0,15,16
 263 395 263 395 235.5 395 c 128,-1,17
 208 395 208 395 185 374.5 c 128,-1,18
 162 354 162 354 152 321 c 0,19,20
 132 260 132 260 132 208 c 0,21,22
 132 91 132 91 197 91 c 0,23,24
 207 91 207 91 216.5 95.5 c 128,-1,25
 226 100 226 100 228 100 c 0,26,27
 238 100 238 100 238 69 c 128,-1,28
 238 38 238 38 216 12 c 128,-1,29
 194 -14 194 -14 151 -14 c 128,-1,30
 108 -14 108 -14 82.5 6 c 128,-1,31
 57 26 57 26 46 58 c 0,32,33
 25 116 25 116 25 182 c 0,34,35
 25 289 25 289 80.5 370.5 c 128,-1,36
 136 452 136 452 233 452 c 0,37,38
 273 452 273 452 293 436 c 0,39,40
 300 431 300 431 303 431 c 128,-1,41
 306 431 306 431 308 433 c 0,42,43
 340 461 340 461 380 461 c 0,44,45
 396 461 396 461 396 451 c 0,46,47
 396 448 396 448 391 416 c 0,48,49
 375 312 375 312 375 123 c 0,50,51
 375 118 375 118 383 117 c 128,-1,52
 391 116 391 116 407 108 c 128,-1,53
 423 100 423 100 423 90 c 0,54,55
 423 86 423 86 418 83 c 0,56,57
 374 55 374 55 374 -19 c 0,58,59
 374 -210 374 -210 395 -281 c 1,60,61
 398 -287 398 -287 398 -292 c 0,62,63
 398 -300 398 -300 382.5 -300 c 128,-1,64
 367 -300 367 -300 341 -291.5 c 128,-1,65
 315 -283 315 -283 291 -259.5 c 128,-1,66
 267 -236 267 -236 267 -202 c 1,0,-1
EndSplineSet
EndChar

StartChar: r
Encoding: 114 114 85
Width: 355
GlyphClass: 2
Flags: W
LayerCount: 2
Fore
SplineSet
335 268 m 1,0,-1
 339 233 l 1,1,2
 339 214 339 214 303 214 c 0,3,4
 230 214 230 214 230 269 c 0,5,6
 230 282 230 282 237 305 c 128,-1,7
 244 328 244 328 244 345 c 128,-1,8
 244 362 244 362 234 374.5 c 128,-1,9
 224 387 224 387 205 387 c 128,-1,10
 186 387 186 387 172.5 373.5 c 128,-1,11
 159 360 159 360 156 346 c 2,12,-1
 152 332 l 1,13,14
 146 301 146 301 146 228.5 c 128,-1,15
 146 156 146 156 148 114.5 c 128,-1,16
 150 73 150 73 152 57.5 c 128,-1,17
 154 42 154 42 154 39 c 0,18,19
 154 14 154 14 123 -1.5 c 128,-1,20
 92 -17 92 -17 61 -17 c 128,-1,21
 30 -17 30 -17 30 -4 c 1,22,-1
 35 27 l 2,23,24
 49 114 49 114 49 254 c 128,-1,25
 49 394 49 394 39 444 c 1,26,27
 39 456 39 456 60 456 c 0,28,29
 114 456 114 456 132 419 c 0,30,31
 133 415 133 415 135.5 415 c 128,-1,32
 138 415 138 415 149 424 c 0,33,34
 182 451 182 451 227 451 c 0,35,36
 255 451 255 451 283 440 c 0,37,38
 340 417 340 417 340 344 c 1,39,-1
 335 268 l 1,0,-1
EndSplineSet
EndChar

StartChar: s
Encoding: 115 115 86
Width: 344
GlyphClass: 2
Flags: W
LayerCount: 2
Fore
SplineSet
334 137 m 0,0,1
 334 94 334 94 317.5 62 c 128,-1,2
 301 30 301 30 280 15 c 128,-1,3
 259 0 259 0 230 -9 c 0,4,5
 192 -21 192 -21 161 -21 c 0,6,7
 96 -21 96 -21 53 4.5 c 128,-1,8
 10 30 10 30 10 86 c 0,9,10
 10 119 10 119 28 140 c 0,11,12
 56 171 56 171 95 171 c 0,13,14
 107 171 107 171 107 160 c 0,15,16
 107 159 107 159 102.5 144.5 c 128,-1,17
 98 130 98 130 98 108 c 128,-1,18
 98 86 98 86 115.5 69 c 128,-1,19
 133 52 133 52 158 52 c 128,-1,20
 183 52 183 52 198 60.5 c 128,-1,21
 213 69 213 69 219 82 c 0,22,23
 228 100 228 100 228 116 c 0,24,25
 228 145 228 145 199 166 c 128,-1,26
 170 187 170 187 135 199 c 128,-1,27
 100 211 100 211 71 239 c 128,-1,28
 42 267 42 267 42 309 c 0,29,30
 42 381 42 381 87.5 417 c 128,-1,31
 133 453 133 453 211 453 c 0,32,33
 245 453 245 453 282.5 443.5 c 128,-1,34
 320 434 320 434 320 411.5 c 128,-1,35
 320 389 320 389 312.5 370 c 128,-1,36
 305 351 305 351 294 351 c 0,37,38
 288 351 288 351 286 355.5 c 128,-1,39
 284 360 284 360 279 366 c 128,-1,40
 274 372 274 372 255 381.5 c 128,-1,41
 236 391 236 391 222.5 391 c 128,-1,42
 209 391 209 391 204.5 390.5 c 128,-1,43
 200 390 200 390 189 387.5 c 128,-1,44
 178 385 178 385 169 380 c 0,45,46
 146 367 146 367 146 342 c 0,47,48
 146 326 146 326 153 318.5 c 128,-1,49
 160 311 160 311 164 307 c 128,-1,50
 168 303 168 303 178 297.5 c 128,-1,51
 188 292 188 292 192 290 c 128,-1,52
 196 288 196 288 210 281.5 c 128,-1,53
 224 275 224 275 228 273 c 0,54,55
 334 223 334 223 334 137 c 0,0,1
EndSplineSet
EndChar

StartChar: t
Encoding: 116 116 87
Width: 224
GlyphClass: 2
Flags: W
LayerCount: 2
Fore
SplineSet
15 390 m 1,0,-1
 18 430 l 2,1,2
 19 439 19 439 32 439 c 2,3,-1
 67 439 l 1,4,-1
 63 519 l 1,5,-1
 63 523 l 2,6,7
 63 546 63 546 98 567 c 128,-1,8
 133 588 133 588 162 588 c 0,9,10
 171 588 171 588 171 580 c 2,11,-1
 171 579 l 1,12,13
 167 552 167 552 163 440 c 1,14,15
 207 440 207 440 219 442 c 128,-1,16
 231 444 231 444 232 444 c 0,17,18
 239 444 239 444 239 432 c 128,-1,19
 239 420 239 420 228 401.5 c 128,-1,20
 217 383 217 383 204 382 c 1,21,-1
 162 382 l 1,22,23
 161 348 161 348 161 267.5 c 128,-1,24
 161 187 161 187 162.5 135 c 128,-1,25
 164 83 164 83 166 56.5 c 128,-1,26
 168 30 168 30 170.5 14 c 128,-1,27
 173 -2 173 -2 174.5 -9 c 128,-1,28
 176 -16 176 -16 176 -18 c 0,29,30
 176 -28 176 -28 163 -29 c 1,31,32
 124 -29 124 -29 85.5 -18 c 128,-1,33
 47 -7 47 -7 47 20 c 1,34,35
 68 188 68 188 68 381 c 1,36,37
 41 381 41 381 27 379 c 1,38,-1
 26 379 l 2,39,40
 17 379 17 379 15 390 c 1,0,-1
EndSplineSet
EndChar

StartChar: u
Encoding: 117 117 88
Width: 402
GlyphClass: 2
Flags: W
LayerCount: 2
Fore
SplineSet
384 445 m 1,0,1
 366 337 366 337 366 170 c 0,2,3
 366 47 366 47 376 8 c 1,4,-1
 380 -5 l 1,5,6
 380 -18 380 -18 358 -18 c 0,7,8
 281 -18 281 -18 270 25 c 0,9,10
 269 30 269 30 265.5 30 c 128,-1,11
 262 30 262 30 259 26 c 0,12,13
 228 -15 228 -15 163 -15 c 0,14,15
 127 -15 127 -15 88 3 c 0,16,17
 64 14 64 14 49 41.5 c 128,-1,18
 34 69 34 69 34 109 c 1,19,-1
 49 328 l 1,20,21
 49 397 49 397 35 426 c 0,22,23
 30 437 30 437 30 440 c 0,24,25
 30 446 30 446 35 448 c 0,26,27
 51 453 51 453 76 453 c 0,28,29
 173 453 173 453 173 373 c 0,30,31
 173 348 173 348 152.5 259 c 128,-1,32
 132 170 132 170 132 132.5 c 128,-1,33
 132 95 132 95 148.5 75 c 128,-1,34
 165 55 165 55 194.5 55 c 128,-1,35
 224 55 224 55 241 76 c 128,-1,36
 258 97 258 97 261 118 c 2,37,-1
 264 139 l 2,38,39
 268 174 268 174 268 262 c 128,-1,40
 268 350 268 350 262.5 373.5 c 128,-1,41
 257 397 257 397 257 403 c 0,42,43
 257 428 257 428 297 442.5 c 128,-1,44
 337 457 337 457 369 457 c 0,45,46
 384 457 384 457 384 445 c 1,0,1
EndSplineSet
EndChar

StartChar: v
Encoding: 118 118 89
Width: 387
GlyphClass: 2
Flags: W
LayerCount: 2
Fore
SplineSet
340 453 m 128,-1,1
 382 453 382 453 382 366 c 0,2,3
 382 302 382 302 358.5 236 c 128,-1,4
 335 170 335 170 300 120 c 0,5,6
 228 15 228 15 170 -20 c 0,7,8
 156 -28 156 -28 149 -28 c 128,-1,9
 142 -28 142 -28 134.5 -13 c 128,-1,10
 127 2 127 2 111.5 53 c 128,-1,11
 96 104 96 104 86 144 c 1,12,-1
 77 185 l 2,13,14
 57 273 57 273 38 325.5 c 128,-1,15
 19 378 19 378 10 386 c 2,16,-1
 0 395 l 1,17,18
 -10 400 -10 400 -10 407 c 1,19,-1
 -5 416 l 1,20,21
 8 428 8 428 38.5 440.5 c 128,-1,22
 69 453 69 453 106 453 c 0,23,24
 123 453 123 453 127 434 c 1,25,26
 142 388 142 388 153 326 c 128,-1,27
 164 264 164 264 182.5 186 c 128,-1,28
 201 108 201 108 213 107 c 0,29,30
 219 107 219 107 226.5 116 c 128,-1,31
 234 125 234 125 244.5 140 c 128,-1,32
 255 155 255 155 270.5 198 c 128,-1,33
 286 241 286 241 286 271.5 c 128,-1,34
 286 302 286 302 283.5 318.5 c 128,-1,35
 281 335 281 335 266 357 c 128,-1,36
 251 379 251 379 232 382.5 c 128,-1,37
 213 386 213 386 213 395 c 0,38,39
 213 411 213 411 255.5 432 c 128,-1,0
 298 453 298 453 340 453 c 128,-1,1
EndSplineSet
EndChar

StartChar: w
Encoding: 119 119 90
Width: 612
GlyphClass: 2
Flags: W
LayerCount: 2
Fore
SplineSet
399 -20 m 0,0,1
 389 -27 389 -27 384 -27 c 0,2,3
 373 -27 373 -27 369 -18 c 0,4,5
 339 42 339 42 319 144 c 0,6,7
 318 148 318 148 316 148 c 1,8,-1
 310 144 l 1,9,10
 283 96 283 96 247.5 55 c 128,-1,11
 212 14 212 14 190 -3 c 2,12,-1
 168 -20 l 1,13,14
 158 -29 158 -29 152 -29 c 0,15,16
 141 -29 141 -29 137 -19 c 1,17,18
 115 23 115 23 86 144 c 1,19,-1
 77 185 l 2,20,21
 58 273 58 273 38.5 326 c 128,-1,22
 19 379 19 379 9 388 c 2,23,-1
 -1 397 l 1,24,25
 -10 400 -10 400 -10 407 c 0,26,27
 -10 421 -10 421 31.5 437 c 128,-1,28
 73 453 73 453 96 453 c 128,-1,29
 119 453 119 453 126.5 434.5 c 128,-1,30
 134 416 134 416 150 331 c 0,31,32
 192 107 192 107 211 107 c 0,33,34
 217 107 217 107 224.5 117.5 c 128,-1,35
 232 128 232 128 242.5 143 c 128,-1,36
 253 158 253 158 271 195 c 128,-1,37
 289 232 289 232 289 260 c 0,38,39
 289 265 289 265 282 296.5 c 128,-1,40
 275 328 275 328 261.5 357.5 c 128,-1,41
 248 387 248 387 240 391 c 0,42,43
 222 401 222 401 222 408 c 0,44,45
 222 420 222 420 263 436.5 c 128,-1,46
 304 453 304 453 337 453 c 0,47,48
 352 453 352 453 358 435 c 0,49,50
 373 388 373 388 394 266 c 0,51,52
 421 110 421 110 444 110 c 0,53,54
 452 110 452 110 468 132.5 c 128,-1,55
 484 155 484 155 499.5 198 c 128,-1,56
 515 241 515 241 515 271.5 c 128,-1,57
 515 302 515 302 512.5 318.5 c 128,-1,58
 510 335 510 335 495 357 c 128,-1,59
 480 379 480 379 461 382.5 c 128,-1,60
 442 386 442 386 442 395 c 0,61,62
 442 409 442 409 483.5 431 c 128,-1,63
 525 453 525 453 569 453 c 0,64,65
 611 453 611 453 611 369 c 0,66,67
 611 264 611 264 549 153 c 128,-1,68
 487 42 487 42 399 -20 c 0,0,1
EndSplineSet
EndChar

StartChar: x
Encoding: 120 120 91
Width: 412
GlyphClass: 2
Flags: W
LayerCount: 2
Fore
SplineSet
20 98 m 1,0,-1
 40 95 l 1,1,2
 99 95 99 95 158 196 c 0,3,4
 161 201 161 201 166 208 c 1,5,6
 122 289 122 289 89.5 337 c 128,-1,7
 57 385 57 385 46 392 c 1,8,-1
 36 400 l 1,9,10
 22 406 22 406 22 415 c 0,11,12
 22 428 22 428 58.5 443 c 128,-1,13
 95 458 95 458 127 460 c 0,14,15
 144 461 144 461 159 435 c 1,16,17
 187 394 187 394 227 310 c 1,18,-1
 227 308 l 1,19,20
 274 388 274 388 287 421 c 1,21,22
 287 436 287 436 312 444 c 128,-1,23
 337 452 337 452 374 452 c 128,-1,24
 411 452 411 452 411 440 c 0,25,26
 411 435 411 435 402 429 c 0,27,28
 396 426 396 426 384.5 417 c 128,-1,29
 373 408 373 408 336 364.5 c 128,-1,30
 299 321 299 321 261 258 c 0,31,32
 259 255 259 255 258 252 c 1,33,34
 316 147 316 147 327 131.5 c 128,-1,35
 338 116 338 116 344.5 106 c 128,-1,36
 351 96 351 96 370.5 77 c 128,-1,37
 390 58 390 58 407.5 53 c 128,-1,38
 425 48 425 48 425 39 c 0,39,40
 425 25 425 25 389 5.5 c 128,-1,41
 353 -14 353 -14 322 -14 c 0,42,43
 300 -14 300 -14 288 1 c 0,44,45
 267 26 267 26 196 150 c 1,46,47
 134 47 134 47 122 30.5 c 128,-1,48
 110 14 110 14 92 1 c 128,-1,49
 74 -12 74 -12 52.5 -12 c 128,-1,50
 31 -12 31 -12 17.5 2 c 128,-1,51
 4 16 4 16 2 30 c 2,52,-1
 0 44 l 1,53,54
 0 98 0 98 20 98 c 1,0,-1
EndSplineSet
EndChar

StartChar: y
Encoding: 121 121 92
Width: 389
GlyphClass: 2
Flags: W
LayerCount: 2
Fore
SplineSet
207 -277 m 0,0,1
 207 -289 207 -289 195 -289 c 2,2,-1
 194 -289 l 2,3,4
 161 -289 161 -289 119.5 -266 c 128,-1,5
 78 -243 78 -243 78 -213 c 128,-1,6
 78 -183 78 -183 116 -108.5 c 128,-1,7
 154 -34 154 -34 154 -9 c 0,8,9
 154 18 154 18 128 88 c 0,10,11
 95 179 95 179 75.5 236 c 128,-1,12
 56 293 56 293 33.5 336.5 c 128,-1,13
 11 380 11 380 1 388 c 2,14,-1
 -9 395 l 1,15,16
 -20 401 -20 401 -20 408 c 0,17,18
 -20 422 -20 422 23.5 436.5 c 128,-1,19
 67 451 67 451 100 451 c 0,20,21
 115 451 115 451 125 427 c 0,22,23
 143 380 143 380 164 297 c 1,24,25
 215 127 215 127 228 127 c 0,26,27
 237 127 237 127 264.5 197 c 128,-1,28
 292 267 292 267 292 310 c 0,29,30
 292 385 292 385 248 398 c 0,31,32
 238 400 238 400 238 408 c 0,33,34
 238 426 238 426 285 442.5 c 128,-1,35
 332 459 332 459 370 459 c 0,36,37
 403 459 403 459 403 416 c 0,38,39
 403 383 403 383 389 339 c 128,-1,40
 375 295 375 295 363 269.5 c 128,-1,41
 351 244 351 244 303.5 151.5 c 128,-1,42
 256 59 256 59 225 -11 c 1,43,44
 191 -95 191 -95 191 -182 c 0,45,46
 191 -228 191 -228 199 -251 c 128,-1,47
 207 -274 207 -274 207 -277 c 0,0,1
EndSplineSet
EndChar

StartChar: z
Encoding: 122 122 93
Width: 381
GlyphClass: 2
Flags: W
LayerCount: 2
Fore
SplineSet
253 440 m 1,0,-1
 362 443 l 2,1,2
 375 443 375 443 375 432 c 0,3,4
 375 412 375 412 312 314 c 128,-1,5
 249 216 249 216 202.5 143 c 128,-1,6
 156 70 156 70 156 55 c 0,7,8
 156 45 156 45 184 45 c 128,-1,9
 212 45 212 45 233 53.5 c 128,-1,10
 254 62 254 62 264 76 c 0,11,12
 281 100 281 100 281 120 c 128,-1,13
 281 140 281 140 277 159 c 1,14,15
 277 171 277 171 299 173 c 1,16,17
 351 173 351 173 368 144 c 0,18,19
 381 121 381 121 381 97 c 0,20,21
 381 43 381 43 337 16 c 128,-1,22
 293 -11 293 -11 233 -11 c 1,23,-1
 119 -8 l 1,24,-1
 18 -10 l 2,25,26
 0 -10 0 -10 0 2.5 c 128,-1,27
 0 15 0 15 32.5 68 c 128,-1,28
 65 121 65 121 98 168 c 2,29,-1
 131 215 l 1,30,31
 215 347 215 347 220.5 357.5 c 128,-1,32
 226 368 226 368 226 376 c 0,33,34
 226 390 226 390 197 390 c 128,-1,35
 168 390 168 390 144.5 382 c 128,-1,36
 121 374 121 374 106 362.5 c 128,-1,37
 91 351 91 351 80 339 c 0,38,39
 60 317 60 317 60 311 c 1,40,41
 57 301 57 301 49 301 c 2,42,-1
 48 301 l 2,43,44
 34 301 34 301 34 318 c 0,45,46
 34 357 34 357 52 410 c 1,47,-1
 59 428 l 1,48,49
 63 442 63 442 80 442 c 2,50,-1
 253 440 l 1,0,-1
EndSplineSet
EndChar

StartChar: braceleft
Encoding: 123 123 94
Width: 195
GlyphClass: 2
Flags: W
LayerCount: 2
Fore
SplineSet
155 574 m 1,0,-1
 157 463 l 2,1,2
 157 414 157 414 123 384 c 0,3,4
 118 379 118 379 106 369 c 0,5,6
 86 351 86 351 86 347 c 1,7,-1
 90 339 l 2,8,9
 92 337 92 337 104.5 326.5 c 128,-1,10
 117 316 117 316 121 312.5 c 128,-1,11
 125 309 125 309 134 298 c 128,-1,12
 143 287 143 287 146 279 c 0,13,14
 157 255 157 255 157 230 c 2,15,-1
 155 119 l 1,16,-1
 158 5 l 2,17,18
 158 -10 158 -10 168.5 -30.5 c 128,-1,19
 179 -51 179 -51 190 -64 c 2,20,-1
 200 -77 l 2,21,22
 204 -81 204 -81 204 -84 c 0,23,24
 204 -90 204 -90 192 -90 c 128,-1,25
 180 -90 180 -90 137 -68 c 128,-1,26
 94 -46 94 -46 80.5 -30.5 c 128,-1,27
 67 -15 67 -15 67 2 c 0,28,29
 70 80 70 80 70 155 c 128,-1,30
 70 230 70 230 66.5 257.5 c 128,-1,31
 63 285 63 285 53.5 297 c 128,-1,32
 44 309 44 309 26.5 326 c 128,-1,33
 9 343 9 343 9 346 c 1,34,-1
 12 353 l 1,35,36
 16 357 16 357 26 366 c 128,-1,37
 36 375 36 375 39 378.5 c 128,-1,38
 42 382 42 382 48.5 389 c 128,-1,39
 55 396 55 396 57 401 c 128,-1,40
 59 406 59 406 62 413 c 0,41,42
 70 432 70 432 70 538 c 1,43,-1
 67 691 l 2,44,45
 67 741 67 741 187 781 c 0,46,47
 190 782 190 782 197 782 c 128,-1,48
 204 782 204 782 204 777.5 c 128,-1,49
 204 773 204 773 200 769 c 0,50,51
 158 721 158 721 158 688 c 1,52,53
 155 648 155 648 155 574 c 1,0,-1
EndSplineSet
EndChar

StartChar: bar
Encoding: 124 124 95
Width: 177
GlyphClass: 2
Flags: W
LayerCount: 2
Fore
SplineSet
128 732 m 2,0,-1
 126 -24 l 2,1,2
 126 -65 126 -65 80 -65 c 0,3,4
 61 -65 61 -65 61 -50 c 2,5,-1
 61 18 l 1,6,-1
 63 586 l 1,7,-1
 63 702 l 2,8,9
 63 747 63 747 115 747 c 2,10,-1
 118 747 l 2,11,12
 121 747 121 747 124.5 743 c 128,-1,13
 128 739 128 739 128 732 c 2,0,-1
EndSplineSet
EndChar

StartChar: braceright
Encoding: 125 125 96
Width: 195
GlyphClass: 2
Flags: W
LayerCount: 2
Fore
SplineSet
40 119 m 1,0,-1
 38 230 l 2,1,2
 38 281 38 281 74 312 c 0,3,4
 78 316 78 316 90.5 326.5 c 128,-1,5
 103 337 103 337 106 340 c 128,-1,6
 109 343 109 343 109 346.5 c 128,-1,7
 109 350 109 350 104.5 354.5 c 128,-1,8
 100 359 100 359 88.5 369 c 128,-1,9
 77 379 77 379 72 383.5 c 128,-1,10
 67 388 67 388 59 397.5 c 128,-1,11
 51 407 51 407 48 416 c 0,12,13
 38 439 38 439 38 463 c 2,14,-1
 40 574 l 1,15,-1
 37 688 l 2,16,17
 37 717 37 717 6 756 c 1,18,-1
 -5 769 l 2,19,20
 -9 773 -9 773 -9 777.5 c 128,-1,21
 -9 782 -9 782 1 782 c 1,22,-1
 8 781 l 1,23,24
 128 741 128 741 128 691 c 1,25,26
 125 613 125 613 125 538 c 128,-1,27
 125 463 125 463 127.5 441.5 c 128,-1,28
 130 420 130 420 133 413 c 128,-1,29
 136 406 136 406 138 401 c 128,-1,30
 140 396 140 396 146.5 389 c 128,-1,31
 153 382 153 382 156 378.5 c 128,-1,32
 159 375 159 375 169 366 c 0,33,34
 186 351 186 351 186 347 c 128,-1,35
 186 343 186 343 183 340 c 0,36,37
 151 309 151 309 141.5 297 c 128,-1,38
 132 285 132 285 128.5 257.5 c 128,-1,39
 125 230 125 230 125 155 c 1,40,-1
 128 2 l 2,41,42
 128 -15 128 -15 114.5 -30.5 c 128,-1,43
 101 -46 101 -46 58 -68 c 128,-1,44
 15 -90 15 -90 3 -90 c 128,-1,45
 -9 -90 -9 -90 -9 -84 c 0,46,47
 -9 -81 -9 -81 -5 -77 c 0,48,49
 37 -28 37 -28 37 5 c 1,50,51
 40 45 40 45 40 119 c 1,0,-1
EndSplineSet
EndChar

StartChar: asciitilde
Encoding: 126 126 97
Width: 320
GlyphClass: 2
Flags: W
LayerCount: 2
Fore
SplineSet
124 287 m 1,0,-1
 225 279 l 1,1,2
 245 279 245 279 254 282 c 128,-1,3
 263 285 263 285 264 285 c 0,4,5
 270 285 270 285 270 280 c 0,6,7
 270 265 270 265 250.5 247 c 128,-1,8
 231 229 231 229 212.5 229 c 128,-1,9
 194 229 194 229 165.5 236 c 128,-1,10
 137 243 137 243 118 243 c 128,-1,11
 99 243 99 243 85.5 240 c 128,-1,12
 72 237 72 237 64 234 c 128,-1,13
 56 231 56 231 53 231 c 128,-1,14
 50 231 50 231 50 239 c 128,-1,15
 50 247 50 247 72.5 267 c 128,-1,16
 95 287 95 287 124 287 c 1,0,-1
EndSplineSet
EndChar

StartChar: exclamdown
Encoding: 161 161 98
Width: 240
GlyphClass: 2
Flags: W
LayerCount: 2
Fore
SplineSet
130 392 m 2,0,-1
 106 391 l 2,1,2
 82 391 82 391 73.5 401.5 c 128,-1,3
 65 412 65 412 65 438.5 c 128,-1,4
 65 465 65 465 76.5 477.5 c 128,-1,5
 88 490 88 490 121.5 490 c 128,-1,6
 155 490 155 490 168.5 477 c 128,-1,7
 182 464 182 464 182 420 c 128,-1,8
 182 376 182 376 169 376 c 1,9,-1
 158 384 l 2,10,11
 147 392 147 392 130 392 c 2,0,-1
189 -178 m 0,12,13
 190 -183 190 -183 190 -193 c 128,-1,14
 190 -203 190 -203 173.5 -213 c 128,-1,15
 157 -223 157 -223 134 -228 c 0,16,17
 97 -235 97 -235 74 -235 c 128,-1,18
 51 -235 51 -235 51 -215 c 1,19,-1
 53 -203 l 1,20,21
 91 -45 91 -45 91 242 c 0,22,23
 91 274 91 274 90 283.5 c 128,-1,24
 89 293 89 293 90 296 c 128,-1,25
 91 299 91 299 100.5 304.5 c 128,-1,26
 110 310 110 310 126 310 c 0,27,28
 161 310 161 310 162 287 c 1,29,30
 162 -68 162 -68 189 -178 c 0,12,13
EndSplineSet
EndChar

StartChar: cent
Encoding: 162 162 99
Width: 395
GlyphClass: 2
Flags: W
LayerCount: 2
Fore
SplineSet
362 115 m 0,0,1
 362 58 362 58 316.5 20.5 c 128,-1,2
 271 -17 271 -17 208 -17 c 0,3,4
 116 -17 116 -17 73 38.5 c 128,-1,5
 30 94 30 94 30 189 c 0,6,7
 30 290 30 290 74 368 c 0,8,9
 97 408 97 408 138 431 c 128,-1,10
 179 454 179 454 234 454 c 0,11,12
 317 454 317 454 351 398 c 0,13,14
 365 375 365 375 365 344 c 0,15,16
 365 296 365 296 324 272 c 0,17,18
 309 263 309 263 295.5 263 c 128,-1,19
 282 263 282 263 273.5 264.5 c 128,-1,20
 265 266 265 266 251 278 c 128,-1,21
 237 290 237 290 237 311 c 1,22,23
 238 322 238 322 254 329 c 1,24,25
 269 338 269 338 269 361 c 0,26,27
 269 400 269 400 221 400 c 0,28,29
 209 400 209 400 192.5 389.5 c 128,-1,30
 176 379 176 379 165 362.5 c 128,-1,31
 154 346 154 346 144.5 310.5 c 128,-1,32
 135 275 135 275 135 242.5 c 128,-1,33
 135 210 135 210 137.5 193.5 c 128,-1,34
 140 177 140 177 148.5 148.5 c 128,-1,35
 157 120 157 120 180.5 102 c 128,-1,36
 204 84 204 84 239 84 c 0,37,38
 280 84 280 84 313 119 c 0,39,40
 326 133 326 133 334 153 c 0,41,42
 338 161 338 161 344 161 c 0,43,44
 353 161 353 161 357.5 144.5 c 128,-1,45
 362 128 362 128 362 115 c 0,0,1
242 495 m 2,46,-1
 243 435 l 2,47,48
 243 413 243 413 214 413 c 0,49,50
 200 413 200 413 200 427 c 2,51,-1
 200 491 l 2,52,53
 200 500 200 500 209 506 c 128,-1,54
 218 512 218 512 230 512 c 128,-1,55
 242 512 242 512 242 495 c 2,46,-1
242 192 m 2,56,-1
 242 -46 l 2,57,58
 242 -56 242 -56 233 -63.5 c 128,-1,59
 224 -71 224 -71 212 -71 c 128,-1,60
 200 -71 200 -71 200 -56 c 2,61,-1
 200 183 l 2,62,63
 200 193 200 193 209.5 199 c 128,-1,64
 219 205 219 205 230.5 205 c 128,-1,65
 242 205 242 205 242 192 c 2,56,-1
EndSplineSet
EndChar

StartChar: sterling
Encoding: 163 163 100
Width: 499
GlyphClass: 2
Flags: W
LayerCount: 2
Fore
SplineSet
360 1 m 2,0,-1
 304 2 l 2,1,2
 292 2 292 2 280 2 c 2,3,-1
 98 -7 l 2,4,5
 83 -7 83 -7 83 3 c 0,6,7
 83 6 83 6 86 17 c 1,8,9
 96 40 96 40 100.5 160 c 128,-1,10
 105 280 105 280 105 354 c 1,11,-1
 -15 354 l 2,12,13
 -21 354 -21 354 -21 366.5 c 128,-1,14
 -21 379 -21 379 -7.5 394.5 c 128,-1,15
 6 410 6 410 28 410 c 2,16,-1
 105 410 l 1,17,18
 101 599 101 599 93 629.5 c 128,-1,19
 85 660 85 660 77.5 669 c 128,-1,20
 70 678 70 678 70 684 c 0,21,22
 70 700 70 700 124 712 c 128,-1,23
 178 724 178 724 201.5 724 c 128,-1,24
 225 724 225 724 231 721.5 c 128,-1,25
 237 719 237 719 237 710.5 c 128,-1,26
 237 702 237 702 234 666 c 0,27,28
 225 555 225 555 223 412 c 1,29,30
 261 413 261 413 372 413 c 0,31,32
 379 413 379 413 383 409.5 c 128,-1,33
 387 406 387 406 387 403 c 2,34,-1
 387 400 l 2,35,36
 387 384 387 384 372 369 c 128,-1,37
 357 354 357 354 334 354 c 2,38,-1
 223 354 l 1,39,40
 223 193 223 193 231 95 c 0,41,42
 231 84 231 84 250 76 c 128,-1,43
 269 68 269 68 297 68 c 0,44,45
 395 68 395 68 395 204 c 0,46,47
 395 241 395 241 390.5 253.5 c 128,-1,48
 386 266 386 266 386 269 c 0,49,50
 386 279 386 279 400 279 c 0,51,52
 412 279 412 279 430 269.5 c 128,-1,53
 448 260 448 260 460 245.5 c 128,-1,54
 472 231 472 231 482 198 c 128,-1,55
 492 165 492 165 492 120 c 0,56,57
 492 1 492 1 463 1 c 0,58,59
 412 1 412 1 360 1 c 2,0,-1
EndSplineSet
EndChar

StartChar: yen
Encoding: 165 165 101
Width: 529
GlyphClass: 2
Flags: W
LayerCount: 2
Fore
SplineSet
183 -14 m 1,0,-1
 186 -1 l 1,1,2
 203 90 203 90 203 225 c 0,3,4
 203 243 203 243 202 253 c 1,5,-1
 85 253 l 2,6,7
 70 253 70 253 70 268.5 c 128,-1,8
 70 284 70 284 80 295.5 c 128,-1,9
 90 307 90 307 113 307 c 2,10,-1
 195 307 l 1,11,-1
 190 345 l 1,12,-1
 178 376 l 1,13,-1
 85 376 l 2,14,15
 70 376 70 376 70 391.5 c 128,-1,16
 70 407 70 407 80 418.5 c 128,-1,17
 90 430 90 430 113 430 c 2,18,-1
 155 430 l 1,19,20
 101 555 101 555 56 604 c 0,21,22
 17 647 17 647 -2 650 c 1,23,-1
 -9 652 l 1,24,25
 -19 658 -19 658 -19 666 c 0,26,27
 -19 683 -19 683 33 701 c 128,-1,28
 85 719 85 719 111.5 719 c 128,-1,29
 138 719 138 719 147 703 c 0,30,31
 235 547 235 547 285 432 c 1,32,-1
 306 432 l 1,33,34
 327 457 327 457 361.5 537 c 128,-1,35
 396 617 396 617 396 650 c 1,36,-1
 392 687 l 1,37,38
 392 705 392 705 438 712.5 c 128,-1,39
 484 720 484 720 528 720 c 128,-1,40
 572 720 572 720 572 705 c 0,41,42
 572 698 572 698 562 688 c 0,43,44
 498 621 498 621 385 433 c 1,45,-1
 463 433 l 2,46,47
 470 433 470 433 474 429.5 c 128,-1,48
 478 426 478 426 478 423 c 2,49,-1
 478 420 l 2,50,51
 478 376 478 376 438 376 c 2,52,-1
 351 376 l 1,53,-1
 340 356 l 2,54,55
 333 342 333 342 328 309 c 1,56,57
 361 310 361 310 453 310 c 0,58,59
 468 310 468 310 468 300 c 2,60,-1
 468 297 l 2,61,62
 468 278 468 278 456.5 265.5 c 128,-1,63
 445 253 445 253 428 253 c 2,64,-1
 322 253 l 1,65,-1
 322 237 l 2,66,67
 322 170 322 170 328 103 c 128,-1,68
 334 36 334 36 334 31 c 0,69,70
 334 6 334 6 288 -9.5 c 128,-1,71
 242 -25 242 -25 212.5 -25 c 128,-1,72
 183 -25 183 -25 183 -14 c 1,0,-1
EndSplineSet
EndChar

StartChar: brokenbar
Encoding: 166 166 102
Width: 177
GlyphClass: 2
Flags: W
LayerCount: 2
Fore
SplineSet
128 273 m 2,0,-1
 126 -17 l 2,1,2
 126 -58 126 -58 80 -58 c 0,3,4
 61 -58 61 -58 61 -43 c 2,5,-1
 61 -23 l 1,6,-1
 63 174 l 1,7,-1
 63 243 l 2,8,9
 63 288 63 288 115 288 c 2,10,-1
 118 288 l 2,11,12
 121 288 121 288 124.5 284 c 128,-1,13
 128 280 128 280 128 273 c 2,0,-1
128 732 m 2,14,-1
 126 442 l 2,15,16
 126 401 126 401 80 401 c 0,17,18
 61 401 61 401 61 416 c 2,19,-1
 61 436 l 1,20,-1
 63 634 l 1,21,-1
 63 702 l 2,22,23
 63 747 63 747 115 747 c 2,24,-1
 118 747 l 2,25,26
 121 747 121 747 124.5 743 c 128,-1,27
 128 739 128 739 128 732 c 2,14,-1
EndSplineSet
EndChar

StartChar: section
Encoding: 167 167 103
Width: 467
GlyphClass: 2
Flags: W
LayerCount: 2
Fore
SplineSet
348 370 m 0,0,1
 348 390 348 390 321 409.5 c 128,-1,2
 294 429 294 429 267 438 c 2,3,-1
 240 448 l 2,4,5
 237 449 237 449 231 449 c 1,6,-1
 218 446 l 1,7,8
 208 442 208 442 192.5 434.5 c 128,-1,9
 177 427 177 427 151 403 c 128,-1,10
 125 379 125 379 125 355 c 2,11,-1
 125 354 l 2,12,13
 125 333 125 333 151.5 313 c 128,-1,14
 178 293 178 293 204 284 c 2,15,-1
 230 275 l 2,16,17
 234 273 234 273 241 273 c 128,-1,18
 248 273 248 273 254 276 c 0,19,20
 348 329 348 329 348 370 c 0,0,1
254 0.5 m 128,-1,22
 202 -12 202 -12 149.5 -11.5 c 128,-1,23
 97 -11 97 -11 82 -8 c 0,24,25
 57 -2 57 -2 54 35 c 2,26,-1
 53 47 l 2,27,28
 53 56 53 56 60 56 c 0,29,30
 64 56 64 56 87 50.5 c 128,-1,31
 110 45 110 45 140 45 c 128,-1,32
 170 45 170 45 200 51 c 128,-1,33
 230 57 230 57 246 65.5 c 128,-1,34
 262 74 262 74 271 85 c 0,35,36
 285 102 285 102 285 119.5 c 128,-1,37
 285 137 285 137 257.5 155 c 128,-1,38
 230 173 230 173 190.5 190 c 128,-1,39
 151 207 151 207 111.5 226 c 128,-1,40
 72 245 72 245 44.5 272.5 c 128,-1,41
 17 300 17 300 17 327 c 128,-1,42
 17 354 17 354 31.5 377 c 128,-1,43
 46 400 46 400 66 417 c 0,44,45
 103 448 103 448 142 467 c 2,46,-1
 156 474 l 2,47,48
 160 477 160 477 160 479 c 1,49,-1
 156 484 l 1,50,51
 116 502 116 502 94.5 521 c 128,-1,52
 73 540 73 540 73 574.5 c 128,-1,53
 73 609 73 609 98.5 637 c 128,-1,54
 124 665 124 665 164 680 c 0,55,56
 244 711 244 711 335 711 c 0,57,58
 401 711 401 711 401 657 c 0,59,60
 401 647 401 647 394 647 c 0,61,62
 391 647 391 647 381 650.5 c 128,-1,63
 371 654 371 654 338.5 654 c 128,-1,64
 306 654 306 654 284.5 652 c 128,-1,65
 263 650 263 650 236.5 644 c 128,-1,66
 210 638 210 638 194 624 c 128,-1,67
 178 610 178 610 178 590 c 0,68,69
 178 558 178 558 293 524 c 0,70,71
 388 495 388 495 417 471 c 0,72,73
 450 443 450 443 450 402 c 0,74,75
 450 378 450 378 432 349 c 0,76,77
 398 292 398 292 306 246 c 0,78,79
 300 243 300 243 300 240.5 c 128,-1,80
 300 238 300 238 305 235 c 0,81,82
 395 195 395 195 395 133 c 0,83,84
 395 101 395 101 376.5 74 c 128,-1,85
 358 47 358 47 332 30 c 128,-1,21
 306 13 306 13 254 0.5 c 128,-1,22
EndSplineSet
EndChar

StartChar: dieresis
Encoding: 168 168 104
Width: 410
GlyphClass: 2
Flags: W
LayerCount: 2
Fore
SplineSet
305 538 m 2,0,-1
 284 537 l 2,1,2
 265 537 265 537 258 545.5 c 128,-1,3
 251 554 251 554 251 577 c 128,-1,4
 251 600 251 600 261 609 c 128,-1,5
 271 618 271 618 298 618 c 128,-1,6
 325 618 325 618 335.5 607.5 c 128,-1,7
 346 597 346 597 346 577 c 0,8,9
 346 542 346 542 342 533.5 c 128,-1,10
 338 525 338 525 336 525 c 1,11,-1
 332 528 l 1,12,13
 326 538 326 538 305 538 c 2,0,-1
130 538 m 2,14,-1
 109 537 l 2,15,16
 90 537 90 537 83 545.5 c 128,-1,17
 76 554 76 554 76 577 c 128,-1,18
 76 600 76 600 86 609 c 128,-1,19
 96 618 96 618 123 618 c 128,-1,20
 150 618 150 618 160.5 607.5 c 128,-1,21
 171 597 171 597 171 577 c 0,22,23
 171 525 171 525 161 525 c 1,24,-1
 157 528 l 1,25,26
 151 538 151 538 130 538 c 2,14,-1
EndSplineSet
EndChar

StartChar: copyright
Encoding: 169 169 105
Width: 522
GlyphClass: 2
Flags: W
LayerCount: 2
Fore
SplineSet
332 146 m 1,0,-1
 327 143 l 1,1,2
 319 126 319 126 306 116.5 c 128,-1,3
 293 107 293 107 275 105 c 1,4,5
 227 105 227 105 218 169 c 0,6,7
 217 180 217 180 217 203.5 c 128,-1,8
 217 227 217 227 230 265 c 128,-1,9
 243 303 243 303 270 303 c 0,10,11
 280 303 280 303 286 297 c 0,12,13
 294 289 294 289 294 281 c 0,14,15
 294 265 294 265 280 257 c 1,16,17
 275 256 275 256 275 247 c 128,-1,18
 275 238 275 238 282 230 c 0,19,20
 291 221 291 221 305.5 221 c 128,-1,21
 320 221 320 221 329.5 232.5 c 128,-1,22
 339 244 339 244 340 256 c 2,23,-1
 341 268 l 1,24,25
 341 294 341 294 324.5 309 c 128,-1,26
 308 324 308 324 296.5 326 c 128,-1,27
 285 328 285 328 275 328 c 0,28,29
 221 328 221 328 195.5 281.5 c 128,-1,30
 170 235 170 235 170 174 c 0,31,32
 170 136 170 136 182 107 c 0,33,34
 203 54 203 54 261 54 c 0,35,36
 295 54 295 54 317 77 c 128,-1,37
 339 100 339 100 339 123 c 128,-1,38
 339 146 339 146 332 146 c 1,0,-1
261 370 m 128,-1,40
 188 370 188 370 136 318.5 c 128,-1,41
 84 267 84 267 84 194 c 128,-1,42
 84 121 84 121 136 69 c 128,-1,43
 188 17 188 17 261 17 c 128,-1,44
 334 17 334 17 385.5 69 c 128,-1,45
 437 121 437 121 437 194 c 128,-1,46
 437 267 437 267 385.5 318.5 c 128,-1,39
 334 370 334 370 261 370 c 128,-1,40
417.5 349.5 m 128,-1,48
 482 285 482 285 482 193.5 c 128,-1,49
 482 102 482 102 417 37.5 c 128,-1,50
 352 -27 352 -27 261 -27 c 128,-1,51
 170 -27 170 -27 105 37.5 c 128,-1,52
 40 102 40 102 40 193.5 c 128,-1,53
 40 285 40 285 104.5 349.5 c 128,-1,54
 169 414 169 414 261 414 c 128,-1,47
 353 414 353 414 417.5 349.5 c 128,-1,48
EndSplineSet
EndChar

StartChar: ordfeminine
Encoding: 170 170 106
Width: 321
GlyphClass: 2
Flags: W
LayerCount: 2
Fore
SplineSet
282 564 m 2,0,-1
 280 461 l 1,1,2
 280 368 280 368 300 349 c 0,3,4
 303 346 303 346 303 343 c 0,5,6
 303 332 303 332 258 332 c 128,-1,7
 213 332 213 332 210 359 c 0,8,9
 209 365 209 365 209 385 c 2,10,-1
 212 497 l 2,11,12
 212 502 212 502 207 502 c 0,13,14
 173 502 173 502 143.5 483 c 128,-1,15
 114 464 114 464 114 435 c 0,16,17
 114 420 114 420 122.5 409 c 128,-1,18
 131 398 131 398 143.5 398 c 128,-1,19
 156 398 156 398 164 403.5 c 128,-1,20
 172 409 172 409 173 409 c 0,21,22
 185 407 185 407 185 384 c 128,-1,23
 185 361 185 361 163.5 346.5 c 128,-1,24
 142 332 142 332 118 332 c 128,-1,25
 94 332 94 332 77 340.5 c 128,-1,26
 60 349 60 349 52 359.5 c 128,-1,27
 44 370 44 370 40 384 c 1,28,29
 34 400 34 400 34 411 c 0,30,31
 34 504 34 504 144 531 c 1,32,33
 208 544 208 544 211 554 c 0,34,35
 213 562 213 562 213 580 c 0,36,37
 213 617 213 617 175 617 c 0,38,39
 159 617 159 617 146.5 607 c 128,-1,40
 134 597 134 597 134 582 c 1,41,-1
 138 565 l 1,42,43
 136 552 136 552 110 551 c 128,-1,44
 84 550 84 550 72 561 c 128,-1,45
 60 572 60 572 60 583 c 128,-1,46
 60 594 60 594 61 599 c 128,-1,47
 62 604 62 604 68 615.5 c 128,-1,48
 74 627 74 627 85 636 c 0,49,50
 113 657 113 657 172 657 c 128,-1,51
 231 657 231 657 256.5 635.5 c 128,-1,52
 282 614 282 614 282 564 c 2,0,-1
EndSplineSet
EndChar

StartChar: guillemotleft
Encoding: 171 171 107
Width: 690
GlyphClass: 2
Flags: W
LayerCount: 2
Fore
SplineSet
370 149 m 1,0,-1
 298 194 l 1,1,2
 282 207 282 207 282 218 c 0,3,4
 282 236 282 236 300 252 c 1,5,6
 456 372 456 372 606 463 c 0,7,8
 613 468 613 468 619 468 c 0,9,10
 633 468 633 468 633 439.5 c 128,-1,11
 633 411 633 411 614 399 c 0,12,13
 462 305 462 305 387 245 c 0,14,15
 378 238 378 238 378 231.5 c 128,-1,16
 378 225 378 225 385 221 c 0,17,18
 576 109 576 109 623 70 c 1,19,20
 639 60 639 60 639 33 c 0,21,22
 639 -12 639 -12 618 -12 c 0,23,24
 612 -12 612 -12 601 0.5 c 128,-1,25
 590 13 590 13 370 149 c 1,0,-1
382 -19 m 0,26,27
 375 -19 375 -19 368 -10 c 1,28,29
 354 5 354 5 138 140 c 1,30,-1
 66 184 l 1,31,32
 50 197 50 197 50 208 c 0,33,34
 50 225 50 225 69 242 c 1,35,36
 234 369 234 369 384 460 c 0,37,38
 391 465 391 465 397 465 c 0,39,40
 411 465 411 465 411 437.5 c 128,-1,41
 411 410 411 410 392 395 c 1,42,43
 230 296 230 296 156 235 c 1,44,45
 147 229 147 229 147 222.5 c 128,-1,46
 147 216 147 216 154 212 c 0,47,48
 341 100 341 100 388 61 c 1,49,50
 404 52 404 52 404 32 c 0,51,52
 404 -19 404 -19 382 -19 c 0,26,27
EndSplineSet
EndChar

StartChar: logicalnot
Encoding: 172 172 108
Width: 499
GlyphClass: 2
Flags: W
LayerCount: 2
Fore
SplineSet
73 384 m 2,0,1
 73 384 73 384 447 387 c 0,2,3
 467 387 467 387 467 365 c 2,4,-1
 467 217 l 2,5,6
 467 176 467 176 421 176 c 0,7,8
 402 176 402 176 402 191 c 2,9,-1
 402 193 l 2,10,11
 402 257 402 257 403 320 c 1,12,-1
 45 320 l 2,13,14
 30 320 30 320 30 340 c 0,15,16
 30 384 30 384 73 384 c 2,0,1
EndSplineSet
EndChar

StartChar: registered
Encoding: 174 174 109
Width: 522
GlyphClass: 2
Flags: W
LayerCount: 2
Fore
SplineSet
238 90 m 2,0,-1
 234 190 l 1,1,2
 234 251 234 251 237 296 c 0,3,4
 237 304 237 304 254 304 c 128,-1,5
 271 304 271 304 278 302 c 128,-1,6
 285 300 285 300 292.5 290.5 c 128,-1,7
 300 281 300 281 300 270 c 128,-1,8
 300 259 300 259 299 252 c 128,-1,9
 298 245 298 245 287.5 233.5 c 128,-1,10
 277 222 277 222 259 222 c 0,11,12
 256 222 256 222 252.5 215.5 c 128,-1,13
 249 209 249 209 249 203 c 128,-1,14
 249 197 249 197 252 197 c 2,15,-1
 253 197 l 2,16,17
 288 197 288 197 288 155 c 2,18,-1
 288 136 l 2,19,20
 288 100 288 100 293 85 c 128,-1,21
 298 70 298 70 311.5 70 c 128,-1,22
 325 70 325 70 342.5 74 c 128,-1,23
 360 78 360 78 360 83 c 1,24,-1
 358 87 l 1,25,26
 334 96 334 96 334 144 c 128,-1,27
 334 192 334 192 299 204 c 0,28,29
 294 206 294 206 294 207 c 2,30,31
 294 207 294 207 307.5 211 c 128,-1,32
 321 215 321 215 335 229 c 128,-1,33
 349 243 349 243 349 269.5 c 128,-1,34
 349 296 349 296 325 311.5 c 128,-1,35
 301 327 301 327 255 327 c 128,-1,36
 209 327 209 327 185 317 c 1,37,38
 181 314 181 314 181 312 c 2,39,-1
 183 308 l 1,40,41
 190 302 190 302 191.5 278.5 c 128,-1,42
 193 255 193 255 193 203.5 c 128,-1,43
 193 152 193 152 192 142 c 2,44,-1
 187 79 l 2,45,46
 186 77 186 77 186 74 c 128,-1,47
 186 71 186 71 191 71 c 0,48,49
 223 71 223 71 236 84 c 0,50,51
 238 85 238 85 238 90 c 2,0,-1
261 370 m 128,-1,53
 188 370 188 370 136 318.5 c 128,-1,54
 84 267 84 267 84 194 c 128,-1,55
 84 121 84 121 136 69 c 128,-1,56
 188 17 188 17 261 17 c 128,-1,57
 334 17 334 17 385.5 69 c 128,-1,58
 437 121 437 121 437 194 c 128,-1,59
 437 267 437 267 385.5 318.5 c 128,-1,52
 334 370 334 370 261 370 c 128,-1,53
417.5 349.5 m 128,-1,61
 482 285 482 285 482 193.5 c 128,-1,62
 482 102 482 102 417 37.5 c 128,-1,63
 352 -27 352 -27 261 -27 c 128,-1,64
 170 -27 170 -27 105 37.5 c 128,-1,65
 40 102 40 102 40 193.5 c 128,-1,66
 40 285 40 285 104.5 349.5 c 128,-1,67
 169 414 169 414 261 414 c 128,-1,60
 353 414 353 414 417.5 349.5 c 128,-1,61
EndSplineSet
EndChar

StartChar: macron
Encoding: 175 175 110
Width: 395
GlyphClass: 2
Flags: W
LayerCount: 2
Fore
SplineSet
108 528 m 0,0,1
 108 558 108 558 136 558 c 2,2,-1
 325 560 l 2,3,4
 334 560 334 560 334 551 c 0,5,6
 334 515 334 515 308 515 c 2,7,-1
 117 515 l 2,8,9
 108 515 108 515 108 528 c 0,0,1
EndSplineSet
EndChar

StartChar: degree
Encoding: 176 176 111
Width: 255
GlyphClass: 2
Flags: W
LayerCount: 2
Fore
SplineSet
170.5 548 m 128,-1,1
 184 560 184 560 184 584 c 128,-1,2
 184 608 184 608 170.5 621.5 c 128,-1,3
 157 635 157 635 138.5 635 c 128,-1,4
 120 635 120 635 106.5 621 c 128,-1,5
 93 607 93 607 93 584 c 128,-1,6
 93 561 93 561 106.5 548.5 c 128,-1,7
 120 536 120 536 138.5 536 c 128,-1,0
 157 536 157 536 170.5 548 c 128,-1,1
72 516.5 m 128,-1,9
 44 540 44 540 44 583 c 128,-1,10
 44 626 44 626 74 652 c 128,-1,11
 104 678 104 678 142.5 678 c 128,-1,12
 181 678 181 678 206.5 654.5 c 128,-1,13
 232 631 232 631 232 586.5 c 128,-1,14
 232 542 232 542 204 517.5 c 128,-1,15
 176 493 176 493 138 493 c 128,-1,8
 100 493 100 493 72 516.5 c 128,-1,9
EndSplineSet
EndChar

StartChar: plusminus
Encoding: 177 177 112
Width: 499
GlyphClass: 2
Flags: W
LayerCount: 2
Fore
SplineSet
453 186 m 2,0,1
 468 186 468 186 468 176 c 2,2,-1
 468 173 l 2,3,4
 468 119 468 119 428 119 c 2,5,-1
 45 119 l 2,6,7
 30 119 30 119 30 140 c 0,8,9
 30 183 30 183 73 183 c 2,10,-1
 453 186 l 2,0,1
218 244 m 1,11,-1
 219 362 l 1,12,-1
 45 362 l 2,13,14
 30 362 30 362 30 382 c 0,15,16
 30 426 30 426 73 426 c 0,17,18
 170 426 170 426 219 427 c 1,19,20
 220 485 220 485 220 534 c 0,21,22
 220 579 220 579 272 579 c 2,23,-1
 276 579 l 2,24,25
 278 579 278 579 281.5 575 c 128,-1,26
 285 571 285 571 285 564 c 0,27,28
 285 480 285 480 284 428 c 1,29,-1
 451 429 l 2,30,31
 458 429 458 429 462 425.5 c 128,-1,32
 466 422 466 422 466 419 c 2,33,-1
 466 416 l 2,34,35
 466 362 466 362 426 362 c 2,36,-1
 284 362 l 1,37,38
 283 306 283 306 283 247 c 0,39,40
 283 206 283 206 237 206 c 0,41,42
 218 206 218 206 218 221 c 2,43,-1
 218 244 l 1,11,-1
EndSplineSet
EndChar

StartChar: twosuperior
Encoding: 178 178 113
Width: 306
GlyphClass: 2
Flags: W
LayerCount: 2
Fore
SplineSet
187 261 m 1,0,-1
 92 267 l 1,1,2
 58 267 58 267 36 257 c 0,3,4
 30 255 30 255 29 255 c 0,5,6
 21 255 21 255 21 281.5 c 128,-1,7
 21 308 21 308 48.5 356.5 c 128,-1,8
 76 405 76 405 104 436 c 2,9,-1
 131 466 l 2,10,11
 153 490 153 490 166 508 c 128,-1,12
 179 526 179 526 191.5 554.5 c 128,-1,13
 204 583 204 583 204 608 c 128,-1,14
 204 633 204 633 193 646 c 128,-1,15
 182 659 182 659 170 660 c 2,16,-1
 159 661 l 1,17,18
 135 661 135 661 121.5 649 c 128,-1,19
 108 637 108 637 106 625 c 2,20,-1
 105 613 l 1,21,22
 105 596 105 596 119 586 c 1,23,24
 131 580 131 580 131 570 c 2,25,-1
 131 569 l 2,26,27
 131 553 131 553 121.5 543.5 c 128,-1,28
 112 534 112 534 102 533 c 2,29,-1
 92 532 l 1,30,31
 36 532 36 532 36 591 c 0,32,33
 36 642 36 642 75 671 c 128,-1,34
 114 700 114 700 163.5 700 c 128,-1,35
 213 700 213 700 247 674 c 128,-1,36
 281 648 281 648 281 602 c 0,37,38
 281 540 281 540 228 492 c 1,39,40
 101 381 101 381 101 345 c 0,41,42
 101 339 101 339 112 337.5 c 128,-1,43
 123 336 123 336 158 336 c 0,44,45
 243 336 243 336 268 363 c 0,46,47
 271 365 271 365 274 365 c 0,48,49
 281 365 281 365 281 349 c 0,50,51
 281 288 281 288 248 268 c 0,52,53
 237 261 237 261 187 261 c 1,0,-1
EndSplineSet
EndChar

StartChar: threesuperior
Encoding: 179 179 114
Width: 315
GlyphClass: 2
Flags: W
LayerCount: 2
Fore
SplineSet
111 485 m 1,0,-1
 91 484 l 1,1,-1
 88 484 l 1,2,-1
 84 488 l 1,3,4
 87 526 87 526 106 526 c 2,5,-1
 118 526 l 2,6,7
 171 526 171 526 188 562 c 1,8,9
 200 590 200 590 200 613 c 128,-1,10
 200 636 200 636 190 648 c 1,11,12
 175 663 175 663 154 663 c 128,-1,13
 133 663 133 663 119.5 650.5 c 128,-1,14
 106 638 106 638 106 623 c 128,-1,15
 106 608 106 608 110 599 c 128,-1,16
 114 590 114 590 114 588 c 0,17,18
 114 570 114 570 84 570 c 0,19,20
 42 570 42 570 42 613.5 c 128,-1,21
 42 657 42 657 80 678 c 128,-1,22
 118 699 118 699 165 699 c 0,23,24
 231 699 231 699 260 654 c 0,25,26
 271 636 271 636 271 606.5 c 128,-1,27
 271 577 271 577 252.5 553.5 c 128,-1,28
 234 530 234 530 216 524 c 2,29,-1
 198 517 l 1,30,31
 194 514 194 514 194 512 c 128,-1,32
 194 510 194 510 198 509.5 c 128,-1,33
 202 509 202 509 207.5 507.5 c 128,-1,34
 213 506 213 506 228 498.5 c 128,-1,35
 243 491 243 491 254.5 479.5 c 128,-1,36
 266 468 266 468 275.5 446 c 128,-1,37
 285 424 285 424 285 391 c 128,-1,38
 285 358 285 358 270.5 330 c 128,-1,39
 256 302 256 302 236 289 c 0,40,41
 194 263 194 263 160 262 c 1,42,-1
 145 261 l 1,43,44
 88 261 88 261 56.5 285 c 128,-1,45
 25 309 25 309 25 343.5 c 128,-1,46
 25 378 25 378 41.5 401 c 128,-1,47
 58 424 58 424 86 424 c 0,48,49
 101 424 101 424 113.5 417.5 c 128,-1,50
 126 411 126 411 126 403 c 0,51,52
 126 392 126 392 120 390 c 1,53,54
 102 380 102 380 101 354 c 128,-1,55
 100 328 100 328 112 314.5 c 128,-1,56
 124 301 124 301 144 301 c 0,57,58
 206 301 206 301 206 404 c 0,59,60
 206 485 206 485 111 485 c 1,0,-1
EndSplineSet
EndChar

StartChar: acute
Encoding: 180 180 115
Width: 418
GlyphClass: 2
Flags: W
LayerCount: 2
Fore
SplineSet
238 519 m 1,0,1
 233 515 233 515 228 515 c 0,2,3
 220 515 220 515 220 524 c 1,4,-1
 222 532 l 1,5,6
 249 586 249 586 294 640 c 0,7,8
 298 645 298 645 306.5 645 c 128,-1,9
 315 645 315 645 335 630.5 c 128,-1,10
 355 616 355 616 355 605.5 c 128,-1,11
 355 595 355 595 346 589 c 0,12,13
 304 555 304 555 238 519 c 1,0,1
EndSplineSet
EndChar

StartChar: paragraph
Encoding: 182 182 116
Width: 412
GlyphClass: 2
Flags: W
LayerCount: 2
Fore
SplineSet
252 -9 m 1,0,1
 252 -19 252 -19 244 -21 c 1,2,3
 200 -18 200 -18 200 5 c 1,4,5
 215 90 215 90 215 268 c 2,6,-1
 215 299 l 1,7,-1
 209 304 l 1,8,9
 154 304 154 304 113 317.5 c 128,-1,10
 72 331 72 331 50.5 350 c 128,-1,11
 29 369 29 369 16 396 c 0,12,13
 -3 434 -3 434 -3 478 c 0,14,15
 -3 586 -3 586 78.5 651.5 c 128,-1,16
 160 717 160 717 290 717 c 0,17,18
 345 717 345 717 384 710 c 1,19,20
 390 707 390 707 390 701 c 2,21,-1
 390 699 l 1,22,23
 352 531 352 531 352 270 c 0,24,25
 352 111 352 111 368 29 c 0,26,27
 373 0 373 0 373 -3 c 0,28,29
 373 -13 373 -13 359.5 -17.5 c 128,-1,30
 346 -22 346 -22 329 -22 c 128,-1,31
 312 -22 312 -22 309 -6 c 1,32,33
 304 68 304 68 304 187 c 0,34,35
 304 436 304 436 332 656 c 1,36,37
 332 664 332 664 310 664.5 c 128,-1,38
 288 665 288 665 283 639 c 0,39,40
 262 534 262 534 262 304.5 c 128,-1,41
 262 75 262 75 252 -9 c 1,0,1
EndSplineSet
EndChar

StartChar: periodcentered
Encoding: 183 183 117
Width: 210
GlyphClass: 2
Flags: W
LayerCount: 2
Fore
SplineSet
115 204 m 1,0,-1
 91 203 l 2,1,2
 67 203 67 203 59 213 c 128,-1,3
 51 223 51 223 50.5 250.5 c 128,-1,4
 50 278 50 278 63 290 c 128,-1,5
 76 302 76 302 107 302 c 128,-1,6
 138 302 138 302 152.5 290.5 c 128,-1,7
 167 279 167 279 167 254 c 0,8,9
 167 188 167 188 154 188 c 1,10,-1
 149 191 l 1,11,12
 142 204 142 204 115 204 c 1,0,-1
EndSplineSet
EndChar

StartChar: cedilla
Encoding: 184 184 118
Width: 380
GlyphClass: 2
Flags: W
LayerCount: 2
Fore
SplineSet
165 -40 m 0,0,1
 165 -26 165 -26 179 -18.5 c 128,-1,2
 193 -11 193 -11 204.5 -11 c 128,-1,3
 216 -11 216 -11 218 -12 c 1,4,5
 202 -23 202 -23 202 -31 c 128,-1,6
 202 -39 202 -39 211 -42 c 0,7,8
 241 -52 241 -52 241 -72 c 128,-1,9
 241 -92 241 -92 223.5 -102 c 128,-1,10
 206 -112 206 -112 189 -112 c 128,-1,11
 172 -112 172 -112 159.5 -107.5 c 128,-1,12
 147 -103 147 -103 147 -95 c 1,13,-1
 152 -89 l 1,14,15
 164 -91 164 -91 174 -91 c 128,-1,16
 184 -91 184 -91 190 -84.5 c 128,-1,17
 196 -78 196 -78 196 -70 c 128,-1,18
 196 -62 196 -62 180.5 -53.5 c 128,-1,19
 165 -45 165 -45 165 -40 c 0,0,1
EndSplineSet
EndChar

StartChar: onesuperior
Encoding: 185 185 119
Width: 213
GlyphClass: 2
Flags: W
LayerCount: 2
Fore
SplineSet
157 527 m 2,0,-1
 160 330 l 1,1,-1
 160 293 l 1,2,3
 159 279 159 279 135.5 272 c 128,-1,4
 112 265 112 265 94 265 c 128,-1,5
 76 265 76 265 76 274 c 0,6,7
 76 279 76 279 80 306 c 0,8,9
 90 387 90 387 90 495 c 1,10,-1
 88 587 l 1,11,12
 85 618 85 618 55 618 c 1,13,-1
 43 617 l 2,14,15
 32 617 32 617 32 624 c 0,16,17
 32 639 32 639 82.5 672.5 c 128,-1,18
 133 706 133 706 153 706 c 0,19,20
 163 706 163 706 163 693.5 c 128,-1,21
 163 681 163 681 160 629.5 c 128,-1,22
 157 578 157 578 157 527 c 2,0,-1
EndSplineSet
EndChar

StartChar: ordmasculine
Encoding: 186 186 120
Width: 306
GlyphClass: 2
Flags: W
LayerCount: 2
Fore
SplineSet
95 607 m 1,0,1
 77 606 77 606 69 605.5 c 128,-1,2
 61 605 61 605 61 609.5 c 128,-1,3
 61 614 61 614 65 618 c 0,4,5
 111 659 111 659 216 659 c 0,6,7
 253 659 253 659 281 651 c 1,8,9
 289 647 289 647 289 643 c 1,10,-1
 284 637 l 1,11,12
 265 632 265 632 247.5 619.5 c 128,-1,13
 230 607 230 607 230 602 c 1,14,-1
 235 598 l 1,15,16
 257 586 257 586 269.5 558.5 c 128,-1,17
 282 531 282 531 283 510 c 2,18,-1
 284 488 l 1,19,20
 284 418 284 418 245.5 373.5 c 128,-1,21
 207 329 207 329 141 329 c 0,22,23
 108 329 108 329 83 341 c 128,-1,24
 58 353 58 353 46.5 368 c 128,-1,25
 35 383 35 383 28 402 c 1,26,27
 20 428 20 428 20 455.5 c 128,-1,28
 20 483 20 483 29.5 511 c 128,-1,29
 39 539 39 539 51 552 c 128,-1,30
 63 565 63 565 78 573 c 0,31,32
 99 584 99 584 110.5 584 c 128,-1,33
 122 584 122 584 122 579 c 1,34,-1
 118 572 l 1,35,36
 107 559 107 559 100 537 c 0,37,38
 89 506 89 506 89 478 c 128,-1,39
 89 450 89 450 94.5 427.5 c 128,-1,40
 100 405 100 405 107 394 c 128,-1,41
 114 383 114 383 124 377 c 0,42,43
 136 369 136 369 146 369 c 0,44,45
 183 369 183 369 198 405 c 128,-1,46
 213 441 213 441 213 491.5 c 128,-1,47
 213 542 213 542 183 574.5 c 128,-1,48
 153 607 153 607 95 607 c 1,0,1
EndSplineSet
EndChar

StartChar: guillemotright
Encoding: 187 187 121
Width: 691
GlyphClass: 2
Flags: W
LayerCount: 2
Fore
SplineSet
93 -3 m 0,0,1
 86 -12 86 -12 79 -12 c 0,2,3
 58 -12 58 -12 58 33 c 0,4,5
 58 56 58 56 76 72 c 1,6,7
 118 106 118 106 263 192 c 2,8,-1
 312 221 l 2,9,10
 319 225 319 225 319 230 c 0,11,12
 319 236 319 236 310 245 c 1,13,14
 247 296 247 296 123 374 c 2,15,-1
 83 399 l 2,16,17
 64 411 64 411 64 439.5 c 128,-1,18
 64 468 64 468 78 468 c 1,19,-1
 91 463 l 1,20,21
 219 387 219 387 354 284 c 1,22,-1
 397 252 l 2,23,24
 415 239 415 239 415 223 c 128,-1,25
 415 207 415 207 399 194 c 1,26,27
 110 17 110 17 93 -3 c 0,0,1
329 -11 m 0,28,29
 322 -19 322 -19 315 -19 c 0,30,31
 303 -19 303 -19 298 -4 c 128,-1,32
 293 11 293 11 293 24 c 0,33,34
 293 49 293 49 312 64 c 0,35,36
 360 101 360 101 495 183 c 2,37,-1
 543 212 l 2,38,39
 550 216 550 216 550 220 c 0,40,41
 550 230 550 230 541 235 c 1,42,43
 475 289 475 289 348 368 c 2,44,-1
 305 395 l 1,45,46
 286 410 286 410 286 437.5 c 128,-1,47
 286 465 286 465 300 465 c 1,48,-1
 313 460 l 1,49,50
 442 383 442 383 582 276 c 1,51,-1
 628 242 l 2,52,53
 647 229 647 229 647 213 c 128,-1,54
 647 197 647 197 631 184 c 1,55,56
 347 9 347 9 329 -11 c 0,28,29
EndSplineSet
EndChar

StartChar: onequarter
Encoding: 188 188 122
Width: 586
GlyphClass: 2
Flags: W
LayerCount: 2
Fore
SplineSet
356 178 m 2,0,-1
 405 176 l 1,1,2
 432 176 432 176 447 177 c 1,3,4
 449 243 449 243 449 263 c 2,5,-1
 448 322 l 2,6,7
 448 330 448 330 444 330 c 1,8,-1
 437 326 l 1,9,10
 401 288 401 288 366 217 c 1,11,-1
 354 194 l 2,12,13
 351 188 351 188 351 183 c 128,-1,14
 351 178 351 178 356 178 c 2,0,-1
515 181 m 1,15,-1
 551 183 l 2,16,17
 556 183 556 183 556 176.5 c 128,-1,18
 556 170 556 170 546 147 c 128,-1,19
 536 124 536 124 525 119 c 1,20,-1
 516 118 l 1,21,22
 518 50 518 50 522 26 c 1,23,24
 522 11 522 11 498 3.5 c 128,-1,25
 474 -4 474 -4 453 -4 c 128,-1,26
 432 -4 432 -4 432 6 c 0,27,28
 432 7 432 7 434 11 c 1,29,30
 438 45 438 45 444 115 c 1,31,-1
 392 116 l 2,32,33
 364 116 364 116 336 116 c 2,34,-1
 299 115 l 1,35,-1
 284 115 l 2,36,37
 271 115 271 115 271 127 c 1,38,-1
 272 133 l 1,39,40
 319 248 319 248 432 388 c 0,41,42
 447 406 447 406 454 414 c 2,43,-1
 462 422 l 2,44,45
 478 439 478 439 501.5 439 c 128,-1,46
 525 439 525 439 525 429 c 1,47,48
 515 341 515 341 515 257 c 2,49,-1
 515 181 l 1,15,-1
94 -1 m 1,50,51
 83 -22 83 -22 54 -22 c 128,-1,52
 25 -22 25 -22 25 -10 c 0,53,54
 25 -6 25 -6 28 -1 c 2,55,-1
 460 718 l 2,56,57
 468 733 468 733 499 733 c 128,-1,58
 530 733 530 733 530 725 c 0,59,60
 530 712 530 712 94 -1 c 1,50,51
157 527 m 2,61,-1
 160 330 l 1,62,-1
 160 293 l 1,63,64
 159 279 159 279 135.5 272 c 128,-1,65
 112 265 112 265 94 265 c 128,-1,66
 76 265 76 265 76 274 c 0,67,68
 76 279 76 279 80 306 c 0,69,70
 90 387 90 387 90 495 c 1,71,-1
 88 587 l 1,72,73
 85 618 85 618 55 618 c 1,74,-1
 43 617 l 2,75,76
 32 617 32 617 32 624 c 0,77,78
 32 639 32 639 82.5 672.5 c 128,-1,79
 133 706 133 706 153 706 c 0,80,81
 163 706 163 706 163 693.5 c 128,-1,82
 163 681 163 681 160 629.5 c 128,-1,83
 157 578 157 578 157 527 c 2,61,-1
EndSplineSet
EndChar

StartChar: onehalf
Encoding: 189 189 123
Width: 646
GlyphClass: 2
Flags: W
LayerCount: 2
Fore
SplineSet
94 -1 m 1,0,1
 83 -22 83 -22 54 -22 c 128,-1,2
 25 -22 25 -22 25 -10 c 0,3,4
 25 -6 25 -6 28 -1 c 2,5,-1
 460 718 l 2,6,7
 468 733 468 733 499 733 c 128,-1,8
 530 733 530 733 530 725 c 0,9,10
 530 712 530 712 94 -1 c 1,0,1
527 -2 m 1,11,-1
 432 4 l 1,12,13
 398 4 398 4 376 -6 c 0,14,15
 370 -8 370 -8 369 -8 c 0,16,17
 361 -8 361 -8 361 18.5 c 128,-1,18
 361 45 361 45 388.5 93.5 c 128,-1,19
 416 142 416 142 444 172 c 1,20,-1
 471 203 l 2,21,22
 493 227 493 227 506 245 c 128,-1,23
 519 263 519 263 531.5 291.5 c 128,-1,24
 544 320 544 320 544 345 c 128,-1,25
 544 370 544 370 533 383 c 128,-1,26
 522 396 522 396 510 397 c 2,27,-1
 499 398 l 1,28,29
 475 398 475 398 461.5 386 c 128,-1,30
 448 374 448 374 446 362 c 2,31,-1
 445 350 l 1,32,33
 445 333 445 333 459 323 c 1,34,35
 471 317 471 317 471 307 c 2,36,-1
 471 306 l 2,37,38
 471 290 471 290 461.5 281 c 128,-1,39
 452 272 452 272 442 270 c 2,40,-1
 432 269 l 1,41,42
 376 269 376 269 376 328 c 0,43,44
 376 379 376 379 415 408 c 128,-1,45
 454 437 454 437 503.5 437 c 128,-1,46
 553 437 553 437 587 411 c 128,-1,47
 621 385 621 385 621 339 c 0,48,49
 621 277 621 277 568 229 c 1,50,51
 441 118 441 118 441 82 c 0,52,53
 441 76 441 76 452 74.5 c 128,-1,54
 463 73 463 73 498 73 c 0,55,56
 583 73 583 73 608 100 c 0,57,58
 611 102 611 102 614 102 c 0,59,60
 621 102 621 102 621 86 c 0,61,62
 621 25 621 25 588 5 c 0,63,64
 578 -2 578 -2 527 -2 c 1,11,-1
157 527 m 2,65,-1
 160 330 l 1,66,-1
 160 293 l 1,67,68
 159 279 159 279 135.5 272 c 128,-1,69
 112 265 112 265 94 265 c 128,-1,70
 76 265 76 265 76 274 c 0,71,72
 76 279 76 279 80 306 c 0,73,74
 90 387 90 387 90 495 c 1,75,-1
 88 587 l 1,76,77
 85 618 85 618 55 618 c 1,78,-1
 43 617 l 2,79,80
 32 617 32 617 32 624 c 0,81,82
 32 639 32 639 82.5 672.5 c 128,-1,83
 133 706 133 706 153 706 c 0,84,85
 163 706 163 706 163 693.5 c 128,-1,86
 163 681 163 681 160 629.5 c 128,-1,87
 157 578 157 578 157 527 c 2,65,-1
EndSplineSet
EndChar

StartChar: threequarters
Encoding: 190 190 124
Width: 687
GlyphClass: 2
Flags: W
LayerCount: 2
Fore
SplineSet
111 485 m 1,0,-1
 91 484 l 1,1,-1
 88 484 l 1,2,-1
 84 488 l 1,3,4
 87 526 87 526 106 526 c 2,5,-1
 118 526 l 2,6,7
 171 526 171 526 188 562 c 1,8,9
 200 590 200 590 200 613 c 128,-1,10
 200 636 200 636 190 648 c 1,11,12
 175 663 175 663 154 663 c 128,-1,13
 133 663 133 663 119.5 650.5 c 128,-1,14
 106 638 106 638 106 623 c 128,-1,15
 106 608 106 608 110 599 c 128,-1,16
 114 590 114 590 114 588 c 0,17,18
 114 570 114 570 84 570 c 0,19,20
 42 570 42 570 42 613.5 c 128,-1,21
 42 657 42 657 80 678 c 128,-1,22
 118 699 118 699 165 699 c 0,23,24
 231 699 231 699 260 654 c 0,25,26
 271 636 271 636 271 606.5 c 128,-1,27
 271 577 271 577 252.5 553.5 c 128,-1,28
 234 530 234 530 216 524 c 2,29,-1
 198 517 l 1,30,31
 194 514 194 514 194 512 c 128,-1,32
 194 510 194 510 198 509.5 c 128,-1,33
 202 509 202 509 207.5 507.5 c 128,-1,34
 213 506 213 506 228 498.5 c 128,-1,35
 243 491 243 491 254.5 479.5 c 128,-1,36
 266 468 266 468 275.5 446 c 128,-1,37
 285 424 285 424 285 391 c 128,-1,38
 285 358 285 358 270.5 330 c 128,-1,39
 256 302 256 302 236 289 c 0,40,41
 194 263 194 263 160 262 c 1,42,-1
 145 261 l 1,43,44
 88 261 88 261 56.5 285 c 128,-1,45
 25 309 25 309 25 343.5 c 128,-1,46
 25 378 25 378 41.5 401 c 128,-1,47
 58 424 58 424 86 424 c 0,48,49
 101 424 101 424 113.5 417.5 c 128,-1,50
 126 411 126 411 126 403 c 0,51,52
 126 392 126 392 120 390 c 1,53,54
 102 380 102 380 101 354 c 128,-1,55
 100 328 100 328 112 314.5 c 128,-1,56
 124 301 124 301 144 301 c 0,57,58
 206 301 206 301 206 404 c 0,59,60
 206 485 206 485 111 485 c 1,0,-1
457 178 m 2,61,-1
 506 176 l 1,62,63
 533 176 533 176 548 177 c 1,64,65
 550 243 550 243 550 263 c 2,66,-1
 549 322 l 2,67,68
 549 330 549 330 545 330 c 1,69,-1
 538 326 l 1,70,71
 502 288 502 288 466 217 c 1,72,-1
 455 194 l 2,73,74
 452 188 452 188 452 183 c 128,-1,75
 452 178 452 178 457 178 c 2,61,-1
616 181 m 1,76,-1
 652 183 l 2,77,78
 657 183 657 183 657 176.5 c 128,-1,79
 657 170 657 170 647 147 c 128,-1,80
 637 124 637 124 626 119 c 1,81,-1
 617 118 l 1,82,83
 619 50 619 50 623 26 c 1,84,85
 623 11 623 11 599 3.5 c 128,-1,86
 575 -4 575 -4 554 -4 c 128,-1,87
 533 -4 533 -4 533 6 c 0,88,89
 533 7 533 7 535 11 c 1,90,91
 539 45 539 45 545 115 c 1,92,-1
 493 116 l 2,93,94
 465 116 465 116 437 116 c 2,95,-1
 400 115 l 1,96,-1
 385 115 l 2,97,98
 372 115 372 115 372 127 c 1,99,-1
 373 133 l 1,100,101
 420 248 420 248 533 388 c 0,102,103
 548 406 548 406 556 414 c 2,104,-1
 563 422 l 2,105,106
 579 439 579 439 602.5 439 c 128,-1,107
 626 439 626 439 626 429 c 1,108,109
 616 341 616 341 616 257 c 2,110,-1
 616 181 l 1,76,-1
195 -1 m 1,111,112
 184 -22 184 -22 155 -22 c 128,-1,113
 126 -22 126 -22 126 -10 c 0,114,115
 126 -6 126 -6 129 -1 c 2,116,-1
 561 718 l 2,117,118
 569 733 569 733 600 733 c 128,-1,119
 631 733 631 733 631 725 c 0,120,121
 631 712 631 712 195 -1 c 1,111,112
EndSplineSet
EndChar

StartChar: questiondown
Encoding: 191 191 125
Width: 407
GlyphClass: 2
Flags: W
LayerCount: 2
Fore
SplineSet
250 392 m 2,0,-1
 226 391 l 2,1,2
 202 391 202 391 193.5 401.5 c 128,-1,3
 185 412 185 412 185 438.5 c 128,-1,4
 185 465 185 465 196.5 477.5 c 128,-1,5
 208 490 208 490 241.5 490 c 128,-1,6
 275 490 275 490 288.5 477 c 128,-1,7
 302 464 302 464 302 420 c 128,-1,8
 302 376 302 376 289 376 c 1,9,-1
 278 384 l 2,10,11
 267 392 267 392 250 392 c 2,0,-1
295 -208 m 128,-1,13
 253 -225 253 -225 200 -225 c 128,-1,14
 147 -225 147 -225 111 -209.5 c 128,-1,15
 75 -194 75 -194 58 -174 c 128,-1,16
 41 -154 41 -154 31 -128 c 0,17,18
 18 -94 18 -94 18 -57 c 128,-1,19
 18 -20 18 -20 38 20 c 128,-1,20
 58 60 58 60 86 87 c 128,-1,21
 114 114 114 114 142 138 c 0,22,23
 210 195 210 195 210 237 c 0,24,25
 210 261 210 261 196 281 c 128,-1,26
 182 301 182 301 182 302 c 0,27,28
 182 311 182 311 202 311 c 0,29,30
 211 311 211 311 233.5 303.5 c 128,-1,31
 256 296 256 296 269.5 286 c 128,-1,32
 283 276 283 276 294 255.5 c 128,-1,33
 305 235 305 235 305 214 c 128,-1,34
 305 193 305 193 290 183 c 0,35,36
 128 68 128 68 128 -57 c 0,37,38
 128 -89 128 -89 137 -116 c 0,39,40
 154 -170 154 -170 202.5 -170 c 128,-1,41
 251 -170 251 -170 276.5 -132 c 128,-1,42
 302 -94 302 -94 302 -39 c 0,43,44
 302 -1 302 -1 280 26 c 0,45,46
 272 35 272 35 272 38 c 0,47,48
 272 49 272 49 299 49 c 0,49,50
 311 49 311 49 332 41.5 c 128,-1,51
 353 34 353 34 366.5 23 c 128,-1,52
 380 12 380 12 391 -12.5 c 128,-1,53
 402 -37 402 -37 402 -56.5 c 128,-1,54
 402 -76 402 -76 400.5 -86.5 c 128,-1,55
 399 -97 399 -97 387.5 -124 c 128,-1,56
 376 -151 376 -151 356.5 -171 c 128,-1,12
 337 -191 337 -191 295 -208 c 128,-1,13
EndSplineSet
EndChar

StartChar: Agrave
Encoding: 192 192 126
Width: 573
GlyphClass: 2
Flags: W
LayerCount: 2
Fore
SplineSet
411.5 778.5 m 128,-1,1
 409 775 409 775 404.5 775 c 128,-1,2
 400 775 400 775 354 804.5 c 128,-1,3
 308 834 308 834 294 844.5 c 128,-1,4
 280 855 280 855 280 865.5 c 128,-1,5
 280 876 280 876 299.5 890.5 c 128,-1,6
 319 905 319 905 328 905 c 1,7,-1
 340 900 l 1,8,9
 355 885 355 885 384.5 839.5 c 128,-1,10
 414 794 414 794 414 788 c 128,-1,0
 414 782 414 782 411.5 778.5 c 128,-1,1
290 573 m 0,11,12
 211 474 211 474 176 375 c 1,13,-1
 177 375 l 2,14,15
 316 375 316 375 336.5 374.5 c 128,-1,16
 357 374 357 374 359 376 c 128,-1,17
 361 378 361 378 362 381 c 1,18,19
 345 504 345 504 335 548.5 c 128,-1,20
 325 593 325 593 315 593 c 128,-1,21
 305 593 305 593 290 573 c 0,11,12
201 102 m 1,22,-1
 223 106 l 1,23,24
 233 106 233 106 233 95 c 0,25,26
 233 60 233 60 219 36 c 128,-1,27
 205 12 205 12 184 2 c 0,28,29
 150 -15 150 -15 126 -15 c 0,30,31
 80 -15 80 -15 57 19.5 c 128,-1,32
 34 54 34 54 34 123.5 c 128,-1,33
 34 193 34 193 72 304 c 1,34,-1
 14 304 l 2,35,36
 3 304 3 304 3 315 c 128,-1,37
 3 326 3 326 20 350.5 c 128,-1,38
 37 375 37 375 56 375 c 2,39,-1
 101 375 l 1,40,41
 172 533 172 533 268 648 c 0,42,43
 293 678 293 678 329.5 704 c 128,-1,44
 366 730 366 730 386 730 c 128,-1,45
 406 730 406 730 416 712 c 0,46,47
 442 670 442 670 477 405 c 1,48,49
 489 291 489 291 518.5 169.5 c 128,-1,50
 548 48 548 48 573 28 c 0,51,52
 579 24 579 24 579 18 c 0,53,54
 579 3 579 3 536.5 -10 c 128,-1,55
 494 -23 494 -23 471.5 -23 c 128,-1,56
 449 -23 449 -23 437 -17.5 c 128,-1,57
 425 -12 425 -12 422 -6 c 0,58,59
 404 33 404 33 386 180 c 2,60,-1
 380 227 l 1,61,62
 376 274 376 274 372 298 c 1,63,-1
 365 303 l 1,64,-1
 156 304 l 1,65,66
 144 253 144 253 144 215 c 128,-1,67
 144 177 144 177 146.5 159.5 c 128,-1,68
 149 142 149 142 163 122 c 128,-1,69
 177 102 177 102 201 102 c 1,22,-1
EndSplineSet
EndChar

StartChar: Aacute
Encoding: 193 193 127
Width: 573
GlyphClass: 2
Flags: W
LayerCount: 2
Fore
SplineSet
308 748 m 1,0,1
 303 744 303 744 298 744 c 0,2,3
 290 744 290 744 290 753 c 1,4,-1
 292 761 l 1,5,6
 319 815 319 815 364 869 c 0,7,8
 368 874 368 874 376.5 874 c 128,-1,9
 385 874 385 874 405 859.5 c 128,-1,10
 425 845 425 845 425 834.5 c 128,-1,11
 425 824 425 824 416 818 c 0,12,13
 374 784 374 784 308 748 c 1,0,1
290 573 m 0,14,15
 211 474 211 474 176 375 c 1,16,-1
 177 375 l 2,17,18
 316 375 316 375 336.5 374.5 c 128,-1,19
 357 374 357 374 359 376 c 128,-1,20
 361 378 361 378 362 381 c 1,21,22
 345 504 345 504 335 548.5 c 128,-1,23
 325 593 325 593 315 593 c 128,-1,24
 305 593 305 593 290 573 c 0,14,15
201 102 m 1,25,-1
 223 106 l 1,26,27
 233 106 233 106 233 95 c 0,28,29
 233 60 233 60 219 36 c 128,-1,30
 205 12 205 12 184 2 c 0,31,32
 150 -15 150 -15 126 -15 c 0,33,34
 80 -15 80 -15 57 19.5 c 128,-1,35
 34 54 34 54 34 123.5 c 128,-1,36
 34 193 34 193 72 304 c 1,37,-1
 14 304 l 2,38,39
 3 304 3 304 3 315 c 128,-1,40
 3 326 3 326 20 350.5 c 128,-1,41
 37 375 37 375 56 375 c 2,42,-1
 101 375 l 1,43,44
 172 533 172 533 268 648 c 0,45,46
 293 678 293 678 329.5 704 c 128,-1,47
 366 730 366 730 386 730 c 128,-1,48
 406 730 406 730 416 712 c 0,49,50
 442 670 442 670 477 405 c 1,51,52
 489 291 489 291 518.5 169.5 c 128,-1,53
 548 48 548 48 573 28 c 0,54,55
 579 24 579 24 579 18 c 0,56,57
 579 3 579 3 536.5 -10 c 128,-1,58
 494 -23 494 -23 471.5 -23 c 128,-1,59
 449 -23 449 -23 437 -17.5 c 128,-1,60
 425 -12 425 -12 422 -6 c 0,61,62
 404 33 404 33 386 180 c 2,63,-1
 380 227 l 1,64,65
 376 274 376 274 372 298 c 1,66,-1
 365 303 l 1,67,-1
 156 304 l 1,68,69
 144 253 144 253 144 215 c 128,-1,70
 144 177 144 177 146.5 159.5 c 128,-1,71
 149 142 149 142 163 122 c 128,-1,72
 177 102 177 102 201 102 c 1,25,-1
EndSplineSet
EndChar

StartChar: Acircumflex
Encoding: 194 194 128
Width: 573
GlyphClass: 2
Flags: W
LayerCount: 2
Fore
SplineSet
462 758 m 0,0,1
 462 749 462 749 454 749 c 128,-1,2
 446 749 446 749 352 812 c 1,3,4
 259 749 259 749 250 749 c 128,-1,5
 241 749 241 749 241 757 c 1,6,-1
 243 765 l 1,7,8
 276 828 276 828 312 867 c 0,9,10
 316 872 316 872 325 872 c 128,-1,11
 334 872 334 872 352 858 c 1,12,13
 370 872 370 872 380 872 c 1,14,-1
 392 867 l 1,15,16
 422 837 422 837 451 784 c 2,17,-1
 461 765 l 2,18,19
 462 762 462 762 462 758 c 0,0,1
290 573 m 0,20,21
 211 474 211 474 176 375 c 1,22,-1
 177 375 l 2,23,24
 316 375 316 375 336.5 374.5 c 128,-1,25
 357 374 357 374 359 376 c 128,-1,26
 361 378 361 378 362 381 c 1,27,28
 345 504 345 504 335 548.5 c 128,-1,29
 325 593 325 593 315 593 c 128,-1,30
 305 593 305 593 290 573 c 0,20,21
201 102 m 1,31,-1
 223 106 l 1,32,33
 233 106 233 106 233 95 c 0,34,35
 233 60 233 60 219 36 c 128,-1,36
 205 12 205 12 184 2 c 0,37,38
 150 -15 150 -15 126 -15 c 0,39,40
 80 -15 80 -15 57 19.5 c 128,-1,41
 34 54 34 54 34 123.5 c 128,-1,42
 34 193 34 193 72 304 c 1,43,-1
 14 304 l 2,44,45
 3 304 3 304 3 315 c 128,-1,46
 3 326 3 326 20 350.5 c 128,-1,47
 37 375 37 375 56 375 c 2,48,-1
 101 375 l 1,49,50
 172 533 172 533 268 648 c 0,51,52
 293 678 293 678 329.5 704 c 128,-1,53
 366 730 366 730 386 730 c 128,-1,54
 406 730 406 730 416 712 c 0,55,56
 442 670 442 670 477 405 c 1,57,58
 489 291 489 291 518.5 169.5 c 128,-1,59
 548 48 548 48 573 28 c 0,60,61
 579 24 579 24 579 18 c 0,62,63
 579 3 579 3 536.5 -10 c 128,-1,64
 494 -23 494 -23 471.5 -23 c 128,-1,65
 449 -23 449 -23 437 -17.5 c 128,-1,66
 425 -12 425 -12 422 -6 c 0,67,68
 404 33 404 33 386 180 c 2,69,-1
 380 227 l 1,70,71
 376 274 376 274 372 298 c 1,72,-1
 365 303 l 1,73,-1
 156 304 l 1,74,75
 144 253 144 253 144 215 c 128,-1,76
 144 177 144 177 146.5 159.5 c 128,-1,77
 149 142 149 142 163 122 c 128,-1,78
 177 102 177 102 201 102 c 1,31,-1
EndSplineSet
EndChar

StartChar: Atilde
Encoding: 195 195 129
Width: 573
GlyphClass: 2
Flags: W
LayerCount: 2
Fore
SplineSet
307 830 m 1,0,-1
 408 822 l 1,1,2
 428 822 428 822 437 825 c 128,-1,3
 446 828 446 828 447 828 c 0,4,5
 453 828 453 828 453 823 c 0,6,7
 453 808 453 808 433.5 790 c 128,-1,8
 414 772 414 772 395.5 772 c 128,-1,9
 377 772 377 772 348.5 779 c 128,-1,10
 320 786 320 786 301 786 c 128,-1,11
 282 786 282 786 268.5 783 c 128,-1,12
 255 780 255 780 247 777 c 128,-1,13
 239 774 239 774 236 774 c 128,-1,14
 233 774 233 774 233 782 c 128,-1,15
 233 790 233 790 255.5 810 c 128,-1,16
 278 830 278 830 307 830 c 1,0,-1
290 573 m 0,17,18
 211 474 211 474 176 375 c 1,19,-1
 177 375 l 2,20,21
 316 375 316 375 336.5 374.5 c 128,-1,22
 357 374 357 374 359 376 c 128,-1,23
 361 378 361 378 362 381 c 1,24,25
 345 504 345 504 335 548.5 c 128,-1,26
 325 593 325 593 315 593 c 128,-1,27
 305 593 305 593 290 573 c 0,17,18
201 102 m 1,28,-1
 223 106 l 1,29,30
 233 106 233 106 233 95 c 0,31,32
 233 60 233 60 219 36 c 128,-1,33
 205 12 205 12 184 2 c 0,34,35
 150 -15 150 -15 126 -15 c 0,36,37
 80 -15 80 -15 57 19.5 c 128,-1,38
 34 54 34 54 34 123.5 c 128,-1,39
 34 193 34 193 72 304 c 1,40,-1
 14 304 l 2,41,42
 3 304 3 304 3 315 c 128,-1,43
 3 326 3 326 20 350.5 c 128,-1,44
 37 375 37 375 56 375 c 2,45,-1
 101 375 l 1,46,47
 172 533 172 533 268 648 c 0,48,49
 293 678 293 678 329.5 704 c 128,-1,50
 366 730 366 730 386 730 c 128,-1,51
 406 730 406 730 416 712 c 0,52,53
 442 670 442 670 477 405 c 1,54,55
 489 291 489 291 518.5 169.5 c 128,-1,56
 548 48 548 48 573 28 c 0,57,58
 579 24 579 24 579 18 c 0,59,60
 579 3 579 3 536.5 -10 c 128,-1,61
 494 -23 494 -23 471.5 -23 c 128,-1,62
 449 -23 449 -23 437 -17.5 c 128,-1,63
 425 -12 425 -12 422 -6 c 0,64,65
 404 33 404 33 386 180 c 2,66,-1
 380 227 l 1,67,68
 376 274 376 274 372 298 c 1,69,-1
 365 303 l 1,70,-1
 156 304 l 1,71,72
 144 253 144 253 144 215 c 128,-1,73
 144 177 144 177 146.5 159.5 c 128,-1,74
 149 142 149 142 163 122 c 128,-1,75
 177 102 177 102 201 102 c 1,28,-1
EndSplineSet
EndChar

StartChar: Adieresis
Encoding: 196 196 130
Width: 573
GlyphClass: 2
Flags: W
LayerCount: 2
Fore
SplineSet
462 817 m 2,0,-1
 441 816 l 2,1,2
 422 816 422 816 415 824.5 c 128,-1,3
 408 833 408 833 408 856 c 128,-1,4
 408 879 408 879 418 888 c 128,-1,5
 428 897 428 897 455 897 c 128,-1,6
 482 897 482 897 492.5 886.5 c 128,-1,7
 503 876 503 876 503 856 c 0,8,9
 503 804 503 804 493 804 c 1,10,-1
 489 807 l 1,11,12
 483 817 483 817 462 817 c 2,0,-1
287 817 m 2,13,-1
 266 816 l 2,14,15
 247 816 247 816 240 824.5 c 128,-1,16
 233 833 233 833 233 856 c 128,-1,17
 233 879 233 879 243 888 c 128,-1,18
 253 897 253 897 280 897 c 128,-1,19
 307 897 307 897 317.5 886.5 c 128,-1,20
 328 876 328 876 328 856 c 0,21,22
 328 821 328 821 324 812.5 c 128,-1,23
 320 804 320 804 318 804 c 1,24,-1
 314 807 l 1,25,26
 308 817 308 817 287 817 c 2,13,-1
290 573 m 0,27,28
 211 474 211 474 176 375 c 1,29,-1
 177 375 l 2,30,31
 316 375 316 375 336.5 374.5 c 128,-1,32
 357 374 357 374 359 376 c 128,-1,33
 361 378 361 378 362 381 c 1,34,35
 345 504 345 504 335 548.5 c 128,-1,36
 325 593 325 593 315 593 c 128,-1,37
 305 593 305 593 290 573 c 0,27,28
201 102 m 1,38,-1
 223 106 l 1,39,40
 233 106 233 106 233 95 c 0,41,42
 233 60 233 60 219 36 c 128,-1,43
 205 12 205 12 184 2 c 0,44,45
 150 -15 150 -15 126 -15 c 0,46,47
 80 -15 80 -15 57 19.5 c 128,-1,48
 34 54 34 54 34 123.5 c 128,-1,49
 34 193 34 193 72 304 c 1,50,-1
 14 304 l 2,51,52
 3 304 3 304 3 315 c 128,-1,53
 3 326 3 326 20 350.5 c 128,-1,54
 37 375 37 375 56 375 c 2,55,-1
 101 375 l 1,56,57
 172 533 172 533 268 648 c 0,58,59
 293 678 293 678 329.5 704 c 128,-1,60
 366 730 366 730 386 730 c 128,-1,61
 406 730 406 730 416 712 c 0,62,63
 442 670 442 670 477 405 c 1,64,65
 489 291 489 291 518.5 169.5 c 128,-1,66
 548 48 548 48 573 28 c 0,67,68
 579 24 579 24 579 18 c 0,69,70
 579 3 579 3 536.5 -10 c 128,-1,71
 494 -23 494 -23 471.5 -23 c 128,-1,72
 449 -23 449 -23 437 -17.5 c 128,-1,73
 425 -12 425 -12 422 -6 c 0,74,75
 404 33 404 33 386 180 c 2,76,-1
 380 227 l 1,77,78
 376 274 376 274 372 298 c 1,79,-1
 365 303 l 1,80,-1
 156 304 l 1,81,82
 144 253 144 253 144 215 c 128,-1,83
 144 177 144 177 146.5 159.5 c 128,-1,84
 149 142 149 142 163 122 c 128,-1,85
 177 102 177 102 201 102 c 1,38,-1
EndSplineSet
EndChar

StartChar: Aring
Encoding: 197 197 131
Width: 573
GlyphClass: 2
Flags: W
LayerCount: 2
Fore
SplineSet
369 817 m 0,0,1
 384 817 384 817 402 811 c 1,2,3
 407 811 407 811 407 827 c 0,4,5
 407 874 407 874 378 874 c 0,6,7
 364 874 364 874 356 866 c 128,-1,8
 348 858 348 858 348 846 c 0,9,10
 348 817 348 817 369 817 c 0,0,1
317 843 m 0,11,12
 317 872 317 872 333.5 887 c 128,-1,13
 350 902 350 902 378.5 902 c 128,-1,14
 407 902 407 902 422 881 c 128,-1,15
 437 860 437 860 437 817 c 128,-1,16
 437 774 437 774 424 774 c 0,17,18
 421 774 421 774 418 776 c 0,19,20
 402 790 402 790 364 790 c 0,21,22
 317 790 317 790 317 843 c 0,11,12
290 573 m 0,23,24
 211 474 211 474 176 375 c 1,25,-1
 177 375 l 2,26,27
 316 375 316 375 336.5 374.5 c 128,-1,28
 357 374 357 374 359 376 c 128,-1,29
 361 378 361 378 362 381 c 1,30,31
 345 504 345 504 335 548.5 c 128,-1,32
 325 593 325 593 315 593 c 128,-1,33
 305 593 305 593 290 573 c 0,23,24
201 102 m 1,34,-1
 223 106 l 1,35,36
 233 106 233 106 233 95 c 0,37,38
 233 60 233 60 219 36 c 128,-1,39
 205 12 205 12 184 2 c 0,40,41
 150 -15 150 -15 126 -15 c 0,42,43
 80 -15 80 -15 57 19.5 c 128,-1,44
 34 54 34 54 34 123.5 c 128,-1,45
 34 193 34 193 72 304 c 1,46,-1
 14 304 l 2,47,48
 3 304 3 304 3 315 c 128,-1,49
 3 326 3 326 20 350.5 c 128,-1,50
 37 375 37 375 56 375 c 2,51,-1
 101 375 l 1,52,53
 172 533 172 533 268 648 c 0,54,55
 293 678 293 678 329.5 704 c 128,-1,56
 366 730 366 730 386 730 c 128,-1,57
 406 730 406 730 416 712 c 0,58,59
 442 670 442 670 477 405 c 1,60,61
 489 291 489 291 518.5 169.5 c 128,-1,62
 548 48 548 48 573 28 c 0,63,64
 579 24 579 24 579 18 c 0,65,66
 579 3 579 3 536.5 -10 c 128,-1,67
 494 -23 494 -23 471.5 -23 c 128,-1,68
 449 -23 449 -23 437 -17.5 c 128,-1,69
 425 -12 425 -12 422 -6 c 0,70,71
 404 33 404 33 386 180 c 2,72,-1
 380 227 l 1,73,74
 376 274 376 274 372 298 c 1,75,-1
 365 303 l 1,76,-1
 156 304 l 1,77,78
 144 253 144 253 144 215 c 128,-1,79
 144 177 144 177 146.5 159.5 c 128,-1,80
 149 142 149 142 163 122 c 128,-1,81
 177 102 177 102 201 102 c 1,34,-1
EndSplineSet
EndChar

StartChar: AE
Encoding: 198 198 132
Width: 858
GlyphClass: 2
Flags: W
LayerCount: 2
Fore
SplineSet
338 573 m 0,0,1
 259 474 259 474 224 375 c 1,2,-1
 225 375 l 2,3,4
 364 375 364 375 384.5 374.5 c 128,-1,5
 405 374 405 374 407 376 c 128,-1,6
 409 378 409 378 410 381 c 1,7,8
 393 504 393 504 383 548.5 c 128,-1,9
 373 593 373 593 363 593 c 128,-1,10
 353 593 353 593 338 573 c 0,0,1
249 102 m 1,11,-1
 271 106 l 1,12,13
 281 106 281 106 281 95 c 0,14,15
 281 60 281 60 267 36 c 128,-1,16
 253 12 253 12 232 2 c 0,17,18
 198 -15 198 -15 174 -15 c 0,19,20
 128 -15 128 -15 105 19.5 c 128,-1,21
 82 54 82 54 82 123.5 c 128,-1,22
 82 193 82 193 120 304 c 1,23,-1
 62 304 l 2,24,25
 51 304 51 304 51 315 c 128,-1,26
 51 326 51 326 68 350.5 c 128,-1,27
 85 375 85 375 104 375 c 2,28,-1
 149 375 l 1,29,30
 220 533 220 533 316 648 c 0,31,32
 341 678 341 678 377.5 704 c 128,-1,33
 414 730 414 730 439 730 c 0,34,35
 449 730 449 730 456 722 c 0,36,37
 477 702 477 702 495 599 c 0,38,39
 496 594 496 594 499 594 c 128,-1,40
 502 594 502 594 506 598 c 0,41,42
 555 665 555 665 618 691.5 c 128,-1,43
 681 718 681 718 746 718 c 128,-1,44
 811 718 811 718 828 696 c 0,45,46
 836 685 836 685 836 655.5 c 128,-1,47
 836 626 836 626 829 626 c 0,48,49
 828 626 828 626 820 630 c 0,50,51
 794 642 794 642 755 642 c 0,52,53
 670 642 670 642 622.5 582 c 128,-1,54
 575 522 575 522 559 428 c 1,55,56
 616 429 616 429 765 429 c 0,57,58
 775 429 775 429 775 422 c 0,59,60
 775 406 775 406 759 381.5 c 128,-1,61
 743 357 743 357 723 357 c 2,62,-1
 551 357 l 1,63,64
 550 345 550 345 550 304.5 c 128,-1,65
 550 264 550 264 564.5 219.5 c 128,-1,66
 579 175 579 175 618.5 144 c 128,-1,67
 658 113 658 113 721 113 c 128,-1,68
 784 113 784 113 827 141 c 0,69,70
 832 145 832 145 836 145 c 0,71,72
 844 145 844 145 844 124 c 0,73,74
 844 54 844 54 799.5 20 c 128,-1,75
 755 -14 755 -14 675 -14 c 0,76,77
 637 -14 637 -14 599 -4 c 1,78,79
 552 -23 552 -23 524 -23 c 0,80,81
 478 -23 478 -23 470 -6 c 0,82,83
 452 33 452 33 434 180 c 2,84,-1
 428 227 l 1,85,86
 424 274 424 274 420 298 c 1,87,-1
 413 303 l 1,88,-1
 204 304 l 1,89,90
 192 253 192 253 192 215 c 128,-1,91
 192 177 192 177 194.5 159.5 c 128,-1,92
 197 142 197 142 211 122 c 128,-1,93
 225 102 225 102 249 102 c 1,11,-1
EndSplineSet
EndChar

StartChar: Ccedilla
Encoding: 199 199 133
Width: 506
GlyphClass: 2
Flags: W
LayerCount: 2
Fore
SplineSet
196 -118 m 0,0,1
 196 -111 196 -111 200 -111 c 2,2,-1
 201 -111 l 1,3,4
 213 -114 213 -114 226.5 -114 c 128,-1,5
 240 -114 240 -114 247.5 -106 c 128,-1,6
 255 -98 255 -98 255 -87 c 128,-1,7
 255 -76 255 -76 236.5 -66 c 128,-1,8
 218 -56 218 -56 218 -47.5 c 128,-1,9
 218 -39 218 -39 232 -29 c 2,10,-1
 245 -19 l 1,11,12
 189 -14 189 -14 147.5 12.5 c 128,-1,13
 106 39 106 39 83.5 73 c 128,-1,14
 61 107 61 107 48 152 c 0,15,16
 27 222 27 222 27 299 c 128,-1,17
 27 376 27 376 42 445 c 128,-1,18
 57 514 57 514 88 576.5 c 128,-1,19
 119 639 119 639 176 677 c 128,-1,20
 233 715 233 715 308 715 c 0,21,22
 340 715 340 715 374.5 704.5 c 128,-1,23
 409 694 409 694 431 678.5 c 128,-1,24
 453 663 453 663 470 631 c 128,-1,25
 487 599 487 599 487 556 c 0,26,27
 487 510 487 510 465 473 c 0,28,29
 455 456 455 456 433 442.5 c 128,-1,30
 411 429 411 429 381 429 c 0,31,32
 335 429 335 429 316 470 c 0,33,34
 308 486 308 486 308 505 c 128,-1,35
 308 524 308 524 321 527 c 0,36,37
 335 531 335 531 347 549 c 128,-1,38
 359 567 359 567 359 591 c 0,39,40
 359 610 359 610 349 624 c 0,41,42
 330 649 330 649 294 649 c 128,-1,43
 258 649 258 649 228.5 616 c 128,-1,44
 199 583 199 583 184 533 c 0,45,46
 154 433 154 433 154 349 c 256,47,48
 154 265 154 265 177 214 c 0,49,50
 205 151 205 151 248 130 c 0,51,52
 275 117 275 117 310 117 c 0,53,54
 369 117 369 117 416 170 c 1,55,56
 436 191 436 191 449 220 c 0,57,58
 454 229 454 229 462 229 c 0,59,60
 481 229 481 229 481 183.5 c 128,-1,61
 481 138 481 138 466 102 c 128,-1,62
 451 66 451 66 429 45 c 128,-1,63
 407 24 407 24 378 10 c 1,64,65
 332 -14 332 -14 285 -19 c 0,66,67
 280 -19 280 -19 272.5 -28.5 c 128,-1,68
 265 -38 265 -38 265 -43 c 128,-1,69
 265 -48 265 -48 277 -53 c 0,70,71
 313 -68 313 -68 313 -91.5 c 128,-1,72
 313 -115 313 -115 290.5 -127.5 c 128,-1,73
 268 -140 268 -140 248 -140 c 0,74,75
 196 -140 196 -140 196 -118 c 0,0,1
EndSplineSet
EndChar

StartChar: Egrave
Encoding: 200 200 134
Width: 478
GlyphClass: 2
Flags: W
LayerCount: 2
Fore
SplineSet
379.5 753 m 128,-1,1
 377 750 377 750 372.5 750 c 128,-1,2
 368 750 368 750 322 779.5 c 128,-1,3
 276 809 276 809 262 819.5 c 128,-1,4
 248 830 248 830 248 840.5 c 128,-1,5
 248 851 248 851 267.5 865.5 c 128,-1,6
 287 880 287 880 296 880 c 1,7,-1
 308 875 l 1,8,9
 322 860 322 860 352 814.5 c 128,-1,10
 382 769 382 769 382 762.5 c 128,-1,0
 382 756 382 756 379.5 753 c 128,-1,1
464 124 m 0,11,12
 464 54 464 54 419.5 20 c 128,-1,13
 375 -14 375 -14 295 -14 c 0,14,15
 167 -14 167 -14 106.5 71 c 128,-1,16
 46 156 46 156 46 293 c 0,17,18
 46 315 46 315 48 357 c 1,19,-1
 -8 357 l 2,20,21
 -16 357 -16 357 -16 363 c 0,22,23
 -16 380 -16 380 1 404 c 128,-1,24
 18 428 18 428 38 428 c 2,25,-1
 57 428 l 1,26,27
 70 500 70 500 99.5 555 c 128,-1,28
 129 610 129 610 161.5 640 c 128,-1,29
 194 670 194 670 233 688 c 0,30,31
 295 718 295 718 363 718 c 128,-1,32
 431 718 431 718 448 696 c 0,33,34
 456 685 456 685 456 655.5 c 128,-1,35
 456 626 456 626 449 626 c 0,36,37
 448 626 448 626 440 630 c 0,38,39
 414 642 414 642 375 642 c 0,40,41
 290 642 290 642 242.5 582 c 128,-1,42
 195 522 195 522 179 428 c 1,43,44
 255 429 255 429 385 429 c 0,45,46
 395 429 395 429 395 422 c 0,47,48
 395 406 395 406 379 381.5 c 128,-1,49
 363 357 363 357 343 357 c 2,50,-1
 171 357 l 1,51,52
 170 345 170 345 170 304.5 c 128,-1,53
 170 264 170 264 184.5 219.5 c 128,-1,54
 199 175 199 175 238.5 144 c 128,-1,55
 278 113 278 113 341 113 c 128,-1,56
 404 113 404 113 447 141 c 0,57,58
 452 145 452 145 456 145 c 0,59,60
 464 145 464 145 464 124 c 0,11,12
EndSplineSet
EndChar

StartChar: Eacute
Encoding: 201 201 135
Width: 478
GlyphClass: 2
Flags: W
LayerCount: 2
Fore
SplineSet
299 751 m 1,0,1
 294 747 294 747 289 747 c 0,2,3
 281 747 281 747 281 756 c 1,4,-1
 283 764 l 1,5,6
 310 818 310 818 355 872 c 0,7,8
 359 877 359 877 367.5 877 c 128,-1,9
 376 877 376 877 396 862.5 c 128,-1,10
 416 848 416 848 416 837.5 c 128,-1,11
 416 827 416 827 407 821 c 0,12,13
 365 787 365 787 299 751 c 1,0,1
464 124 m 0,14,15
 464 54 464 54 419.5 20 c 128,-1,16
 375 -14 375 -14 295 -14 c 0,17,18
 167 -14 167 -14 106.5 71 c 128,-1,19
 46 156 46 156 46 293 c 0,20,21
 46 315 46 315 48 357 c 1,22,-1
 -8 357 l 2,23,24
 -16 357 -16 357 -16 363 c 0,25,26
 -16 380 -16 380 1 404 c 128,-1,27
 18 428 18 428 38 428 c 2,28,-1
 57 428 l 1,29,30
 70 500 70 500 99.5 555 c 128,-1,31
 129 610 129 610 161.5 640 c 128,-1,32
 194 670 194 670 233 688 c 0,33,34
 295 718 295 718 363 718 c 128,-1,35
 431 718 431 718 448 696 c 0,36,37
 456 685 456 685 456 655.5 c 128,-1,38
 456 626 456 626 449 626 c 0,39,40
 448 626 448 626 440 630 c 0,41,42
 414 642 414 642 375 642 c 0,43,44
 290 642 290 642 242.5 582 c 128,-1,45
 195 522 195 522 179 428 c 1,46,47
 255 429 255 429 385 429 c 0,48,49
 395 429 395 429 395 422 c 0,50,51
 395 406 395 406 379 381.5 c 128,-1,52
 363 357 363 357 343 357 c 2,53,-1
 171 357 l 1,54,55
 170 345 170 345 170 304.5 c 128,-1,56
 170 264 170 264 184.5 219.5 c 128,-1,57
 199 175 199 175 238.5 144 c 128,-1,58
 278 113 278 113 341 113 c 128,-1,59
 404 113 404 113 447 141 c 0,60,61
 452 145 452 145 456 145 c 0,62,63
 464 145 464 145 464 124 c 0,14,15
EndSplineSet
EndChar

StartChar: Ecircumflex
Encoding: 202 202 136
Width: 478
GlyphClass: 2
Flags: W
LayerCount: 2
Fore
SplineSet
434 754 m 0,0,1
 434 745 434 745 426 745 c 128,-1,2
 418 745 418 745 324 808 c 1,3,4
 231 745 231 745 222 745 c 128,-1,5
 213 745 213 745 213 753 c 1,6,-1
 215 761 l 1,7,8
 248 824 248 824 284 863 c 0,9,10
 288 868 288 868 297 868 c 128,-1,11
 306 868 306 868 324 854 c 1,12,13
 342 868 342 868 352 868 c 1,14,-1
 364 863 l 1,15,16
 394 833 394 833 423 780 c 2,17,-1
 433 761 l 2,18,19
 434 758 434 758 434 754 c 0,0,1
464 124 m 0,20,21
 464 54 464 54 419.5 20 c 128,-1,22
 375 -14 375 -14 295 -14 c 0,23,24
 167 -14 167 -14 106.5 71 c 128,-1,25
 46 156 46 156 46 293 c 0,26,27
 46 315 46 315 48 357 c 1,28,-1
 -8 357 l 2,29,30
 -16 357 -16 357 -16 363 c 0,31,32
 -16 380 -16 380 1 404 c 128,-1,33
 18 428 18 428 38 428 c 2,34,-1
 57 428 l 1,35,36
 70 500 70 500 99.5 555 c 128,-1,37
 129 610 129 610 161.5 640 c 128,-1,38
 194 670 194 670 233 688 c 0,39,40
 295 718 295 718 363 718 c 128,-1,41
 431 718 431 718 448 696 c 0,42,43
 456 685 456 685 456 655.5 c 128,-1,44
 456 626 456 626 449 626 c 0,45,46
 448 626 448 626 440 630 c 0,47,48
 414 642 414 642 375 642 c 0,49,50
 290 642 290 642 242.5 582 c 128,-1,51
 195 522 195 522 179 428 c 1,52,53
 255 429 255 429 385 429 c 0,54,55
 395 429 395 429 395 422 c 0,56,57
 395 406 395 406 379 381.5 c 128,-1,58
 363 357 363 357 343 357 c 2,59,-1
 171 357 l 1,60,61
 170 345 170 345 170 304.5 c 128,-1,62
 170 264 170 264 184.5 219.5 c 128,-1,63
 199 175 199 175 238.5 144 c 128,-1,64
 278 113 278 113 341 113 c 128,-1,65
 404 113 404 113 447 141 c 0,66,67
 452 145 452 145 456 145 c 0,68,69
 464 145 464 145 464 124 c 0,20,21
EndSplineSet
EndChar

StartChar: Edieresis
Encoding: 203 203 137
Width: 478
GlyphClass: 2
Flags: W
LayerCount: 2
Fore
SplineSet
390 764 m 2,0,-1
 369 763 l 2,1,2
 350 763 350 763 343 771.5 c 128,-1,3
 336 780 336 780 336 803 c 128,-1,4
 336 826 336 826 346 835 c 128,-1,5
 356 844 356 844 383 844 c 128,-1,6
 410 844 410 844 420.5 833.5 c 128,-1,7
 431 823 431 823 431 803 c 0,8,9
 431 751 431 751 421 751 c 1,10,-1
 417 754 l 1,11,12
 411 764 411 764 390 764 c 2,0,-1
215 764 m 2,13,-1
 194 763 l 2,14,15
 175 763 175 763 168 771.5 c 128,-1,16
 161 780 161 780 161 803 c 128,-1,17
 161 826 161 826 171 835 c 128,-1,18
 181 844 181 844 208 844 c 128,-1,19
 235 844 235 844 245.5 833.5 c 128,-1,20
 256 823 256 823 256 803 c 0,21,22
 256 768 256 768 252 759.5 c 128,-1,23
 248 751 248 751 246 751 c 1,24,-1
 242 754 l 1,25,26
 236 764 236 764 215 764 c 2,13,-1
464 124 m 0,27,28
 464 54 464 54 419.5 20 c 128,-1,29
 375 -14 375 -14 295 -14 c 0,30,31
 167 -14 167 -14 106.5 71 c 128,-1,32
 46 156 46 156 46 293 c 0,33,34
 46 315 46 315 48 357 c 1,35,-1
 -8 357 l 2,36,37
 -16 357 -16 357 -16 363 c 0,38,39
 -16 380 -16 380 1 404 c 128,-1,40
 18 428 18 428 38 428 c 2,41,-1
 57 428 l 1,42,43
 70 500 70 500 99.5 555 c 128,-1,44
 129 610 129 610 161.5 640 c 128,-1,45
 194 670 194 670 233 688 c 0,46,47
 295 718 295 718 363 718 c 128,-1,48
 431 718 431 718 448 696 c 0,49,50
 456 685 456 685 456 655.5 c 128,-1,51
 456 626 456 626 449 626 c 0,52,53
 448 626 448 626 440 630 c 0,54,55
 414 642 414 642 375 642 c 0,56,57
 290 642 290 642 242.5 582 c 128,-1,58
 195 522 195 522 179 428 c 1,59,60
 255 429 255 429 385 429 c 0,61,62
 395 429 395 429 395 422 c 0,63,64
 395 406 395 406 379 381.5 c 128,-1,65
 363 357 363 357 343 357 c 2,66,-1
 171 357 l 1,67,68
 170 345 170 345 170 304.5 c 128,-1,69
 170 264 170 264 184.5 219.5 c 128,-1,70
 199 175 199 175 238.5 144 c 128,-1,71
 278 113 278 113 341 113 c 128,-1,72
 404 113 404 113 447 141 c 0,73,74
 452 145 452 145 456 145 c 0,75,76
 464 145 464 145 464 124 c 0,27,28
EndSplineSet
EndChar

StartChar: Igrave
Encoding: 204 204 138
Width: 245
GlyphClass: 2
Flags: W
LayerCount: 2
Fore
SplineSet
199.5 759 m 128,-1,1
 197 756 197 756 192.5 756 c 128,-1,2
 188 756 188 756 142 785.5 c 128,-1,3
 96 815 96 815 82 825.5 c 128,-1,4
 68 836 68 836 68 846.5 c 128,-1,5
 68 857 68 857 87.5 871.5 c 128,-1,6
 107 886 107 886 116 886 c 1,7,-1
 128 881 l 1,8,9
 142 866 142 866 172 820.5 c 128,-1,10
 202 775 202 775 202 768.5 c 128,-1,0
 202 762 202 762 199.5 759 c 128,-1,1
190 443 m 1,11,12
 190 133 190 133 204 37 c 1,13,14
 204 13 204 13 158 -2.5 c 128,-1,15
 112 -18 112 -18 82 -18 c 128,-1,16
 52 -18 52 -18 52 -9 c 0,17,18
 52 -3 52 -3 55 6 c 0,19,20
 74 48 74 48 74 344 c 0,21,22
 74 624 74 624 50 655 c 1,23,-1
 46 661 l 1,24,25
 40 666 40 666 40 673.5 c 128,-1,26
 40 681 40 681 51 686 c 1,27,28
 66 695 66 695 104.5 704 c 128,-1,29
 143 713 143 713 174 713 c 128,-1,30
 205 713 205 713 205 699 c 2,31,-1
 205 696 l 1,32,33
 193 592 193 592 190 443 c 1,11,12
EndSplineSet
EndChar

StartChar: Iacute
Encoding: 205 205 139
Width: 245
GlyphClass: 2
Flags: W
LayerCount: 2
Fore
SplineSet
102 740 m 1,0,1
 97 736 97 736 92 736 c 0,2,3
 84 736 84 736 84 745 c 1,4,-1
 86 753 l 1,5,6
 113 807 113 807 158 861 c 0,7,8
 162 866 162 866 170.5 866 c 128,-1,9
 179 866 179 866 199 851.5 c 128,-1,10
 219 837 219 837 219 826.5 c 128,-1,11
 219 816 219 816 210 810 c 0,12,13
 168 776 168 776 102 740 c 1,0,1
190 443 m 1,14,15
 190 133 190 133 204 37 c 1,16,17
 204 13 204 13 158 -2.5 c 128,-1,18
 112 -18 112 -18 82 -18 c 128,-1,19
 52 -18 52 -18 52 -9 c 0,20,21
 52 -3 52 -3 55 6 c 0,22,23
 74 48 74 48 74 344 c 0,24,25
 74 624 74 624 50 655 c 1,26,-1
 46 661 l 1,27,28
 40 666 40 666 40 673.5 c 128,-1,29
 40 681 40 681 51 686 c 1,30,31
 66 695 66 695 104.5 704 c 128,-1,32
 143 713 143 713 174 713 c 128,-1,33
 205 713 205 713 205 699 c 2,34,-1
 205 696 l 1,35,36
 193 592 193 592 190 443 c 1,14,15
EndSplineSet
EndChar

StartChar: Icircumflex
Encoding: 206 206 140
Width: 245
GlyphClass: 2
Flags: W
LayerCount: 2
Fore
SplineSet
241 743 m 0,0,1
 241 734 241 734 233 734 c 128,-1,2
 225 734 225 734 131 797 c 1,3,4
 38 734 38 734 29 734 c 128,-1,5
 20 734 20 734 20 742 c 1,6,-1
 22 750 l 1,7,8
 55 813 55 813 91 852 c 0,9,10
 95 857 95 857 104.5 857 c 128,-1,11
 114 857 114 857 131 843 c 1,12,13
 148 857 148 857 159 857 c 1,14,-1
 171 852 l 1,15,16
 201 822 201 822 230 768 c 2,17,-1
 240 750 l 2,18,19
 241 747 241 747 241 743 c 0,0,1
190 443 m 1,20,21
 190 133 190 133 204 37 c 1,22,23
 204 13 204 13 158 -2.5 c 128,-1,24
 112 -18 112 -18 82 -18 c 128,-1,25
 52 -18 52 -18 52 -9 c 0,26,27
 52 -3 52 -3 55 6 c 0,28,29
 74 48 74 48 74 344 c 0,30,31
 74 624 74 624 50 655 c 1,32,-1
 46 661 l 1,33,34
 40 666 40 666 40 673.5 c 128,-1,35
 40 681 40 681 51 686 c 1,36,37
 66 695 66 695 104.5 704 c 128,-1,38
 143 713 143 713 174 713 c 128,-1,39
 205 713 205 713 205 699 c 2,40,-1
 205 696 l 1,41,42
 193 592 193 592 190 443 c 1,20,21
EndSplineSet
EndChar

StartChar: Idieresis
Encoding: 207 207 141
Width: 245
GlyphClass: 2
Flags: W
LayerCount: 2
Fore
SplineSet
221 756 m 2,0,-1
 200 755 l 2,1,2
 181 755 181 755 174 763.5 c 128,-1,3
 167 772 167 772 167 795 c 128,-1,4
 167 818 167 818 177 827 c 128,-1,5
 187 836 187 836 214 836 c 128,-1,6
 241 836 241 836 251.5 825.5 c 128,-1,7
 262 815 262 815 262 795 c 0,8,9
 262 760 262 760 258 751.5 c 128,-1,10
 254 743 254 743 252 743 c 1,11,-1
 248 746 l 1,12,13
 242 756 242 756 221 756 c 2,0,-1
46 756 m 2,14,-1
 25 755 l 2,15,16
 6 755 6 755 -1 763.5 c 128,-1,17
 -8 772 -8 772 -8 795 c 128,-1,18
 -8 818 -8 818 2 827 c 128,-1,19
 12 836 12 836 39 836 c 128,-1,20
 66 836 66 836 76.5 825.5 c 128,-1,21
 87 815 87 815 87 795 c 0,22,23
 87 743 87 743 77 743 c 1,24,-1
 73 746 l 1,25,26
 67 756 67 756 46 756 c 2,14,-1
190 443 m 1,27,28
 190 133 190 133 204 37 c 1,29,30
 204 13 204 13 158 -2.5 c 128,-1,31
 112 -18 112 -18 82 -18 c 128,-1,32
 52 -18 52 -18 52 -9 c 0,33,34
 52 -3 52 -3 55 6 c 0,35,36
 74 48 74 48 74 344 c 0,37,38
 74 624 74 624 50 655 c 1,39,-1
 46 661 l 1,40,41
 40 666 40 666 40 673.5 c 128,-1,42
 40 681 40 681 51 686 c 1,43,44
 66 695 66 695 104.5 704 c 128,-1,45
 143 713 143 713 174 713 c 128,-1,46
 205 713 205 713 205 699 c 2,47,-1
 205 696 l 1,48,49
 193 592 193 592 190 443 c 1,27,28
EndSplineSet
EndChar

StartChar: Eth
Encoding: 208 208 142
Width: 525
GlyphClass: 2
Flags: W
LayerCount: 2
Fore
SplineSet
184 246 m 1,0,-1
 183 143 l 1,1,2
 202 113 202 113 238.5 113 c 128,-1,3
 275 113 275 113 301 130.5 c 128,-1,4
 327 148 327 148 341.5 178.5 c 128,-1,5
 356 209 356 209 366 239 c 128,-1,6
 376 269 376 269 380 305 c 0,7,8
 385 362 385 362 385 409 c 128,-1,9
 385 456 385 456 374 505 c 128,-1,10
 363 554 363 554 347.5 580.5 c 128,-1,11
 332 607 332 607 311 623 c 0,12,13
 278 648 278 648 240 648 c 0,14,15
 222 648 222 648 209 642 c 128,-1,16
 196 636 196 636 196 627 c 1,17,18
 184 585 184 585 184 436 c 2,19,-1
 184 383 l 1,20,21
 207 384 207 384 279 384 c 0,22,23
 292 384 292 384 292 373 c 0,24,25
 292 323 292 323 256 323 c 2,26,-1
 184 323 l 1,27,-1
 184 246 l 1,0,-1
19 381 m 2,28,-1
 62 381 l 1,29,-1
 62 399 l 2,30,31
 62 559 62 559 53.5 599 c 128,-1,32
 45 639 45 639 40 650 c 2,33,-1
 35 660 l 1,34,35
 31 664 31 664 31 671.5 c 128,-1,36
 31 679 31 679 43 684 c 0,37,38
 121 715 121 715 248 715 c 0,39,40
 515 715 515 715 515 375 c 0,41,42
 515 242 515 242 468 132 c 0,43,44
 449 90 449 90 424 59.5 c 128,-1,45
 399 29 399 29 358.5 8.5 c 128,-1,46
 318 -12 318 -12 269 -12 c 0,47,48
 238 -12 238 -12 205 1.5 c 128,-1,49
 172 15 172 15 160 35 c 0,50,51
 158 38 158 38 157 38 c 2,52,-1
 153 34 l 1,53,54
 118 -11 118 -11 49 -11 c 1,55,56
 34 -9 34 -9 34 -2 c 1,57,-1
 37 10 l 1,58,59
 59 56 59 56 61 323 c 1,60,-1
 -7 323 l 2,61,62
 -20 323 -20 323 -20 342 c 0,63,64
 -20 381 -20 381 19 381 c 2,28,-1
EndSplineSet
EndChar

StartChar: Ntilde
Encoding: 209 209 143
Width: 532
GlyphClass: 2
Flags: W
LayerCount: 2
Fore
SplineSet
257 819 m 1,0,-1
 363 812 l 1,1,2
 391 812 391 812 400 815 c 128,-1,3
 409 818 409 818 411 818 c 0,4,5
 417 818 417 818 417 813 c 0,6,7
 417 797 417 797 394 770.5 c 128,-1,8
 371 744 371 744 349 744 c 128,-1,9
 327 744 327 744 293 753 c 128,-1,10
 259 762 259 762 240 762 c 128,-1,11
 221 762 221 762 207.5 759.5 c 128,-1,12
 194 757 194 757 185 754.5 c 128,-1,13
 176 752 176 752 173 752 c 128,-1,14
 170 752 170 752 170 758 c 0,15,16
 170 772 170 772 200.5 795.5 c 128,-1,17
 231 819 231 819 257 819 c 1,0,-1
409 313 m 2,18,-1
 408 432 l 1,19,20
 408 609 408 609 396 667 c 0,21,22
 394 674 394 674 394 678 c 0,23,24
 394 695 394 695 428 707 c 128,-1,25
 462 719 462 719 482 719 c 128,-1,26
 502 719 502 719 502 707 c 0,27,28
 502 706 502 706 500 696 c 0,29,30
 477 573 477 573 477 305 c 0,31,32
 477 122 477 122 498 42 c 0,33,34
 502 29 502 29 502 28 c 0,35,36
 502 7 502 7 456 -6.5 c 128,-1,37
 410 -20 410 -20 391 -20 c 0,38,39
 361 -20 361 -20 350 -6 c 0,40,41
 328 22 328 22 278.5 151.5 c 128,-1,42
 229 281 229 281 192 393 c 2,43,-1
 154 505 l 2,44,45
 152 510 152 510 149 510 c 0,46,47
 145 510 145 510 140 503 c 1,48,49
 135 410 135 410 135 317 c 128,-1,50
 135 224 135 224 136.5 174 c 128,-1,51
 138 124 138 124 140 98 c 128,-1,52
 142 72 142 72 144 56.5 c 128,-1,53
 146 41 146 41 147.5 34 c 128,-1,54
 149 27 149 27 149 24 c 0,55,56
 149 5 149 5 116 -5.5 c 128,-1,57
 83 -16 83 -16 56.5 -16 c 128,-1,58
 30 -16 30 -16 30 -4 c 0,59,60
 30 2 30 2 33 11 c 128,-1,61
 36 20 36 20 40 34 c 0,62,63
 50 69 50 69 54 161.5 c 128,-1,64
 58 254 58 254 58 372.5 c 128,-1,65
 58 491 58 491 55 545 c 0,66,67
 50 633 50 633 37 663 c 1,68,69
 34 666 34 666 34 671 c 0,70,71
 34 687 34 687 87 702 c 128,-1,72
 140 717 140 717 169.5 717 c 128,-1,73
 199 717 199 717 204 716 c 1,74,75
 218 717 218 717 221 700 c 1,76,77
 250 595 250 595 302.5 453 c 128,-1,78
 355 311 355 311 396 236 c 1,79,80
 401 231 401 231 404 231 c 0,81,82
 409 231 409 231 409 313 c 2,18,-1
EndSplineSet
EndChar

StartChar: Ograve
Encoding: 210 210 144
Width: 562
GlyphClass: 2
Flags: W
LayerCount: 2
Fore
SplineSet
347.5 747 m 128,-1,1
 345 744 345 744 340.5 744 c 128,-1,2
 336 744 336 744 290 773.5 c 128,-1,3
 244 803 244 803 230 813.5 c 128,-1,4
 216 824 216 824 216 834.5 c 128,-1,5
 216 845 216 845 235.5 859.5 c 128,-1,6
 255 874 255 874 264 874 c 1,7,-1
 276 869 l 1,8,9
 290 854 290 854 320 808.5 c 128,-1,10
 350 763 350 763 350 756.5 c 128,-1,0
 350 750 350 750 347.5 747 c 128,-1,1
292 642 m 0,11,12
 256 642 256 642 232 616 c 0,13,14
 190 570 190 570 190 499.5 c 128,-1,15
 190 429 190 429 226 415 c 0,16,17
 235 412 235 412 235 402 c 0,18,19
 235 372 235 372 215 351.5 c 128,-1,20
 195 331 195 331 166 327 c 1,21,22
 157 327 157 327 157 320 c 0,23,24
 156 309 156 309 156 288.5 c 128,-1,25
 156 268 156 268 158 243.5 c 128,-1,26
 160 219 160 219 167.5 185.5 c 128,-1,27
 175 152 175 152 187.5 127.5 c 128,-1,28
 200 103 200 103 223.5 85.5 c 128,-1,29
 247 68 247 68 284.5 68 c 128,-1,30
 322 68 322 68 352 98 c 128,-1,31
 382 128 382 128 394 176 c 0,32,33
 416 260 416 260 416 337.5 c 128,-1,34
 416 415 416 415 406 474 c 128,-1,35
 396 533 396 533 382.5 564 c 128,-1,36
 369 595 369 595 350 614 c 128,-1,37
 331 633 331 633 318 637.5 c 128,-1,38
 305 642 305 642 292 642 c 0,11,12
110 543 m 2,39,-1
 114 549 l 1,40,41
 124 595 124 595 146.5 628.5 c 128,-1,42
 169 662 169 662 191.5 678.5 c 128,-1,43
 214 695 214 695 242 704 c 0,44,45
 279 716 279 716 307 716 c 0,46,47
 374 716 374 716 422.5 685 c 128,-1,48
 471 654 471 654 496 601 c 0,49,50
 542 500 542 500 542 372 c 0,51,52
 542 157 542 157 442 59 c 0,53,54
 393 11 393 11 334 -6 c 0,55,56
 297 -17 297 -17 263 -17 c 0,57,58
 138 -17 138 -17 79 68.5 c 128,-1,59
 20 154 20 154 20 285 c 0,60,61
 20 361 20 361 33 424.5 c 128,-1,62
 46 488 46 488 60 514 c 2,63,-1
 73 540 l 2,64,65
 77 549 77 549 86 549 c 128,-1,66
 95 549 95 549 99.5 547.5 c 128,-1,67
 104 546 104 546 106.5 544.5 c 128,-1,68
 109 543 109 543 110 543 c 2,39,-1
EndSplineSet
EndChar

StartChar: Oacute
Encoding: 211 211 145
Width: 562
GlyphClass: 2
Flags: W
LayerCount: 2
Fore
SplineSet
247 735 m 1,0,1
 242 731 242 731 237 731 c 0,2,3
 229 731 229 731 229 740 c 1,4,-1
 231 748 l 1,5,6
 258 802 258 802 303 856 c 0,7,8
 307 861 307 861 315.5 861 c 128,-1,9
 324 861 324 861 344 846.5 c 128,-1,10
 364 832 364 832 364 821.5 c 128,-1,11
 364 811 364 811 355 805 c 0,12,13
 313 771 313 771 247 735 c 1,0,1
292 642 m 0,14,15
 256 642 256 642 232 616 c 0,16,17
 190 570 190 570 190 499.5 c 128,-1,18
 190 429 190 429 226 415 c 0,19,20
 235 412 235 412 235 402 c 0,21,22
 235 372 235 372 215 351.5 c 128,-1,23
 195 331 195 331 166 327 c 1,24,25
 157 327 157 327 157 320 c 0,26,27
 156 309 156 309 156 288.5 c 128,-1,28
 156 268 156 268 158 243.5 c 128,-1,29
 160 219 160 219 167.5 185.5 c 128,-1,30
 175 152 175 152 187.5 127.5 c 128,-1,31
 200 103 200 103 223.5 85.5 c 128,-1,32
 247 68 247 68 284.5 68 c 128,-1,33
 322 68 322 68 352 98 c 128,-1,34
 382 128 382 128 394 176 c 0,35,36
 416 260 416 260 416 337.5 c 128,-1,37
 416 415 416 415 406 474 c 128,-1,38
 396 533 396 533 382.5 564 c 128,-1,39
 369 595 369 595 350 614 c 128,-1,40
 331 633 331 633 318 637.5 c 128,-1,41
 305 642 305 642 292 642 c 0,14,15
110 543 m 2,42,-1
 114 549 l 1,43,44
 124 595 124 595 146.5 628.5 c 128,-1,45
 169 662 169 662 191.5 678.5 c 128,-1,46
 214 695 214 695 242 704 c 0,47,48
 279 716 279 716 307 716 c 0,49,50
 374 716 374 716 422.5 685 c 128,-1,51
 471 654 471 654 496 601 c 0,52,53
 542 500 542 500 542 372 c 0,54,55
 542 157 542 157 442 59 c 0,56,57
 393 11 393 11 334 -6 c 0,58,59
 297 -17 297 -17 263 -17 c 0,60,61
 138 -17 138 -17 79 68.5 c 128,-1,62
 20 154 20 154 20 285 c 0,63,64
 20 361 20 361 33 424.5 c 128,-1,65
 46 488 46 488 60 514 c 2,66,-1
 73 540 l 2,67,68
 77 549 77 549 86 549 c 128,-1,69
 95 549 95 549 99.5 547.5 c 128,-1,70
 104 546 104 546 106.5 544.5 c 128,-1,71
 109 543 109 543 110 543 c 2,42,-1
EndSplineSet
EndChar

StartChar: Ocircumflex
Encoding: 212 212 146
Width: 562
GlyphClass: 2
Flags: W
LayerCount: 2
Fore
SplineSet
405 745 m 0,0,1
 405 736 405 736 397 736 c 128,-1,2
 389 736 389 736 295 799 c 1,3,4
 202 736 202 736 193 736 c 128,-1,5
 184 736 184 736 184 744 c 1,6,-1
 186 752 l 1,7,8
 219 815 219 815 255 854 c 0,9,10
 259 859 259 859 268.5 859 c 128,-1,11
 278 859 278 859 295 845 c 1,12,13
 312 859 312 859 323 859 c 1,14,-1
 335 854 l 1,15,16
 365 824 365 824 394 770 c 2,17,-1
 404 752 l 2,18,19
 405 749 405 749 405 745 c 0,0,1
292 642 m 0,20,21
 256 642 256 642 232 616 c 0,22,23
 190 570 190 570 190 499.5 c 128,-1,24
 190 429 190 429 226 415 c 0,25,26
 235 412 235 412 235 402 c 0,27,28
 235 372 235 372 215 351.5 c 128,-1,29
 195 331 195 331 166 327 c 1,30,31
 157 327 157 327 157 320 c 0,32,33
 156 309 156 309 156 288.5 c 128,-1,34
 156 268 156 268 158 243.5 c 128,-1,35
 160 219 160 219 167.5 185.5 c 128,-1,36
 175 152 175 152 187.5 127.5 c 128,-1,37
 200 103 200 103 223.5 85.5 c 128,-1,38
 247 68 247 68 284.5 68 c 128,-1,39
 322 68 322 68 352 98 c 128,-1,40
 382 128 382 128 394 176 c 0,41,42
 416 260 416 260 416 337.5 c 128,-1,43
 416 415 416 415 406 474 c 128,-1,44
 396 533 396 533 382.5 564 c 128,-1,45
 369 595 369 595 350 614 c 128,-1,46
 331 633 331 633 318 637.5 c 128,-1,47
 305 642 305 642 292 642 c 0,20,21
110 543 m 2,48,-1
 114 549 l 1,49,50
 124 595 124 595 146.5 628.5 c 128,-1,51
 169 662 169 662 191.5 678.5 c 128,-1,52
 214 695 214 695 242 704 c 0,53,54
 279 716 279 716 307 716 c 0,55,56
 374 716 374 716 422.5 685 c 128,-1,57
 471 654 471 654 496 601 c 0,58,59
 542 500 542 500 542 372 c 0,60,61
 542 157 542 157 442 59 c 0,62,63
 393 11 393 11 334 -6 c 0,64,65
 297 -17 297 -17 263 -17 c 0,66,67
 138 -17 138 -17 79 68.5 c 128,-1,68
 20 154 20 154 20 285 c 0,69,70
 20 361 20 361 33 424.5 c 128,-1,71
 46 488 46 488 60 514 c 2,72,-1
 73 540 l 2,73,74
 77 549 77 549 86 549 c 128,-1,75
 95 549 95 549 99.5 547.5 c 128,-1,76
 104 546 104 546 106.5 544.5 c 128,-1,77
 109 543 109 543 110 543 c 2,48,-1
EndSplineSet
EndChar

StartChar: Otilde
Encoding: 213 213 147
Width: 562
GlyphClass: 2
Flags: W
LayerCount: 2
Fore
SplineSet
269 809 m 1,0,-1
 370 801 l 1,1,2
 390 801 390 801 399 804 c 128,-1,3
 408 807 408 807 409 807 c 0,4,5
 415 807 415 807 415 802 c 0,6,7
 415 787 415 787 395.5 769 c 128,-1,8
 376 751 376 751 357.5 751 c 128,-1,9
 339 751 339 751 310.5 758 c 128,-1,10
 282 765 282 765 263 765 c 128,-1,11
 244 765 244 765 230.5 762 c 128,-1,12
 217 759 217 759 209 756 c 128,-1,13
 201 753 201 753 198 753 c 128,-1,14
 195 753 195 753 195 761 c 128,-1,15
 195 769 195 769 217.5 789 c 128,-1,16
 240 809 240 809 269 809 c 1,0,-1
292 642 m 0,17,18
 256 642 256 642 232 616 c 0,19,20
 190 570 190 570 190 499.5 c 128,-1,21
 190 429 190 429 226 415 c 0,22,23
 235 412 235 412 235 402 c 0,24,25
 235 372 235 372 215 351.5 c 128,-1,26
 195 331 195 331 166 327 c 1,27,28
 157 327 157 327 157 320 c 0,29,30
 156 309 156 309 156 288.5 c 128,-1,31
 156 268 156 268 158 243.5 c 128,-1,32
 160 219 160 219 167.5 185.5 c 128,-1,33
 175 152 175 152 187.5 127.5 c 128,-1,34
 200 103 200 103 223.5 85.5 c 128,-1,35
 247 68 247 68 284.5 68 c 128,-1,36
 322 68 322 68 352 98 c 128,-1,37
 382 128 382 128 394 176 c 0,38,39
 416 260 416 260 416 337.5 c 128,-1,40
 416 415 416 415 406 474 c 128,-1,41
 396 533 396 533 382.5 564 c 128,-1,42
 369 595 369 595 350 614 c 128,-1,43
 331 633 331 633 318 637.5 c 128,-1,44
 305 642 305 642 292 642 c 0,17,18
110 543 m 2,45,-1
 114 549 l 1,46,47
 124 595 124 595 146.5 628.5 c 128,-1,48
 169 662 169 662 191.5 678.5 c 128,-1,49
 214 695 214 695 242 704 c 0,50,51
 279 716 279 716 307 716 c 0,52,53
 374 716 374 716 422.5 685 c 128,-1,54
 471 654 471 654 496 601 c 0,55,56
 542 500 542 500 542 372 c 0,57,58
 542 157 542 157 442 59 c 0,59,60
 393 11 393 11 334 -6 c 0,61,62
 297 -17 297 -17 263 -17 c 0,63,64
 138 -17 138 -17 79 68.5 c 128,-1,65
 20 154 20 154 20 285 c 0,66,67
 20 361 20 361 33 424.5 c 128,-1,68
 46 488 46 488 60 514 c 2,69,-1
 73 540 l 2,70,71
 77 549 77 549 86 549 c 128,-1,72
 95 549 95 549 99.5 547.5 c 128,-1,73
 104 546 104 546 106.5 544.5 c 128,-1,74
 109 543 109 543 110 543 c 2,45,-1
EndSplineSet
EndChar

StartChar: Odieresis
Encoding: 214 214 148
Width: 562
GlyphClass: 2
Flags: W
LayerCount: 2
Fore
SplineSet
390 753 m 2,0,-1
 369 752 l 2,1,2
 350 752 350 752 343 760.5 c 128,-1,3
 336 769 336 769 336 792 c 128,-1,4
 336 815 336 815 346 824 c 128,-1,5
 356 833 356 833 383 833 c 128,-1,6
 410 833 410 833 420.5 822.5 c 128,-1,7
 431 812 431 812 431 792 c 0,8,9
 431 740 431 740 421 740 c 1,10,-1
 417 743 l 1,11,12
 411 753 411 753 390 753 c 2,0,-1
215 753 m 2,13,-1
 194 752 l 2,14,15
 175 752 175 752 168 760.5 c 128,-1,16
 161 769 161 769 161 792 c 128,-1,17
 161 815 161 815 171 824 c 128,-1,18
 181 833 181 833 208 833 c 128,-1,19
 235 833 235 833 245.5 822.5 c 128,-1,20
 256 812 256 812 256 792 c 0,21,22
 256 757 256 757 252 748.5 c 128,-1,23
 248 740 248 740 246 740 c 1,24,-1
 242 743 l 1,25,26
 236 753 236 753 215 753 c 2,13,-1
292 642 m 0,27,28
 256 642 256 642 232 616 c 0,29,30
 190 570 190 570 190 499.5 c 128,-1,31
 190 429 190 429 226 415 c 0,32,33
 235 412 235 412 235 402 c 0,34,35
 235 372 235 372 215 351.5 c 128,-1,36
 195 331 195 331 166 327 c 1,37,38
 157 327 157 327 157 320 c 0,39,40
 156 309 156 309 156 288.5 c 128,-1,41
 156 268 156 268 158 243.5 c 128,-1,42
 160 219 160 219 167.5 185.5 c 128,-1,43
 175 152 175 152 187.5 127.5 c 128,-1,44
 200 103 200 103 223.5 85.5 c 128,-1,45
 247 68 247 68 284.5 68 c 128,-1,46
 322 68 322 68 352 98 c 128,-1,47
 382 128 382 128 394 176 c 0,48,49
 416 260 416 260 416 337.5 c 128,-1,50
 416 415 416 415 406 474 c 128,-1,51
 396 533 396 533 382.5 564 c 128,-1,52
 369 595 369 595 350 614 c 128,-1,53
 331 633 331 633 318 637.5 c 128,-1,54
 305 642 305 642 292 642 c 0,27,28
110 543 m 2,55,-1
 114 549 l 1,56,57
 124 595 124 595 146.5 628.5 c 128,-1,58
 169 662 169 662 191.5 678.5 c 128,-1,59
 214 695 214 695 242 704 c 0,60,61
 279 716 279 716 307 716 c 0,62,63
 374 716 374 716 422.5 685 c 128,-1,64
 471 654 471 654 496 601 c 0,65,66
 542 500 542 500 542 372 c 0,67,68
 542 157 542 157 442 59 c 0,69,70
 393 11 393 11 334 -6 c 0,71,72
 297 -17 297 -17 263 -17 c 0,73,74
 138 -17 138 -17 79 68.5 c 128,-1,75
 20 154 20 154 20 285 c 0,76,77
 20 361 20 361 33 424.5 c 128,-1,78
 46 488 46 488 60 514 c 2,79,-1
 73 540 l 2,80,81
 77 549 77 549 86 549 c 128,-1,82
 95 549 95 549 99.5 547.5 c 128,-1,83
 104 546 104 546 106.5 544.5 c 128,-1,84
 109 543 109 543 110 543 c 2,55,-1
EndSplineSet
EndChar

StartChar: multiply
Encoding: 215 215 149
Width: 464
GlyphClass: 2
Flags: W
LayerCount: 2
Fore
SplineSet
430 566 m 0,0,1
 430 563 430 563 403.5 533 c 128,-1,2
 377 503 377 503 275 370 c 1,3,4
 394 194 394 194 414 175.5 c 128,-1,5
 434 157 434 157 434 149 c 0,6,7
 434 135 434 135 400 135 c 0,8,9
 344 135 344 135 338 148 c 0,10,11
 330 167 330 167 231 313 c 1,12,-1
 119 160 l 2,13,14
 104 140 104 140 67 140 c 128,-1,15
 30 140 30 140 30 151 c 1,16,-1
 37 162 l 1,17,18
 117 259 117 259 197 363 c 1,19,-1
 69 544 l 2,20,21
 64 550 64 550 64 556 c 0,22,23
 64 570 64 570 103.5 570 c 128,-1,24
 143 570 143 570 155 552 c 0,25,26
 193 493 193 493 241 421 c 1,27,-1
 344 562 l 1,28,29
 352 580 352 580 391 580 c 128,-1,30
 430 580 430 580 430 566 c 0,0,1
EndSplineSet
EndChar

StartChar: Oslash
Encoding: 216 216 150
Width: 562
GlyphClass: 2
Flags: W
LayerCount: 2
Fore
SplineSet
110 -42 m 1,0,1
 99 -63 99 -63 70 -63 c 128,-1,2
 41 -63 41 -63 41 -51 c 0,3,4
 41 -46 41 -46 44 -42 c 2,5,-1
 521 734 l 1,6,7
 529 749 529 749 560 749 c 128,-1,8
 591 749 591 749 591 741 c 0,9,10
 591 740 591 740 110 -42 c 1,0,1
292 642 m 0,11,12
 256 642 256 642 232 616 c 0,13,14
 190 570 190 570 190 499.5 c 128,-1,15
 190 429 190 429 226 415 c 0,16,17
 235 412 235 412 235 402 c 0,18,19
 235 372 235 372 215 351.5 c 128,-1,20
 195 331 195 331 166 327 c 1,21,22
 157 327 157 327 157 320 c 0,23,24
 156 309 156 309 156 288.5 c 128,-1,25
 156 268 156 268 158 243.5 c 128,-1,26
 160 219 160 219 167.5 185.5 c 128,-1,27
 175 152 175 152 187.5 127.5 c 128,-1,28
 200 103 200 103 223.5 85.5 c 128,-1,29
 247 68 247 68 284.5 68 c 128,-1,30
 322 68 322 68 352 98 c 128,-1,31
 382 128 382 128 394 176 c 0,32,33
 416 260 416 260 416 337.5 c 128,-1,34
 416 415 416 415 406 474 c 128,-1,35
 396 533 396 533 382.5 564 c 128,-1,36
 369 595 369 595 350 614 c 128,-1,37
 331 633 331 633 318 637.5 c 128,-1,38
 305 642 305 642 292 642 c 0,11,12
110 543 m 2,39,-1
 114 549 l 1,40,41
 124 595 124 595 146.5 628.5 c 128,-1,42
 169 662 169 662 191.5 678.5 c 128,-1,43
 214 695 214 695 242 704 c 0,44,45
 279 716 279 716 307 716 c 0,46,47
 374 716 374 716 422.5 685 c 128,-1,48
 471 654 471 654 496 601 c 0,49,50
 542 500 542 500 542 372 c 0,51,52
 542 157 542 157 442 59 c 0,53,54
 393 11 393 11 334 -6 c 0,55,56
 297 -17 297 -17 263 -17 c 0,57,58
 138 -17 138 -17 79 68.5 c 128,-1,59
 20 154 20 154 20 285 c 0,60,61
 20 361 20 361 33 424.5 c 128,-1,62
 46 488 46 488 60 514 c 2,63,-1
 73 540 l 2,64,65
 77 549 77 549 86 549 c 128,-1,66
 95 549 95 549 99.5 547.5 c 128,-1,67
 104 546 104 546 106.5 544.5 c 128,-1,68
 109 543 109 543 110 543 c 2,39,-1
EndSplineSet
EndChar

StartChar: Ugrave
Encoding: 217 217 151
Width: 546
GlyphClass: 2
Flags: W
LayerCount: 2
Fore
SplineSet
335.5 737 m 128,-1,1
 333 734 333 734 328.5 734 c 128,-1,2
 324 734 324 734 278 763.5 c 128,-1,3
 232 793 232 793 218 803.5 c 128,-1,4
 204 814 204 814 204 824.5 c 128,-1,5
 204 835 204 835 223.5 849.5 c 128,-1,6
 243 864 243 864 252 864 c 1,7,-1
 264 859 l 1,8,9
 279 844 279 844 308.5 798.5 c 128,-1,10
 338 753 338 753 338 746.5 c 128,-1,0
 338 740 338 740 335.5 737 c 128,-1,1
51 174 m 1,11,-1
 58 455 l 1,12,13
 58 520 58 520 55 562 c 0,14,15
 50 637 50 637 38 656 c 2,16,-1
 34 662 l 1,17,18
 29 666 29 666 29 672 c 0,19,20
 29 691 29 691 79 702.5 c 128,-1,21
 129 714 129 714 163 714 c 128,-1,22
 197 714 197 714 197 695 c 1,23,-1
 196 684 l 1,24,25
 182 585 182 585 179 449.5 c 128,-1,26
 176 314 176 314 176 272 c 128,-1,27
 176 230 176 230 179 202 c 128,-1,28
 182 174 182 174 182.5 169.5 c 128,-1,29
 183 165 183 165 187.5 152.5 c 128,-1,30
 192 140 192 140 199 130 c 0,31,32
 217 106 217 106 250 106 c 128,-1,33
 283 106 283 106 305.5 121 c 128,-1,34
 328 136 328 136 339 158 c 0,35,36
 362 205 362 205 367 239 c 2,37,-1
 369 254 l 1,38,39
 374 325 374 325 374 422 c 128,-1,40
 374 519 374 519 373 549 c 128,-1,41
 372 579 372 579 370 598.5 c 128,-1,42
 368 618 368 618 366.5 633 c 128,-1,43
 365 648 365 648 364 656.5 c 128,-1,44
 363 665 363 665 363 666 c 0,45,46
 363 677 363 677 374 684 c 1,47,48
 391 697 391 697 426.5 706 c 128,-1,49
 462 715 462 715 490 715 c 128,-1,50
 518 715 518 715 518 702 c 0,51,52
 518 700 518 700 513 669 c 0,53,54
 491 533 491 533 491 291 c 0,55,56
 491 112 491 112 515 36 c 0,57,58
 519 24 519 24 519 19.5 c 128,-1,59
 519 15 519 15 511 8 c 0,60,61
 481 -15 481 -15 431.5 -15 c 128,-1,62
 382 -15 382 -15 378 10 c 1,63,64
 373 23 373 23 372 62 c 1,65,-1
 371 74 l 2,66,67
 371 83 371 83 367 83 c 1,68,-1
 356 76 l 1,69,70
 337 44 337 44 312 22.5 c 128,-1,71
 287 1 287 1 264 -7 c 0,72,73
 231 -19 231 -19 199.5 -19 c 128,-1,74
 168 -19 168 -19 136.5 -2.5 c 128,-1,75
 105 14 105 14 89.5 36 c 128,-1,76
 74 58 74 58 64 88 c 0,77,78
 51 131 51 131 51 174 c 1,11,-1
EndSplineSet
EndChar

